<?xml version="1.0" encoding="UTF-8"?>
<svg id="layer" xmlns="http://www.w3.org/2000/svg" viewBox="0 0 466.03 262.75">
  <defs>
    <style>
      .cls-1 {
        fill: #f16522;
      }

      .cls-2 {
        fill: #292627;
      }
    </style>
  </defs>
  <path class="cls-1" d="m0,102.94c.51-1.07.3-2.25.42-3.36.55-5.03,1.66-9.92,3.31-14.69,2.56-7.42,6.3-14.16,11.5-20.08,3.52-4.01,7.46-7.49,11.97-10.33.98-.62,1.87-1.64,2.82-1.97,1.61-.56,3.01-1.45,4.55-2.09,5.5-2.28,11.18-3.84,17.1-4.48,3.09-.33,6.2-.46,9.31-.34,6.67.26,13.04,1.59,18.94,4.9,5.08,2.84,9.35,6.63,13.34,10.78.19.2.37.42.54.63.43-.26.24-.62.25-.9.02-3.36.03-6.72,0-10.08-.01-.79.21-1,1-1,11.76.02,23.51.02,35.27,0,.7,0,.93.13.98.9.12,1.88.09,3.75.09,5.63,0,35.19,0,70.37.03,105.56,0,1.13-.23,1.46-1.42,1.46-11.56-.05-23.11-.05-34.67,0-1.08,0-1.31-.28-1.29-1.32.07-3.32.03-6.64.03-9.96,0-.38,0-.76,0-1.41-.92,1.07-1.75,1.83-2.54,2.64-4.54,4.66-9.75,8.37-15.81,10.85-3.82,1.56-7.8,2.59-11.86,3.12-4.51.59-9.11.71-13.65.27-5.53-.53-10.93-1.75-16.1-3.87-10.87-4.47-19.3-11.78-25.33-21.83-3.72-6.19-6.32-12.82-7.6-19.96-.43-2.39-.89-4.77-.94-7.21,0-.17-.05-.31-.24-.35v-11.52Zm94.51,4.04c.25-.85-.2-1.64-.2-2.47-.02-2.88-.61-5.67-1.43-8.42-2.14-7.11-6.31-12.68-12.8-16.3-5.54-3.09-11.6-3.86-17.81-2.93-6.57.98-11.94,4.26-15.98,9.51-4.42,5.75-6.27,12.46-6.66,19.6-.16,2.84.15,5.66.7,8.47,1.36,6.91,4.3,12.93,9.72,17.6,4.96,4.27,10.66,6.5,17.24,6.38,2.15-.04,4.3-.33,6.33-.94,5.95-1.78,10.67-5.43,14.34-10.35,4.43-5.95,6.46-12.76,6.57-20.15Z"/>
  <path class="cls-1" d="m466.03,112.78c-.57,1.19-.47,2.52-.66,3.77-.38,2.55-.94,5.05-1.63,7.53-2.01,7.17-5.34,13.66-9.91,19.54-4.52,5.81-9.94,10.59-16.19,14.42-6.92,4.25-14.38,7.17-22.39,8.61-2.83.51-5.69.92-8.58,1.12-2.65.19-5.31.15-7.93.1-2.67-.05-5.38-.33-8.06-.8-3.07-.54-6.09-1.18-9.09-2.01-4.73-1.31-9.19-3.26-13.45-5.65-2.35-1.31-4.56-2.85-6.71-4.49-2.11-1.61-4-3.42-5.9-5.25-5-4.82-8.79-10.49-11.62-16.78-2.08-4.62-3.41-9.5-4.38-14.49-1.05-5.43-1.22-10.92-.86-16.37.48-7.36,2.14-14.51,5.15-21.33,3-6.78,7.12-12.76,12.36-17.96,3.7-3.67,7.96-6.63,12.5-9.18,2.2-1.24,4.48-2.37,6.81-3.22,3.87-1.41,7.84-2.61,11.93-3.34,3.45-.61,6.9-.93,10.38-1.21,4.22-.34,8.39-.11,12.59.24,4.12.34,8.13,1.17,12.07,2.31,7.67,2.21,14.64,5.78,20.93,10.72,3.11,2.45,5.95,5.16,8.44,8.21,4.08,4.99,7.4,10.43,9.68,16.51,1.35,3.6,2.49,7.25,3.26,11,.51,2.48.71,5.03,1.04,7.54.03.22-.08.49.2.63v9.84Zm-37.7-5.43c.27-3.8-.39-7.6-1.46-11.31-1.34-4.68-3.85-8.71-7.6-11.85-4.54-3.8-9.99-5.16-15.77-5.48-2.23-.12-4.44.09-6.64.48-6.84,1.2-12.36,4.51-16.23,10.34-3.13,4.72-4.61,9.97-4.69,15.62-.04,2.86-.05,5.7.55,8.54,1.29,6.12,3.94,11.39,8.81,15.47,3.92,3.28,8.49,5.12,13.48,5.66,6,.65,11.76-.3,17.1-3.41,4.34-2.52,7.51-6.09,9.66-10.51,2.05-4.21,3.02-8.72,2.76-13.54Z"/>
  <path class="cls-1" d="m197.5,0c0,11.12-.02,22.23.03,33.35,0,1.09-.39,1.33-1.3,1.44-1.5.18-2.96.58-4.39,1.11-5.16,1.91-7.38,5.81-7.54,11.11q-.09,2.94,2.85,2.94c3.12,0,6.24.02,9.36-.02.77-.01,1.01.18,1.01.99-.03,9.68-.03,19.35,0,29.03,0,.73-.18.94-.92.93-3.72-.04-7.44.02-11.16-.04-.98-.02-1.15.29-1.15,1.19.02,26.67.01,53.34.05,80.01,0,1.14-.24,1.44-1.41,1.43-11.52-.05-23.03-.05-34.55,0-1.2,0-1.41-.34-1.41-1.46.03-25.75.02-51.5.05-77.25,0-1.05-.33-2.08.05-3.18.26-.73-.5-.72-1.02-.72-3.04,0-6.08-.05-9.12.03-1.02.02-1.24-.28-1.24-1.26.04-9.48.05-18.95,0-28.43,0-1.12.34-1.3,1.34-1.27,3,.06,6,0,9,.04.8.01,1.01-.23,1-1.01-.02-2.42.19-4.84.27-7.25.17-5.59,1.26-10.98,2.99-16.25,1.25-3.8,3.02-7.4,5.45-10.55,3.03-3.94,6.73-7.18,11.3-9.34,4.11-1.94,8.33-3.56,12.8-4.43,2.38-.46,4.77-.9,7.21-.92.37,0,.81.17,1.12-.21h9.36Z"/>
  <path class="cls-2" d="m292.29,262.75c-1.36-1.93-3.14-3.46-4.75-5.16-5.24-5.54-10.53-11.04-15.81-16.54-.26-.27-.46-.64-.99-.75v1.19c0,6.24-.02,12.47.02,18.71,0,1.03-.25,1.42-1.34,1.38-1.89-.07-1.89-.01-1.89-1.87,0-8.63,0-17.27,0-25.9,0-.44,0-.87,0-1.62,7.32,7.66,14.46,15.13,21.63,22.62.37-.31.2-.69.2-1,.01-6.44.03-12.87-.01-19.31,0-.84.2-1.07,1.04-1.05,2.14.05,2.14,0,2.14,2.2,0,9.03,0,18.07,0,27.1h-.24Z"/>
  <path class="cls-2" d="m439.39,262.75c-1.69-2.18-3.72-4.03-5.61-6.03-5.16-5.45-10.37-10.86-15.56-16.29-.08-.08-.18-.14-.28-.22-.3.31-.14.69-.14,1.02-.01,6.31-.04,12.63.02,18.94,0,1.15-.44,1.46-1.45,1.38-.32-.03-.64-.04-.96,0-.64.09-.8-.18-.8-.8.02-9.35.01-18.7.02-28.06,0-.07.04-.15.11-.36,7.2,7.53,14.34,15,21.49,22.49.4-.32.22-.71.22-1.03.01-6.43.03-12.87-.01-19.3,0-.84.2-1.07,1.04-1.05,2.14.05,2.14,0,2.14,2.2,0,9.03,0,18.06,0,27.1h-.24Z"/>
  <path class="cls-1" d="m332.32,106.66c0,18.47,0,36.94.02,55.42,0,1.05-.2,1.41-1.35,1.4-11.4-.05-22.79-.03-34.19-.03-.16,0-.32,0-.48,0-.96.03-1.44-.23-1.4-1.41.1-3.36.04-6.72.03-10.07,0-.25.15-.61-.18-.73-.33-.12-.43.23-.61.43-4.7,5.21-10.15,9.42-16.62,12.21-3.38,1.46-6.9,2.47-10.54,3.18-4.44.86-8.92.79-13.38.84-2.75.03-5.54-.36-8.26-.95-3.84-.84-7.64-1.8-11.25-3.46-4.45-2.04-8.66-4.45-12.44-7.56-9.89-8.16-15.9-18.69-18.89-31.05-.86-3.57-1.41-7.19-1.7-10.85-.23-2.97-.08-5.93-.04-8.9.12-9.2,2.32-17.89,6.06-26.23,1.51-3.36,3.38-6.54,5.51-9.55,3.82-5.42,8.48-9.99,13.92-13.79,6.27-4.37,13.16-7.22,20.64-8.77,2.78-.58,5.57-.78,8.39-.99,1.95-.15,3.89-.2,5.83-.17,9.75.13,18.49,3.08,26.04,9.37,2.3,1.92,4.44,4,6.56,6.11.23.23.39.73.82.52.33-.16.15-.58.15-.88.01-3.24.03-6.48-.01-9.72-.01-.82.2-1.08,1.06-1.08,11.76.03,23.51.04,35.27-.01,1.15,0,1.06.56,1.06,1.32,0,18.47,0,36.94,0,55.42Zm-65.08-30.12c-4.49-.03-8.24,1.08-11.72,2.88-4.35,2.25-7.62,5.71-10.21,9.87-1.32,2.13-2.14,4.45-2.96,6.77-1.43,4.06-1.81,8.28-1.67,12.54.06,1.69.13,3.39.44,5.08,1.33,7.39,4.4,13.85,10.24,18.69,7.36,6.11,15.7,7.69,24.76,4.47,6.23-2.21,10.87-6.41,14.32-12.02,1.98-3.21,3.37-6.66,4.2-10.31,1.2-5.31.98-10.64-.12-15.93-.77-3.7-2.34-7.08-4.34-10.3-1.69-2.71-3.85-5-6.36-6.85-2.73-2.02-5.89-3.4-9.25-4.12-2.56-.55-5.16-1.1-7.34-.76Z"/>
  <path class="cls-2" d="m198.97,187.77c7.33,7.68,14.44,15.13,21.59,22.62.39-.55.24-1,.24-1.41.01-6.24.03-12.48-.01-18.72,0-.9.16-1.24,1.15-1.2,2.08.08,2.08.02,2.08,2.12,0,8.48,0,16.96,0,25.44,0,.43,0,.87,0,1.3l-.26.17c-7.11-7.44-14.22-14.88-21.39-22.38-.3.55-.19.99-.19,1.41,0,6.24-.03,12.48.02,18.72,0,.91-.23,1.14-1.12,1.11-2.11-.06-2.11-.01-2.11-2.14,0-8.52,0-17.04,0-25.56,0-.39,0-.77,0-1.49Z"/>
  <path class="cls-2" d="m34.8,246.3c.02,9.46-6.42,15.78-14.86,15.68-8.71-.11-13.65-6.39-14.45-13.11-.54-4.46,1.14-8.63,4.61-11.91,2.44-2.31,5.53-3.16,8.48-4.38,4.6.7,9.2,1.31,12.52,5.18,2.37,2.76,3.57,5.93,3.71,8.55Zm-14.61-10.18c-6.07-.56-11.36,4.91-11.51,11.29-.16,6.64,5.32,11.59,12.56,11.5,2.76-.03,5.07-1.33,6.99-3.25,2.69-2.7,3.41-6.02,3.28-9.76-.17-5.08-5.42-9.77-11.32-9.77Z"/>
  <path class="cls-2" d="m409.4,247.56c.33,7.74-6.41,14.46-14.5,14.44-8.42-.03-14.67-6.64-14.72-14.57-.05-7.58,6.36-14.5,14.71-14.47,8.13.02,14.9,6.73,14.51,14.61Zm-14.78-11.45c-5.74-.74-11.17,5.59-11.15,10.6.03,6.66,4.75,12.01,10.43,12.25,8.02.34,12.23-6,12.39-10.93.24-7.12-5.56-12.62-11.67-11.93Z"/>
  <path class="cls-2" d="m155.98,247.44c-.25-7.71,6.69-14.69,14.61-14.49,8.53.22,14.64,6.57,14.58,14.59-.05,8.41-6.59,14.31-14.64,14.46-8.03.15-14.91-6.98-14.56-14.56Zm14.59-11.33c-6.3-.62-11.26,5.43-11.48,10.77-.28,7.05,5.92,12.59,12.18,12.08,4.8-.4,11-4.3,10.69-12.62-.2-5.5-5.27-10.23-11.39-10.23Z"/>
  <path class="cls-2" d="m458.09,210.44c.36-.49.21-.94.21-1.35.01-6.28.02-12.55,0-18.83,0-.87.12-1.25,1.13-1.2,2.05.09,2.05.02,2.05,2.06,0,8.48,0,16.95,0,25.43v1.29c-.09.06-.18.12-.27.18-7.1-7.43-14.2-14.86-21.3-22.28-.09.04-.18.08-.26.12,0,.38,0,.76,0,1.14,0,6.24-.02,12.47.02,18.71,0,.96-.16,1.3-1.2,1.25-1.98-.1-1.98-.03-1.98-2.01,0-8.12-.01-16.23.02-24.35,0-.89-.47-1.76-.04-2.93,7.27,7.65,14.44,15.2,21.64,22.78Z"/>
  <path class="cls-2" d="m416.5,217.44c-8.61-.06-14.62-7.34-14.48-14.59.16-8.47,6.85-14.7,15.34-14.4,4.01.14,7.54,1.83,10.28,4.86,1.95,2.15,3.31,4.72,3.61,7.59.5,4.75-.72,9.06-4.29,12.46-2.91,2.77-6.43,4.1-10.46,4.08Zm.13-25.95c-6.41-.34-11.46,5.29-11.34,11.69.11,6.22,5.5,11.35,11.14,11.32,6.53-.03,11.9-4.94,11.68-12.24-.17-5.53-4.96-11.01-11.48-10.76Z"/>
  <path class="cls-2" d="m231.23,247.35c1.68,0,3.36,0,5.04,0,.44,0,.93-.07.83.64-.38,2.62-.27,5.33-1.87,7.7-3.15,4.67-7.52,6.59-13.06,6.21-6.16-.42-11.64-6.04-12.71-11.94-1.25-6.93,3-13.91,9.47-16.14,4.67-1.61,9.2-.98,13.34,1.83,1.22.83,2.15,2,3.19,3.04.26.26.23.47.01.72-.52.59-1.28.89-1.82,1.48-.32.36-.53-.18-.69-.39-.84-1.07-1.8-1.97-2.94-2.73-1.73-1.15-3.59-1.62-5.67-1.68-2.62-.08-5,.38-7.12,1.99-2.54,1.92-4,4.43-4.6,7.58-.73,3.82.51,7.02,2.96,9.75,1.63,1.82,3.78,3.02,6.28,3.46,4.61.81,8.02-1.08,10.67-4.67.59-.8.71-1.8.94-2.74.2-.79-.04-1.2-1.03-1.16-2.08.09-4.16,0-6.24.04-.64.01-.9-.1-.9-.82,0-2.15-.04-2.15,2.08-2.15,1.28,0,2.56,0,3.84,0Z"/>
  <path class="cls-2" d="m289.01,216.96c-1.16,0-2.32-.03-3.48.01-.64.02-.91-.11-.91-.84.03-8.8.02-17.6.02-26.39,0-.44-.07-.88.63-.87,3.85.07,7.72-.24,11.46,1.12,3.39,1.23,5.82,3.37,7.38,6.65,2.75,5.79,1.48,13.15-3.49,17.14-2.5,2-5.33,2.99-8.49,3.12-1.04.04-2.08,0-3.12,0,0,.02,0,.04,0,.05Zm-1.16-13.98v8.04c0,3.02,0,3.04,3.08,2.97,2.99-.07,5.72-.81,8.03-2.9,2.82-2.57,4.38-8.02,2.54-12.38-1.39-3.28-3.56-5.26-6.86-6.29-1.84-.57-3.69-.36-5.54-.47-.96-.06-1.29.15-1.26,1.2.08,3.28.03,6.56.03,9.84Z"/>
  <path class="cls-2" d="m100.61,261.52c.28-.5.17-.95.17-1.38,0-8.51.02-17.03-.02-25.54,0-.91.18-1.21,1.15-1.18,3.09.09,6.21-.19,9.26.52,4.63,1.08,7.85,3.81,9.55,8.32.62,1.63.77,3.34.91,5.02.47,5.58-3.46,11.37-8.84,13.33-1.77.65-3.61.81-5.45.9-2.19.1-4.39.02-6.73.02Zm3.34-14.07c0,2.99,0,5.99,0,8.98q0,2.13,2.13,2.12c2.59,0,5.15-.28,7.36-1.72,3.55-2.33,5.01-5.69,4.9-9.93-.11-4.78-3.18-8.89-7.82-10.05-1.84-.46-3.71-.42-5.59-.46-.79-.02-1.01.21-1,1,.04,3.35.02,6.71.02,10.06Z"/>
  <path class="cls-2" d="m206.26,261.31c-2.88.94-4.44-.34-5.8-2.64-1.79-3.01-3.93-5.81-5.93-8.7-.22-.32-.37-.76-.89-.65-.62.13-.33.65-.33.98-.02,3.36-.04,6.71,0,10.07,0,.83-.11,1.2-1.08,1.17-2.14-.07-2.15,0-2.15-2.12,0-8.27.01-16.54-.02-24.81,0-.91.18-1.22,1.16-1.2,2.85.04,5.68-.01,8.46.78,2.56.73,4.21,2.8,4.55,5.47.36,2.8-.03,5.3-2.13,7.35-1.23,1.19-2.82,1.57-4.57,1.99,2.96,4.18,5.85,8.26,8.72,12.32Zm-12.96-19.98c0,.6,0,1.2,0,1.8,0,3.69,0,3.71,3.71,3.05,1.87-.33,3.47-1.08,4.01-3.14.2-.75.04-1.5.06-2.25.06-2.02-.86-3.31-2.78-3.92-1.42-.45-2.9-.47-4.38-.47-.6,0-.63.32-.62.76,0,1.4,0,2.79,0,4.19Z"/>
  <path class="cls-2" d="m107.03,204.55c2.94,4.15,5.8,8.19,8.78,12.41-1.35,0-2.49,0-3.63,0-.29,0-.43-.12-.62-.4-2.52-3.74-5.08-7.45-7.63-11.17-.24-.35-.43-.88-.98-.68-.52.18-.23.69-.23,1.04-.02,3.36-.05,6.72,0,10.07.01.87-.16,1.15-1.09,1.12-2.09-.07-2.09-.02-2.09-2.14,0-8.08,0-16.15,0-24.23,0-.53-.31-1.32-.07-1.55.44-.41,1.21-.13,1.85-.15,2.41-.08,4.8.03,7.17.66,3.09.82,5.17,3.04,5.28,6.47.04,1.47-.04,2.91-.64,4.26-.96,2.16-2.72,3.37-4.96,3.9-.38.09-.73.2-1.13.37Zm-4.32-7.74c0,.8,0,1.6,0,2.4,0,2.69,0,2.78,2.68,2.55,2.57-.22,4.73-1.05,5.12-3.6.44-2.91-.19-5.21-3.25-5.96-1.24-.31-2.51-.21-3.77-.26-.62-.03-.83.15-.8.79.05,1.36.02,2.72.02,4.07Z"/>
  <path class="cls-2" d="m347.19,216.96c-1.08,0-2.2.12-3.28-.03-.98-.14-1.26-1.2-1.75-1.9-2.25-3.19-4.42-6.43-6.62-9.65-.24-.34-.4-.88-.97-.67-.51.19-.23.7-.24,1.05-.02,3.4-.04,6.79,0,10.19,0,.76-.17,1.01-.97.99-2.21-.03-2.21,0-2.21-2.25,0-8.15.03-16.3-.03-24.45,0-1.21.35-1.41,1.45-1.39,2.75.04,5.47.12,8.15.92,3.1.92,4.55,3.53,4.62,6.33.07,2.73-.41,5.14-2.76,6.84-.9.65-1.89,1.23-3.01,1.26-1.06.03-.93.36-.46,1.02,2.6,3.64,5.18,7.28,7.75,10.93.15.21.44.37.32.82Zm-12.87-20.11v2.52c0,2.5,0,2.53,2.5,2.42,1.06-.05,2.11-.25,3.08-.71,2.16-1.02,2.42-2.91,2.31-5.01-.08-1.64-1.04-3.03-2.56-3.62-1.49-.58-3.03-.44-4.56-.49-.67-.02-.79.24-.78.83.04,1.36.01,2.71.01,4.07Z"/>
  <path class="cls-2" d="m61.85,261.52c4.15-9.88,8.66-19.5,12.89-29.62.86,1.99,1.59,3.67,2.3,5.35,1.53,3.6,3.05,7.21,4.6,10.8,1.75,4.08,3.53,8.15,5.28,12.24.53,1.23.49,1.25-.78,1.26q-2.23.02-3.06-2c-.72-1.73-1.47-3.44-2.14-5.19-.22-.58-.5-.78-1.12-.78-3.44.03-6.88.03-10.31,0-.61,0-.91.17-1.15.75-.85,2.1-1.79,4.17-2.63,6.28-.28.71-.66.98-1.41.92-.79-.07-1.6-.02-2.47-.02Zm12.89-22c-1.63,3.81-3.15,7.37-4.71,11.03,2.92,0,5.67-.01,8.43,0,.67,0,.84-.12.55-.8-1.42-3.33-2.79-6.67-4.27-10.24Z"/>
  <path class="cls-2" d="m238.02,261.52c4.34-9.85,8.61-19.54,12.99-29.49,1.2,2.79,2.26,5.34,3.38,7.86,2.2,4.92,4.21,9.93,6.44,14.84.87,1.91,1.67,3.88,2.45,5.83.32.8.08.96-.67,1-2.43.13-2.75-.11-3.7-2.69-.57-1.55-1.23-3.07-1.81-4.62-.18-.49-.43-.66-.96-.66-3.52.02-7.03.05-10.55,0-1.26-.02-1.26,1.12-1.47,1.7-.68,1.83-1.57,3.56-2.22,5.39-.24.68-.62.91-1.32.86-.79-.06-1.6-.01-2.57-.01Zm12.91-21.96c-1.6,3.76-3.11,7.31-4.67,10.95h9.27c-1.54-3.65-3.03-7.2-4.6-10.95Z"/>
  <path class="cls-2" d="m327.52,261.52c4.34-9.86,8.61-19.54,12.99-29.49,4.27,9.95,8.43,19.65,12.59,29.34-.19.09-.22.11-.25.12q-3.17.19-4.36-2.69c-.59-1.43-1.2-2.86-1.75-4.31-.24-.63-.54-.92-1.29-.91-3.39.05-6.79.04-10.19,0-.67,0-.97.22-1.21.83-.84,2.1-1.78,4.17-2.62,6.27-.27.67-.63.91-1.33.85-.79-.06-1.6-.01-2.57-.01Zm8.24-11.05h9.24c-1.53-3.67-3.01-7.22-4.57-10.94-1.61,3.77-3.14,7.34-4.67,10.94Z"/>
  <path class="cls-2" d="m351.22,216.96c-.32,0-.64.02-.96,0-.26-.02-.79-.01-.73-.12.22-.4-.29-.89.2-1.2.4-.25.53-.67.71-1.08,2.45-5.57,4.92-11.14,7.36-16.72,1.27-2.9,2.47-5.83,3.71-8.75.12-.28.24-.57.4-.83.1-.15.28-.32.45-.34.3-.04.18.26.25.42,1.13,2.62,2.21,5.25,3.4,7.84,2.79,6.06,5.31,12.23,7.96,18.35,1.07,2.47,1.06,2.45-1.6,2.45-.66,0-.99-.18-1.23-.81-.82-2.11-1.74-4.18-2.57-6.29-.25-.64-.55-.91-1.29-.9-3.36.05-6.72.04-10.08,0-.72,0-1.05.22-1.31.88-.73,1.85-1.54,3.67-2.32,5.51q-.68,1.6-2.35,1.6Zm6.37-10.93h9.33c-1.47-3.5-2.91-6.92-4.37-10.33-.07-.15-.28-.33-.44-.35-.31-.04-.18.27-.25.43-.96,2.33-1.93,4.67-2.9,7-.44,1.06-.89,2.11-1.38,3.26Z"/>
  <path class="cls-2" d="m29.83,216.91q-3.32.21-4.56-2.75c-.61-1.47-1.28-2.91-1.85-4.39-.23-.59-.54-.77-1.14-.77-3.44.02-6.87.02-10.31,0-.59,0-.82.22-1.03.73-.82,2.02-1.75,4-2.54,6.04-.35.91-.79,1.27-1.81,1.23-2.24-.09-2.18,0-1.37-2.03,2.59-6.46,5.75-12.67,8.35-19.13,1.01-2.52,2.2-4.99,3.34-7.47.08-.18.06-.52.41-.49.27.02.25.29.31.44,2.7,6.23,5.39,12.47,8.08,18.7,1.23,2.86,2.46,5.71,3.68,8.57.18.42.43.83.42,1.32Zm-7.94-10.83c-1.46-3.47-2.76-6.86-4.32-10.14-.11-.24-.18-.39-.49-.38-.35.02-.33.33-.4.5-.35.83-.61,1.7-.96,2.53-.93,2.24-1.89,4.47-2.85,6.69-.21.48-.36.81.41.8,2.82-.02,5.64,0,8.61,0Z"/>
  <path class="cls-2" d="m195.05,216.87c-.12.04-.16.06-.2.06q-3.22.19-4.45-2.74c-.62-1.47-1.3-2.91-1.86-4.39-.25-.66-.6-.81-1.24-.81-3.36.02-6.72.04-10.08-.01-.74-.01-1.08.28-1.32.89-.82,2.03-1.69,4.04-2.47,6.08-.3.78-.71,1.06-1.57,1.04-2.43-.06-2.43-.02-1.43-2.26.73-1.64,1.52-3.25,2.15-4.92,1.37-3.62,3.23-7.03,4.67-10.62,1.45-3.6,3.08-7.12,4.66-10.66.1-.21.1-.6.44-.64.4-.04.37.38.46.59,1.59,3.77,3.33,7.48,4.93,11.24,1.96,4.59,3.96,9.16,5.87,13.77.47,1.13.95,2.26,1.42,3.39Zm-7.99-10.79c-1.51-3.49-2.93-6.79-4.36-10.08-.08-.19-.09-.44-.45-.44-.36,0-.37.27-.44.46-1.1,3.19-2.58,6.22-3.87,9.33-.25.6-.13.76.5.75,2.79-.02,5.59,0,8.62,0Z"/>
  <path class="cls-2" d="m118.49,216.96c1.78-4.03,3.51-7.88,5.18-11.75,1.68-3.89,3.46-7.73,5.05-11.66.67-1.65,1.42-3.3,2.25-4.9.13-.25.19-.53.56-.52.34,0,.32.33.4.51,2.32,5.32,4.63,10.64,6.92,15.96,1.67,3.86,3.31,7.73,4.97,11.6.09.22.25.42.1.76-.43,0-.91,0-1.38,0-2.15,0-2.16,0-2.87-2-.61-1.74-1.49-3.36-2.19-5.05-.42-1.02-.9-.91-1.59-.91-3.12,0-6.24.04-9.35-.03-.92-.02-1.31.29-1.63,1.12-.79,2.03-1.72,4.01-2.53,6.03-.26.65-.6.91-1.31.85-.79-.07-1.59-.02-2.59-.02Zm17.53-10.91c-1.48-3.59-2.84-7.02-4.46-10.34-.08-.16-.08-.47-.34-.35-.17.08-.31.34-.37.54-.44,1.61-1.17,3.1-1.8,4.63-.76,1.82-1.55,3.63-2.36,5.52h9.33Z"/>
  <path class="cls-2" d="m33.6,199.35c0-3.12.03-6.24-.02-9.35-.01-.73.16-.94.92-.93,2.25.02,2.27-.02,2.26,2.24,0,5.64-.13,11.27,0,16.91.07,3.03,1.34,4.98,4.75,6.05,3.05.96,6.23-.46,7.83-2.66.79-1.08,1.11-2.32.8-3.61-.21-.86.34-1.5.33-2.31-.08-5.12-.01-10.23-.06-15.35,0-.96.17-1.31,1.21-1.26,2.02.09,2.02.02,2.02,2.06,0,5.28-.04,10.55.01,15.83.03,3.09-.74,5.9-3.1,7.92-1.83,1.58-4.02,2.53-6.61,2.6-4.13.11-7.13-1.7-9.29-4.99-.7-1.06-1.05-2.42-1.05-3.77-.01-3.12,0-6.24,0-9.36Z"/>
  <path class="cls-2" d="m277.88,203.05c-3.55,0-6.95.01-10.34-.01-.67,0-1,.06-.99.88.05,3.04.04,6.08,0,9.11,0,.78.24,1,1.02.99,3.12-.05,6.24,0,9.36-.04.79-.01.99.21.98.99-.04,2,0,2-1.98,2-3.8,0-7.6-.03-11.39.02-.94.01-1.19-.23-1.19-1.18.04-8.36.02-16.71.02-25.07q0-1.86,1.87-1.86c3.88,0,7.76.03,11.63-.02.86-.01,1.06.25,1.04,1.07-.05,1.92,0,1.92-1.96,1.92-2.84,0-5.68.02-8.52-.02-.67,0-.89.17-.87.86.04,2.2.04,4.4,0,6.6-.01.7.22.85.88.84,3.08-.03,6.16,0,9.24-.03.74,0,1.08.13,1,.96-.05.61-.17,1.27.21,1.98Z"/>
  <path class="cls-2" d="m310.56,202.93c0-4.32.03-8.64-.02-12.95-.01-.91.24-1.13,1.13-1.12,4.16.05,8.32.05,12.47,0,.86,0,1.06.25,1.04,1.07-.05,1.92,0,1.92-1.96,1.92-2.84,0-5.68.02-8.52-.02-.72,0-.97.17-.95.93.05,2.16.06,4.32,0,6.48-.02.78.24.91.95.9,3-.04,6,0,9-.03.73,0,1.04.11,1.02.95-.05,1.99,0,1.99-1.98,1.99-2.64,0-5.28.02-7.92-.01-.71,0-1.08.07-1.06.95.06,3.04.05,6.08,0,9.12-.01.77.27.92.97.92,3.16-.03,6.32.01,9.48-.03.79-.01,1,.21.98.99-.04,2,0,2-1.99,2-3.8,0-7.6-.03-11.4.02-.96.01-1.28-.18-1.27-1.22.07-4.28.03-8.56.03-12.83Z"/>
  <path class="cls-2" d="m134.34,232.97c2.96.07,5.46,1.05,7.18,3.62.35.53.42.9-.25,1.2-.36.16-.7.39-1.01.64-.61.49-.96.35-1.43-.29-1.47-2.02-3.84-2.74-6.05-1.9-1.76.67-2.73,2.07-2.91,3.85-.16,1.59,1.09,2.53,2.25,3.31,1.62,1.09,3.52,1.66,5.27,2.52,1.66.81,3.27,1.7,4.33,3.28,1.87,2.79,1.45,7.2-1.04,9.89-3.5,3.78-9.61,3.94-13.16.2-1.09-1.15-1.82-2.63-2.24-4.19-.13-.49-.03-.88.64-.77.12.02.28.06.35,0,1.71-1.22,2.17-.14,2.75,1.3,1.08,2.67,3.25,3.57,6.05,3.27,3.39-.37,5.69-4.54,4.13-7.57-.7-1.36-2.08-1.9-3.27-2.63-.99-.61-2.18-.93-3.25-1.41-2.41-1.07-4.7-2.44-5.68-5.1-1.15-3.1.52-7.1,4.03-8.51,1.06-.43,2.13-.81,3.31-.73Z"/>
  <path class="cls-2" d="m453.77,232.95c3.03,0,5.29,1.1,7.01,3.36.52.69.73,1.23-.28,1.62-.04.01-.06.05-.1.07-1.38.9-1.46.96-2.47-.37-1.66-2.19-6.91-2.32-8.26,1.03-.52,1.29-.19,3.04.99,4.11,1,.9,2.24,1.38,3.42,1.95,1.32.64,2.7,1.19,4,1.88,2.78,1.48,4.27,3.64,4.17,7-.1,3.37-1.56,5.74-4.37,7.29-3.09,1.7-6.35,1.64-9.29-.2-1.89-1.18-3.15-3.14-3.66-5.42-.05-.24-.21-.55.22-.67.8-.21,1.58-.48,2.39-.67.48-.11.44.33.52.62.5,1.82,1.49,3.31,3.28,4.02,3.45,1.37,7.42-.7,7.73-4.26.31-3.49-1.05-4.15-3.83-5.66-2.09-1.14-4.42-1.82-6.37-3.26-2.1-1.54-3.08-3.71-2.69-6.17.64-4.02,4.14-6.33,7.59-6.26Z"/>
  <path class="cls-2" d="m316.62,232.95c2.83,0,5.06,1.18,6.75,3.43.48.63.54,1.14-.28,1.51-.14.07-.29.15-.4.26-.88.85-1.47.73-2.13-.35-1.56-2.57-7.2-2.5-8.37.98-.48,1.43-.15,3.04,1.21,4.14,1,.82,2.19,1.29,3.35,1.83,1.59.73,3.21,1.39,4.69,2.35,2.71,1.76,3.74,4.13,3.29,7.36-.44,3.2-2.05,5.42-4.91,6.73-5.08,2.32-10.52-.29-12.22-5.26-.34-.99-.08-1.32.74-1.56.15-.04.31-.04.45-.1.97-.43,1.56-.51,2.01.85,1.53,4.65,6.8,4.73,9.29,2.25,2.53-2.51,1.98-6.35-1.12-8.07-1.59-.88-3.25-1.58-4.88-2.35-.87-.41-1.68-.9-2.49-1.43-3.9-2.55-3.78-8.42.04-11.02,1.81-1.23,2.59-1.47,4.97-1.55Z"/>
  <path class="cls-2" d="m58.34,210.08c.79-.2,1.59-.35,2.35-.61.68-.23.94-.1,1.13.63.51,1.98,1.75,3.34,3.66,4.13,1.35.56,2.64.32,3.85-.21,2.16-.95,3.55-2.59,3.58-5.07,0-.8-.22-1.67-.73-2.28-1.07-1.29-2.36-2.29-3.98-2.94-1.93-.77-3.87-1.59-5.55-2.87-1.15-.87-2.09-1.91-2.45-3.39-.97-4.04,1.07-7.67,4.94-8.62,2.81-.69,5.6-.51,7.98,1.49.64.54,1.08,1.24,1.56,1.9.27.36.23.66-.16.89-.45.27-.92.51-1.36.79-.47.29-.76.3-1.12-.26-1.78-2.68-5.13-2.6-7.02-1.55-1.25.69-1.73,2.21-1.73,3.66,0,1.86,1.19,2.64,2.47,3.39,2.05,1.21,4.35,1.92,6.42,3.11,3.16,1.82,4.35,4.58,3.77,8.03-.74,4.4-4.47,7.11-8.89,7.15-3.94.03-7.19-2.54-8.46-6.4-.11-.32-.18-.65-.27-.97Z"/>
  <path class="cls-2" d="m244.89,202.89c0-4.39.02-8.79-.02-13.18,0-.67.14-.85.83-.85,3.67.04,7.35.04,11.03,0,.8,0,1,.23.99,1.01-.03,1.98.01,1.98-1.93,1.98-2.28,0-4.55.02-6.83-.01-.67-.01-.89.16-.88.86.04,2.2.04,4.39,0,6.59-.01.69.2.86.86.85,2.44-.04,4.87,0,7.31-.03.71-.01,1.04.08,1.02.94-.05,2,0,2-1.98,2s-4.16.04-6.23-.02c-.8-.02-1,.22-.99,1,.04,3.95,0,7.91.04,11.86.01.84-.21,1.07-1.05,1.05-2.18-.04-2.18,0-2.18-2.19,0-3.95,0-7.91,0-11.86Z"/>
  <path class="cls-2" d="m43.88,244.65c2.44,0,4.88.02,7.32-.04.73-.02.92.16.9.91-.06,2.11-.02,2.11-2.11,2.11s-4.08.04-6.12-.02c-.82-.03-.97.25-.96,1,.04,3.92,0,7.84.04,11.76,0,.84-.12,1.2-1.08,1.17-2.14-.06-2.14,0-2.14-2.14,0-8.24.03-16.48-.03-24.71,0-1.1.31-1.3,1.32-1.28,3.48.06,6.96.05,10.44,0,.84-.01,1.18.11,1.14,1.08-.08,1.9-.02,1.91-1.97,1.91-2.28,0-4.56.02-6.84-.02-.68-.01-.89.19-.87.87.04,2,.03,4,0,6,0,.48.16.84.39,1.22.07.46.4.1.58.18Z"/>
  <path class="cls-2" d="m88.83,204.39c0,3.8-.02,7.6.02,11.39,0,.91-.26,1.2-1.2,1.16-1.98-.08-1.98-.02-1.98-2.01,0-7.32-.02-14.63.02-21.95,0-.94-.23-1.21-1.17-1.17-1.64.08-3.28-.02-4.92.04-.77.03-.92-.24-.91-.95.01-2.04-.02-2.04,1.96-2.04,4.64,0,9.28.03,13.91-.03.98-.01,1.2.29,1.17,1.2-.06,1.79-.01,1.79-1.76,1.79-1.32,0-2.64.05-3.96-.02-.91-.05-1.23.19-1.21,1.17.06,3.8.03,7.59.03,11.39Z"/>
  <path class="cls-2" d="m380.08,204.42c0-3.84-.02-7.68.02-11.52,0-.83-.21-1.11-1.06-1.07-1.64.06-3.28-.03-4.92.04-.81.03-.99-.24-.98-1.01.03-1.98,0-1.98,2.02-1.98,4.56,0,9.12.02,13.68-.02.85,0,1.19.13,1.15,1.08-.08,1.9-.01,1.91-1.87,1.91-1.28,0-2.56.05-3.84-.02-.83-.05-1.07.18-1.06,1.03.04,4.84.02,9.68.02,14.52,0,2.88-.03,5.76.02,8.64.01.74-.17.93-.92.93-2.27-.02-2.27.02-2.27-2.2,0-3.44,0-6.88,0-10.32Z"/>
  <path class="cls-2" d="m358.24,248.83c0-3.8-.03-7.59.02-11.39.01-.84-.22-1.1-1.06-1.06-1.64.07-3.28-.02-4.91.04-.8.03-.99-.23-.98-1,.03-1.98,0-1.98,2.01-1.98,4.6,0,9.19.02,13.79-.02.84,0,1.07.2,1.04,1.04-.06,1.94,0,1.94-1.92,1.94-1.28,0-2.56.06-3.83-.02-.86-.05-1.05.25-1.04,1.07.03,7.55,0,15.1.05,22.65,0,1.14-.24,1.63-1.42,1.42-.27-.05-.56-.04-.84,0-.78.12-.91-.25-.91-.95.03-3.92.01-7.83.01-11.75Z"/>
  <path class="cls-2" d="m147.82,203c0-4.32.02-8.63-.02-12.95,0-.78.2-.99.98-.98,2.2.03,2.2,0,2.2,2.14,0,7.2.02,14.39-.02,21.58,0,1.02.29,1.27,1.27,1.23,1.88-.08,3.76-.02,5.64-.02.8,0,1.28.2.81,1.12-.02.04-.04.07-.04.11-.03.55.15,1.34-.14,1.59-.49.41-1.29.14-1.96.14-2.56.02-5.12-.03-7.67.03-.83.02-1.06-.19-1.05-1.04.05-4.32.02-8.63.02-12.95Z"/>
  <path class="cls-2" d="m299.12,247.52c0-4.36.02-8.71-.02-13.07,0-.78.19-1.01.99-1,2.24.03,2.24,0,2.24,2.25,0,8.15-.02,16.3.02,24.46,0,1.06-.22,1.57-1.35,1.37-.27-.05-.56-.04-.84,0-.85.13-1.07-.23-1.06-1.06.04-4.32.02-8.63.02-12.95Z"/>
  <path class="cls-2" d="m94.41,233.97c0,8.84,0,17.67.04,26.51,0,.88-.39,1.07-1.16,1.08-2.1.03-2.1.05-2.1-1.99,0-8.32.02-16.63-.02-24.95,0-.92.21-1.33,1.16-1.15.7.14,1.49-.33,2.11.32-.05.03-.06.09-.02.18Z"/>
  <path class="cls-2" d="m162.58,202.88c0-4.28.02-8.55-.02-12.83,0-.79.22-1,1-.99,2.23.03,2.23,0,2.23,2.25,0,8.15-.02,16.31.02,24.46,0,.95-.25,1.2-1.18,1.17-2.05-.07-2.05-.02-2.05-2.07,0-4,0-7.99,0-11.99Z"/>
  <path class="cls-2" d="m372.16,247.44c0-4.31.02-8.63-.02-12.94,0-.84.2-1.07,1.04-1.05,2.14.05,2.14,0,2.14,2.2,0,8.15-.02,16.3.02,24.45,0,1.14-.29,1.65-1.46,1.46-.27-.04-.56-.04-.84,0-.78.13-.91-.23-.9-.93.03-4.39.02-8.79.02-13.18Z"/>
  <path class="cls-2" d="m397.2,203.01c0,4.32-.02,8.63.02,12.95,0,.78-.19,1-.98.99-2.2-.03-2.2,0-2.2-2.14,0-8.19.02-16.38-.02-24.57,0-.93.21-1.2,1.16-1.17,2.02.08,2.03.02,2.03,2.08v11.87Z"/>
  <path class="cls-1" d="m43.88,244.65c-.19-.08-.51.28-.58-.18.16-.12.24-.45.53-.25.13.09.34.25.06.43Z"/>
  <path class="cls-1" d="m94.41,233.97c-.04-.08-.03-.14.02-.18.21-.05.29.06.22.23-.06.13-.18.07-.24-.05Z"/>
</svg>