<?xml version="1.0" encoding="UTF-8"?>
<svg id="Layer_5" data-name="Layer 5" xmlns="http://www.w3.org/2000/svg" viewBox="0 0 500 500">
  <defs>
    <style>
      .cls-1 {
        fill: #313159;
      }

      .cls-2 {
        fill: none;
        stroke: #fc0053;
        stroke-miterlimit: 10;
        stroke-width: 35.04px;
      }
    </style>
  </defs>
  <g>
    <g id="xIPQCQ">
      <path class="cls-1" d="m333.16,263.63c.58,3.42-.66,4.59-4.1,4.53-9.79-.16-19.6.28-29.37-.12-17.17-.72-31.48,5.59-44.05,16.75-13.2,11.72-23.38,26.05-34.41,39.64-8.99,11.09-18.24,21.9-29.33,31.01-17.26,14.18-36.96,21.39-59.32,21.33-8.06-.02-16.12-.02-24.18-.02-6.16,0-12.32.01-18.48.01-.18.39-.36.79-.53,1.18,6.33,5.45,12.66,10.93,19.01,16.36v4.07c0,8.02-5.98,13.81-12.81,14.61-1.05,0-2.1,0-3.16.01h-.01c-2.25-.26-4.5-1.08-6.59-2.55l-25.24-17.8-23.5-16.57c-3.15-3.15-6.3-6.3-9.44-9.46-2.01-2.01-3.28-3.91-3.82-5.76-.44-1.47-.41-2.92.07-4.38t0-.02c.57-1.74,1.8-3.52,3.67-5.4,2.87-2.89,5.75-5.77,8.64-8.65l.02-.02,24.35-17.17,25.24-17.81c9.54-6.73,22.57.24,22.57,12.08v3.77c-6.33,5.4-12.62,10.86-18.94,16.29.42.52.61.98.81.98,6.04.02,12.09.11,18.13.19,9.76.12,19.52.17,29.25-.27,13.54-.62,24.82-7.41,34.83-16.25,9.32-8.22,17.12-17.82,24.82-27.51,12.62-15.85,24.82-32.1,40.92-44.77,1.35-1.06,2.42-1.93.41-3.51-20.16-15.75-34.15-37.03-50.44-56.26-7.58-8.94-15.61-17.37-25.56-23.77-9.49-6.11-19.79-9.29-31.14-9.2-7.7.06-15.39.06-23.09.04-6.18,0-12.35-.02-18.53-.02-.31,2.2,1.32,2.64,2.24,3.44,5.41,4.72,10.83,9.42,16.29,14.08v3.81c0,11.84-13.03,18.81-22.57,12.08l-25.24-17.81-24.26-17.11c-3.03-3.03-6.05-6.06-9.07-9.1-1.65-1.67-2.76-3.29-3.33-4.89-.58-1.62-.6-3.23-.06-4.85.55-1.65,1.68-3.32,3.39-5.04,3.28-3.31,6.57-6.61,9.87-9.9l23.46-16.54,25.24-17.8c2.16-1.52,4.49-2.35,6.82-2.57h2.71c6.92.7,13.04,6.53,13.04,14.64v4.04c-6.33,5.45-12.67,10.92-19.08,16.46,1.89,1.76,3.85.98,5.59,1,4.49.05,8.99.04,13.49.02,10.97-.04,21.94-.13,32.87.51,22.99,1.33,41.92,12.01,58.3,27.67,14.97,14.31,26.75,31.33,40.03,47.08,7.32,8.69,14.97,17.08,24.48,23.43,10.08,6.73,21.15,10.41,33.44,10.2,10.48-.18,20.96.09,31.43-.1,3.51-.06,4.93.65,4.24,4.52-1.6,9.03-1.54,18.12-.03,27.17Z"/>
    </g>
    <circle class="cls-2" cx="423.99" cy="251.19" r="52.53"/>
  </g>
  <path class="cls-1" d="m108.4,101.63v78.89c0,11.84-13.03,18.81-22.57,12.08l-25.24-17.81-24.26-17.11-6.43-4.53c-3.35-2.36-5.34-5.81-5.97-9.46-.29-1.6-.31-3.25-.06-4.85.56-3.79,2.57-7.4,6.03-9.84l7.23-5.1,23.46-16.54,25.24-17.8c2.16-1.52,4.49-2.35,6.82-2.57.9-.09,1.8-.09,2.68,0h.03c6.92.7,13.04,6.53,13.04,14.64Z"/>
  <path class="cls-1" d="m108.4,319.48v78.89c0,8.02-5.98,13.81-12.81,14.61-1.04.12-2.1.13-3.16.01h-.01c-2.25-.26-4.5-1.08-6.59-2.55l-25.24-17.8-23.5-16.57-7.19-5.07c-3.56-2.51-5.58-6.24-6.07-10.15-.2-1.45-.17-2.93.07-4.38t0-.02c.6-3.7,2.6-7.21,5.99-9.6l6.32-4.45.02-.02,24.35-17.17,25.24-17.81c9.54-6.73,22.57.24,22.57,12.08Z"/>
</svg>