<?xml version="1.0" encoding="UTF-8"?>
<svg id="Layer_5" data-name="Layer 5" xmlns="http://www.w3.org/2000/svg" viewBox="0 0 500 500">
  <defs>
    <style>
      .cls-1 {
        fill: #fc0053;
      }

      .cls-2 {
        fill: #313159;
      }
    </style>
  </defs>
  <path class="cls-1" d="m150.9,419.88h42.47v23.49c0,12.23,14.78,18.35,23.43,9.71l51.81-51.81c5.36-5.36,5.36-14.05,0-19.41l-51.81-51.81c-8.65-8.65-23.43-2.52-23.43,9.71v23.49h-41.58c-39.03,0-71.39-31.23-71.67-70.26-.29-39.34,31.51-71.31,70.78-71.31h55.38c54.63,0,99.92-43.69,100.34-98.32.42-55.08-44.12-99.88-99.1-99.88h-23.48c-10.49,0-19,8.5-19,19v18.64c0,10.49,8.5,19,19,19h22.77c23.28,0,42.77,18.44,43.17,41.72.41,23.79-18.77,43.22-42.46,43.22h-56.63c-45.51,0-87.6,24.28-110.35,63.71-22.76,39.43-22.76,87.99,0,127.41,22.76,39.43,64.84,63.71,110.35,63.71Z"/>
  <path class="cls-2" d="m391.57,448.2c22.78-33.35,84.94-84.94,84.94-141.57,0-46.92-38.02-84.94-84.94-84.94s-84.94,38.02-84.94,84.94c0,56.63,62.16,108.22,84.94,141.57Zm0-169.88c11.45,0,21.79,6.88,26.16,17.48,4.4,10.59,1.96,22.76-6.14,30.86-8.1,8.1-20.27,10.53-30.86,6.14-10.59-4.37-17.48-14.71-17.48-26.16,0-15.65,12.66-28.31,28.31-28.31h0Z"/>
</svg>