<?xml version="1.0" encoding="UTF-8"?>
<svg id="layer" xmlns="http://www.w3.org/2000/svg" viewBox="0 0 400.83 170.1">
  <defs>
    <style>
      .cls-1 {
        fill: #fff;
      }

      .cls-2, .cls-3 {
        fill: #231f20;
      }

      .cls-3 {
        fill-rule: evenodd;
      }

      .cls-4 {
        fill: none;
        stroke: #231f20;
        stroke-miterlimit: 3.86;
        stroke-width: 1.28px;
      }
    </style>
  </defs>
  <path class="cls-3" d="m86.8,119.77h-6.17l-.73,1.7c-.24.57-.36,1.04-.36,1.4,0,.49.2.85.59,1.08.23.14.8.24,1.71.31v.48h-5.81v-.48c.63-.09,1.14-.35,1.55-.77.4-.43.9-1.31,1.5-2.64l6.25-13.95h.24l6.3,14.33c.6,1.36,1.1,2.21,1.48,2.57.29.27.7.42,1.24.46v.48h-8.46v-.48h.35c.68,0,1.16-.09,1.43-.28.19-.14.28-.33.28-.59,0-.15-.03-.31-.08-.48-.02-.08-.15-.4-.39-.97l-.93-2.18h0Zm-.44-.95l-2.6-6.02-2.68,6.02h5.29Z"/>
  <path class="cls-2" d="m105.3,112.69v9.44c0,.92.09,1.5.26,1.73.17.22.52.37,1.04.43v.46h-4.91v-1.61c-.58.69-1.15,1.19-1.73,1.51-.58.31-1.22.46-1.93.46s-1.28-.21-1.82-.62c-.52-.42-.88-.91-1.06-1.47-.18-.56-.27-1.53-.27-2.93v-4.78c0-.91-.09-1.48-.26-1.7-.16-.22-.51-.37-1.04-.44v-.48h4.91v8.24c0,.86.04,1.41.12,1.66.09.25.21.44.39.57.18.13.39.19.62.19.31,0,.59-.08.84-.24.34-.22.76-.67,1.24-1.35v-6.45c0-.91-.09-1.48-.26-1.7-.16-.22-.51-.37-1.04-.44v-.48h4.91Z"/>
  <path class="cls-2" d="m115.03,112.36l.19,4.11h-.44c-.52-1.22-1.07-2.05-1.64-2.5-.56-.45-1.12-.67-1.68-.67-.35,0-.65.12-.9.36-.25.23-.37.5-.37.81,0,.23.09.46.26.67.27.35,1.04.96,2.31,1.82,1.26.85,2.09,1.58,2.49,2.18.4.59.61,1.26.61,2,0,.67-.17,1.33-.5,1.97-.34.64-.81,1.14-1.42,1.48-.61.34-1.29.52-2.02.52-.58,0-1.35-.18-2.31-.54-.26-.09-.43-.14-.53-.14-.28,0-.52.22-.71.64h-.43l-.21-4.33h.44c.39,1.13.92,1.99,1.59,2.55.68.57,1.32.85,1.92.85.41,0,.75-.12,1.01-.37.27-.26.4-.57.4-.93,0-.41-.13-.77-.39-1.07-.26-.3-.83-.76-1.73-1.37-1.31-.91-2.17-1.61-2.55-2.09-.57-.7-.85-1.48-.85-2.33,0-.93.32-1.77.95-2.51.64-.76,1.57-1.13,2.78-1.13.65,0,1.28.16,1.89.48.23.13.42.19.57.19.15,0,.28-.03.37-.09.09-.07.24-.25.45-.55h.44Z"/>
  <path class="cls-2" d="m121.41,108.29v4.41h2.86v1.28h-2.86v7.44c0,.7.03,1.15.09,1.35.07.2.18.36.35.49.16.12.31.18.45.18.56,0,1.09-.43,1.59-1.28l.39.28c-.7,1.65-1.83,2.47-3.39,2.47-.76,0-1.41-.21-1.95-.63-.52-.43-.86-.91-1.01-1.43-.09-.29-.13-1.08-.13-2.37v-6.51h-1.57v-.45c1.08-.76,2-1.57,2.76-2.41.76-.84,1.43-1.78,2-2.82h.43Z"/>
  <path class="cls-2" d="m130.16,112.69v2.73c.8-1.25,1.5-2.07,2.1-2.47.6-.41,1.18-.62,1.74-.62.48,0,.86.15,1.15.45.29.29.44.71.44,1.25,0,.58-.14,1.02-.43,1.34-.27.32-.61.48-1.01.48-.46,0-.85-.15-1.19-.44-.34-.29-.53-.46-.59-.49-.09-.05-.18-.08-.3-.08-.25,0-.49.09-.71.28-.35.29-.62.71-.8,1.25-.28.83-.41,1.75-.41,2.76v3.49c.01.49.04.8.1.94.1.23.25.4.45.52.21.1.55.17,1.03.19v.46h-6.51v-.46c.52-.04.88-.18,1.06-.43.19-.25.28-.9.28-1.95v-6.66c0-.69-.03-1.13-.1-1.31-.09-.24-.21-.42-.37-.53-.16-.11-.45-.19-.86-.23v-.48h4.92Z"/>
  <path class="cls-3" d="m142.21,122.97c-1.47,1.3-2.79,1.95-3.96,1.95-.69,0-1.26-.22-1.71-.67-.46-.46-.68-1.02-.68-1.7,0-.92.4-1.74,1.19-2.48.79-.74,2.51-1.72,5.17-2.94v-1.21c0-.91-.05-1.48-.15-1.71-.09-.24-.28-.45-.55-.62-.28-.18-.58-.27-.93-.27-.56,0-1.02.12-1.38.37-.22.15-.33.33-.33.54,0,.18.12.4.36.67.33.37.49.73.49,1.07,0,.42-.16.78-.48,1.08-.31.29-.72.44-1.22.44-.54,0-1-.16-1.37-.49-.36-.33-.54-.71-.54-1.15,0-.62.24-1.21.73-1.77.49-.57,1.17-1,2.05-1.3.88-.3,1.79-.45,2.73-.45,1.14,0,2.05.24,2.71.73.67.48,1.1,1.01,1.3,1.57.12.36.18,1.19.18,2.49v4.68c0,.55.02.9.06,1.04.04.14.11.24.19.31.09.07.18.1.3.1.22,0,.45-.16.68-.48l.39.31c-.43.64-.88,1.1-1.34,1.39-.46.28-.98.43-1.56.43-.69,0-1.22-.16-1.61-.48-.39-.33-.62-.82-.71-1.47h0Zm0-.94v-4.03c-1.04.61-1.81,1.26-2.32,1.96-.33.46-.5.93-.5,1.41,0,.4.14.74.43,1.04.21.23.52.35.9.35.43,0,.93-.24,1.5-.72h0Z"/>
  <path class="cls-2" d="m152.68,107.27v14.98c0,.85.1,1.4.3,1.64.2.23.58.37,1.16.4v.46h-6.51v-.46c.53-.02.93-.17,1.19-.46.17-.2.26-.72.26-1.57v-12.48c0-.84-.1-1.38-.3-1.61-.2-.24-.58-.38-1.15-.41v-.48h5.05Z"/>
  <path class="cls-3" d="m158.2,106.86c.56,0,1.03.2,1.42.59.39.39.58.86.58,1.41s-.2,1.02-.59,1.41c-.39.39-.86.58-1.41.58s-1.02-.19-1.4-.58c-.39-.39-.58-.85-.58-1.41s.19-1.02.58-1.41c.39-.4.85-.59,1.4-.59h0Zm1.8,5.84v9.55c0,.85.1,1.4.3,1.64.2.23.58.37,1.16.4v.46h-6.51v-.46c.53-.02.93-.17,1.19-.46.17-.2.26-.72.26-1.57v-7.04c0-.85-.1-1.39-.3-1.62-.2-.24-.58-.38-1.15-.41v-.48h5.05Z"/>
  <path class="cls-3" d="m168.5,122.97c-1.47,1.3-2.79,1.95-3.96,1.95-.69,0-1.26-.22-1.71-.67-.46-.46-.68-1.02-.68-1.7,0-.92.4-1.74,1.19-2.48.79-.74,2.51-1.72,5.17-2.94v-1.21c0-.91-.05-1.48-.15-1.71-.09-.24-.28-.45-.55-.62-.28-.18-.58-.27-.93-.27-.56,0-1.02.12-1.38.37-.22.15-.34.33-.34.54,0,.18.12.4.36.67.33.37.49.73.49,1.07,0,.42-.16.78-.48,1.08-.31.29-.72.44-1.22.44-.54,0-1-.16-1.37-.49-.36-.33-.54-.71-.54-1.15,0-.62.24-1.21.73-1.77.49-.57,1.17-1,2.05-1.3.88-.3,1.79-.45,2.73-.45,1.14,0,2.04.24,2.71.73.67.48,1.1,1.01,1.3,1.57.12.36.18,1.19.18,2.49v4.68c0,.55.02.9.06,1.04.04.14.11.24.19.31.09.07.18.1.3.1.22,0,.45-.16.68-.48l.39.31c-.43.64-.88,1.1-1.34,1.39-.46.28-.98.43-1.56.43-.69,0-1.22-.16-1.61-.48-.39-.33-.62-.82-.71-1.47h0Zm0-.94v-4.03c-1.04.61-1.81,1.26-2.32,1.96-.33.46-.5.93-.5,1.41,0,.4.14.74.43,1.04.21.23.52.35.9.35.43,0,.93-.24,1.5-.72h0Z"/>
  <path class="cls-2" d="m178.91,112.69v1.56c.62-.67,1.21-1.16,1.78-1.46.57-.31,1.18-.46,1.83-.46.78,0,1.43.22,1.95.66.52.43.86.97,1.03,1.61.14.49.21,1.43.21,2.82v4.69c0,.93.08,1.51.24,1.74.17.22.52.37,1.06.43v.46h-6.1v-.46c.46-.06.78-.25.98-.57.14-.21.21-.75.21-1.6v-5.36c0-.99-.04-1.61-.12-1.87-.08-.26-.21-.46-.4-.59-.18-.15-.38-.22-.61-.22-.74,0-1.43.53-2.06,1.59v6.46c0,.9.08,1.47.25,1.71.17.24.49.39.94.45v.46h-6.1v-.46c.51-.05.87-.21,1.08-.49.15-.19.22-.75.22-1.68v-6.81c0-.91-.09-1.48-.26-1.7-.16-.22-.51-.37-1.04-.44v-.48h4.91Z"/>
  <path class="cls-2" d="m210.75,106.87v6.16h-.48c-.58-1.68-1.44-2.96-2.59-3.84-1.15-.88-2.41-1.31-3.78-1.31s-2.39.37-3.26,1.11c-.87.73-1.48,1.75-1.84,3.07-.36,1.31-.54,2.66-.54,4.05,0,1.68.2,3.15.59,4.41s1.03,2.19,1.91,2.78c.88.59,1.93.89,3.15.89.42,0,.85-.04,1.29-.13.45-.09.9-.23,1.37-.4v-3.64c0-.69-.05-1.13-.14-1.33-.09-.21-.29-.39-.59-.55-.29-.16-.65-.24-1.07-.24h-.45v-.48h8.49v.48c-.64.04-1.1.13-1.35.27-.25.13-.44.35-.58.66-.08.16-.12.56-.12,1.2v3.64c-1.12.5-2.28.87-3.49,1.12-1.2.26-2.45.39-3.75.39-1.66,0-3.04-.22-4.14-.67-1.09-.46-2.06-1.05-2.9-1.78-.83-.74-1.49-1.57-1.96-2.49-.6-1.19-.9-2.51-.9-3.98,0-2.63.92-4.85,2.77-6.66,1.85-1.81,4.17-2.72,6.97-2.72.87,0,1.65.07,2.35.21.38.07.99.27,1.83.59.85.32,1.35.48,1.51.48.24,0,.46-.09.67-.26.21-.18.4-.52.57-1.01h.48Z"/>
  <path class="cls-3" d="m219.11,112.33c1.05,0,2.02.27,2.93.81.9.54,1.59,1.31,2.05,2.31.47,1,.71,2.09.71,3.27,0,1.71-.43,3.14-1.3,4.29-1.05,1.39-2.5,2.09-4.34,2.09s-3.21-.64-4.19-1.91c-.98-1.27-1.47-2.75-1.47-4.42s.5-3.23,1.5-4.51c1.01-1.29,2.38-1.93,4.12-1.93h0Zm.05.92c-.44,0-.82.17-1.13.5-.31.33-.52.98-.62,1.96-.09.97-.14,2.32-.14,4.06,0,.92.06,1.78.18,2.58.09.61.3,1.07.61,1.39.31.32.66.48,1.06.48s.71-.11.97-.32c.34-.29.56-.7.67-1.22.17-.82.26-2.47.26-4.95,0-1.46-.08-2.46-.24-3-.16-.55-.4-.95-.72-1.2-.22-.18-.52-.27-.88-.27h0Z"/>
  <path class="cls-2" d="m230.48,125.11l-4.06-9.35c-.49-1.13-.87-1.84-1.15-2.14-.2-.22-.49-.37-.88-.45v-.48h6.41v.48c-.4,0-.68.07-.82.22-.21.19-.31.41-.31.67,0,.32.19.92.57,1.79l1.99,4.52,1.59-3.91c.46-1.12.68-1.91.68-2.37,0-.27-.1-.48-.3-.64-.19-.17-.53-.27-1.02-.28v-.48h3.94v.48c-.38.05-.69.19-.93.43-.24.23-.6.92-1.08,2.05l-4.02,9.46h-.61Z"/>
  <path class="cls-3" d="m246.61,118.29h-6.61c.08,1.6.5,2.86,1.28,3.79.59.71,1.31,1.07,2.14,1.07.52,0,.98-.14,1.41-.43.42-.29.87-.81,1.35-1.56l.44.28c-.65,1.33-1.38,2.28-2.17,2.84-.79.55-1.71.82-2.75.82-1.79,0-3.14-.69-4.06-2.06-.74-1.11-1.11-2.48-1.11-4.12,0-2.01.54-3.61,1.62-4.8,1.09-1.19,2.37-1.79,3.83-1.79,1.22,0,2.28.5,3.17,1.51.9,1,1.39,2.48,1.46,4.45h0Zm-3.17-.86c0-1.38-.08-2.33-.23-2.85-.15-.52-.38-.91-.7-1.17-.18-.15-.42-.23-.72-.23-.45,0-.81.22-1.1.66-.51.77-.76,1.81-.76,3.15v.45h3.51Z"/>
  <path class="cls-2" d="m252.32,112.69v2.73c.8-1.25,1.5-2.07,2.1-2.47.6-.41,1.18-.62,1.74-.62.48,0,.86.15,1.15.45.29.29.44.71.44,1.25,0,.58-.14,1.02-.43,1.34-.28.32-.61.48-1.01.48-.46,0-.85-.15-1.19-.44-.34-.29-.53-.46-.59-.49-.09-.05-.18-.08-.3-.08-.25,0-.49.09-.71.28-.35.29-.62.71-.8,1.25-.27.83-.41,1.75-.41,2.76v3.49c.01.49.04.8.1.94.1.23.25.4.45.52.21.1.55.17,1.03.19v.46h-6.51v-.46c.52-.04.88-.18,1.06-.43.19-.25.28-.9.28-1.95v-6.66c0-.69-.03-1.13-.1-1.31-.09-.24-.21-.42-.37-.53-.16-.11-.45-.19-.86-.23v-.48h4.92Z"/>
  <path class="cls-2" d="m263.44,112.69v1.56c.62-.67,1.21-1.16,1.78-1.46.57-.31,1.18-.46,1.83-.46.78,0,1.43.22,1.95.66.52.43.86.97,1.03,1.61.14.49.21,1.43.21,2.82v4.69c0,.93.08,1.51.25,1.74.17.22.52.37,1.06.43v.46h-6.1v-.46c.46-.06.78-.25.98-.57.14-.21.21-.75.21-1.6v-5.36c0-.99-.04-1.61-.12-1.87-.08-.26-.21-.46-.4-.59-.18-.15-.38-.22-.61-.22-.74,0-1.43.53-2.06,1.59v6.46c0,.9.08,1.47.24,1.71.17.24.49.39.94.45v.46h-6.1v-.46c.51-.05.87-.21,1.08-.49.15-.19.22-.75.22-1.68v-6.81c0-.91-.09-1.48-.26-1.7-.16-.22-.51-.37-1.04-.44v-.48h4.91Z"/>
  <path class="cls-2" d="m277.4,112.69v1.59c.66-.72,1.27-1.22,1.83-1.51.57-.29,1.19-.44,1.86-.44.77,0,1.42.18,1.95.54.52.36.93.91,1.21,1.65.69-.77,1.34-1.33,1.97-1.68.64-.34,1.3-.52,1.99-.52.83,0,1.49.19,1.99.58.5.38.84.86,1.03,1.46.2.58.3,1.52.3,2.81v4.94c0,.93.08,1.5.24,1.73.17.22.52.37,1.06.44v.46h-6.23v-.46c.49-.04.85-.23,1.08-.57.15-.23.23-.76.23-1.6v-5.18c0-1.07-.04-1.76-.13-2.05-.09-.29-.22-.51-.41-.64-.18-.15-.4-.22-.64-.22-.37,0-.74.14-1.12.41-.38.27-.76.67-1.15,1.21v6.47c0,.87.07,1.41.22,1.64.2.32.58.49,1.13.53v.46h-6.24v-.46c.34-.02.6-.1.79-.24.2-.15.33-.34.39-.54.07-.21.1-.67.1-1.38v-5.18c0-1.09-.04-1.77-.13-2.05-.09-.27-.23-.49-.44-.64-.2-.15-.41-.23-.64-.23-.34,0-.66.09-.94.27-.4.27-.83.72-1.29,1.37v6.47c0,.85.08,1.41.24,1.69.17.27.52.43,1.06.48v.46h-6.21v-.46c.51-.05.87-.21,1.08-.49.15-.19.22-.75.22-1.68v-6.81c0-.91-.09-1.48-.26-1.7-.16-.22-.51-.37-1.04-.44v-.48h4.91Z"/>
  <path class="cls-3" d="m303.55,118.29h-6.61c.08,1.6.5,2.86,1.28,3.79.59.71,1.31,1.07,2.14,1.07.52,0,.98-.14,1.4-.43.42-.29.87-.81,1.35-1.56l.44.28c-.65,1.33-1.38,2.28-2.17,2.84-.79.55-1.71.82-2.75.82-1.79,0-3.14-.69-4.06-2.06-.74-1.11-1.11-2.48-1.11-4.12,0-2.01.54-3.61,1.62-4.8,1.09-1.19,2.37-1.79,3.83-1.79,1.22,0,2.28.5,3.17,1.51.9,1,1.39,2.48,1.46,4.45h0Zm-3.17-.86c0-1.38-.08-2.33-.23-2.85-.15-.52-.38-.91-.7-1.17-.18-.15-.42-.23-.72-.23-.45,0-.81.22-1.1.66-.51.77-.76,1.81-.76,3.15v.45h3.51Z"/>
  <path class="cls-2" d="m308.92,112.69v1.56c.62-.67,1.21-1.16,1.78-1.46.57-.31,1.18-.46,1.83-.46.78,0,1.43.22,1.95.66.52.43.86.97,1.03,1.61.14.49.21,1.43.21,2.82v4.69c0,.93.08,1.51.24,1.74.17.22.52.37,1.06.43v.46h-6.1v-.46c.45-.06.78-.25.98-.57.14-.21.21-.75.21-1.6v-5.36c0-.99-.04-1.61-.12-1.87-.08-.26-.21-.46-.4-.59-.18-.15-.38-.22-.61-.22-.74,0-1.43.53-2.06,1.59v6.46c0,.9.08,1.47.25,1.71.17.24.49.39.94.45v.46h-6.1v-.46c.51-.05.87-.21,1.08-.49.15-.19.22-.75.22-1.68v-6.81c0-.91-.09-1.48-.26-1.7-.16-.22-.51-.37-1.04-.44v-.48h4.91Z"/>
  <path class="cls-2" d="m322.15,108.29v4.41h2.86v1.28h-2.86v7.44c0,.7.03,1.15.09,1.35.07.2.18.36.35.49.16.12.31.18.45.18.56,0,1.09-.43,1.59-1.28l.39.28c-.7,1.65-1.83,2.47-3.39,2.47-.77,0-1.41-.21-1.95-.63-.52-.43-.86-.91-1.01-1.43-.09-.29-.13-1.08-.13-2.37v-6.51h-1.57v-.45c1.08-.76,2-1.57,2.76-2.41.76-.84,1.43-1.78,2-2.82h.43Z"/>
  <path class="cls-2" d="m179.59,75.74c-.08.14-.19.26-.33.33"/>
  <path class="cls-2" d="m182.61,52.14c.35,0,.63-.28.63-.64s-.28-.64-.63-.64-.63.29-.63.64.28.64.63.64h0Z"/>
  <path class="cls-2" d="m211.86,25.48h0s-22.74-.01-22.74-.01h0s0,.01,0,.01l.02,18.37c0,1.77.75,3.32,1.79,3.8l8.75,5.22c.19.22.48.36.8.36.28,0,.52-.11.71-.28l8.88-5.31c1.04-.48,1.79-2.03,1.79-3.8l.02-18.37h0Zm-15.18,5.32h-1.97v-4.7h1.97v4.7h0Zm-1.43,1.64l.28-.29-.18-.32.37.04.22-.39.22.38.37-.03-.17.32.28.29-.36.07v.4l-.34-.25-.34.25v-.4l-.36-.07h0Zm-5.49,5.85v-4.46h2.39v4.46h-2.39Zm.4-6.46l.37.04.22-.39.22.38.37-.03-.17.32.28.29-.36.07v.4l-.34-.25-.34.25v-.4l-.36-.07.28-.29-.17-.32h0Zm2.7,4.54l.37.04.22-.39.22.38.37-.03-.17.32.28.29-.36.07v.4l-.34-.25-.34.25v-.4l-.36-.07.28-.29-.17-.32h0Zm1.59-3.59c-.02-.12-.17-.15-.24-.15-.21,0-.3.35-.48.36-.13,0-.23.02-.23-.14,0-.12.27-.21.37-.31-1.47,0-1.5.67-1.73.67-.39,0,.32-.71.53-.92-.3-.05-.47-.42-.8-.6.15-.22.24-.13.43.03,0-.15.12-.34.46-.34.66,0,.47.64.58.64s0-.64.44-.64c.65,0,1.47,1.68.73,1.68-.32,0-.06-.24-.07-.28h0Zm-1.69-4.92l.28-.29-.17-.32.37.04.22-.39.22.38.37-.03-.17.32.28.29-.36.07v.4l-.34-.25-.34.25v-.4l-.36-.07h0Zm-.6-1.77v4.7h-2.39v-4.7h2.39Zm4.53,24.27l-5.44-3.25c-.91-.62-1.36-1.71-1.48-3.03v-5.17h6.92v11.45h0Zm-1.97-12.07v-4.46h1.97v4.46h-1.97Zm8.98,12.44l-2.51,1.5h-.04c-.18.14-.41.23-.66.23s-.49-.09-.67-.24l-2.5-1.49v-11.82h6.39v11.82h0Zm0-12.44h-6.39v-12.19h6.39v12.19h0Zm7.54,5.79c-.12,1.32-.57,2.41-1.47,3.03l-5.44,3.25v-11.45h6.92v5.17h0Zm0-5.79h-6.92v-12.19h6.92v12.19h0Z"/>
  <path class="cls-2" d="m196.31,43.11c-.03-.07-.87.28-.63.25.02-.25.49-.75.69-.93-.04-.29-.41-.03-.8.18,1.29-1.86.46-1.09-.26-.96,1.16-1.25.85-1.22,0-.84.67-.53.81-1.16.71-1.35-.63.84-1.21.71-1.21,1.48,0,.51-.18,1.35-.45,1.63-.34.37-.08-1.37-.97-1.37-.28,0-.95-.02-1.16.32.18,0,.45.46.45.64s.17.69-.14.69-.66-.64-.66-.94-.02-.23-.02-.67c0-.73-1.2-1.77-1.68-1.77,0,.51.67.63.67,1.29-.28,0-.69-.53-.69-.2s.43.39.43.67-.49-.1-.49.2c0,.27.27.22.33.49-.2-.06-.37-.03-.41.07-.03.09.06.2.21.29-.07.06-.13.22-.13.65,0,1.45.91,2.12,1.58,2.12.47,0,.4-.33.46-.49.02.25.25-.12.25.31s-.46.25-.46.64c0,.52.73-.02.73.56,0,.69-.09.68-.09.95,0,.18.76-.25.71-.33.18.07.18.61.52.59.22,0,.27-.55.44-.6-.1.03.69.52.69.27,0-.68-.28-.39-.28-.85,0-.43.94-.35.79-.56-.12-.18-.21-.07-.31-.39.02.06-.73-1.07.16-.49.94.61,1.04-1.43.99-1.53h0Z"/>
  <path class="cls-2" d="m220.57,47.92c.41,0,.75-.3.75-.66s-.33-.66-.75-.66-.75.29-.75.66.34.66.75.66h0Z"/>
  <path class="cls-2" d="m217.55,49.72c.41,0,.75-.3.75-.66s-.33-.66-.75-.66-.75.3-.75.66.34.66.75.66h0Z"/>
  <path class="cls-2" d="m181.6,53.86c.41,0,.75-.3.75-.66s-.33-.66-.75-.66-.75.3-.75.66.33.66.75.66h0Z"/>
  <path class="cls-2" d="m183.93,54.06c.41,0,.75-.3.75-.66s-.33-.66-.75-.66-.75.3-.75.66.33.66.75.66h0Z"/>
  <path class="cls-2" d="m248.64,22.69c1.11,1.32,1.35,3.44.55,4.95-.44-.04-.36-.6-.44-.92-.79-1.48-1.43-3.36-.71-5.03.52.08.32.72.6,1h0Z"/>
  <path class="cls-2" d="m153.68,24.49c-.24.96-.24,2.28,0,3.16-.2.2-.16-.2-.36-.16-1.55-1.12-.83-3.32-1.23-4.87.08-.12.28-.16.4-.08.71.48,1.03,1.16,1.19,1.96h0Z"/>
  <path class="cls-2" d="m252.05,24.61c.24.44-.2.88-.52,1.08-.36.08-.75-.12-.99-.44-.12-.44.12-.84.48-1.04.4-.04.79.04,1.03.4h0Z"/>
  <path class="cls-2" d="m151.26,26.37c-.08.36-.2.72-.51.88-.24,0-.6,0-.75-.2-.24-.2-.28-.56-.16-.84.16-.28.48-.32.76-.36.28.12.55.2.67.52h0Z"/>
  <path class="cls-2" d="m253.6,27.05c.08.24.08.4,0,.64-.28.36-.67.52-1.07.36-.28-.16-.36-.44-.44-.68.08-.32.4-.6.67-.72.36,0,.59.2.83.4h0Z"/>
  <path class="cls-2" d="m251.34,27.09c.32.16.08.56.04.8-.2.2-.48.52-.83.4-.2-.2-.43-.2-.51-.48,0-.4.16-.8.55-.92.32-.08.52.08.75.2h0Z"/>
  <path class="cls-2" d="m248.44,27.69c0,.44.04,1-.48,1.08-.48.16-.79-.24-.91-.56-.04-.4.2-.8.59-.96.32,0,.6.2.79.44h0Z"/>
  <path class="cls-2" d="m155.59,27.89c.12.4-.28.64-.51.84-.28.08-.64-.16-.79-.44-.28-.28.08-.52.16-.76.4-.36.99-.08,1.15.36h0Z"/>
  <path class="cls-2" d="m153.21,28.01c0,.32-.16.64-.43.76-.32.12-.63-.12-.79-.36-.2-.4.04-.76.36-.92.44-.16.71.24.87.52h0Z"/>
  <path class="cls-2" d="m238.84,28.17c.4.84.71,1.84.79,2.88-.16.76.12,1.76-.44,2.28-.55-.2-.59-.88-.95-1.24-.71-1.4-.08-3.04.16-4.4.32-.12.32.28.44.48h0Z"/>
  <path class="cls-2" d="m151.34,28.65c.12.48-.24.72-.52,1-.48.12-.79-.24-.99-.56-.04-.4.2-.8.52-.96.4-.04.79.16.99.52h0Z"/>
  <path class="cls-2" d="m245.11,29.8c.52,1.16.55,2.56.2,3.84l-.24.2c-.56-1.08-1.35-2.08-1.63-3.24,0-.84.16-1.6.48-2.28.28-.2.44.04.55.28.04.44.24.96.63,1.2h0Z"/>
  <path class="cls-2" d="m250.11,29.09c-.04.4-.2.84-.6.96-.4.08-.79-.04-.91-.48-.12-.4.12-.76.43-.96.44-.24.87.16,1.07.48h0Z"/>
  <path class="cls-2" d="m153.25,30.32c0,.32-.28.68-.6.76-.32.24-.55-.16-.83-.28-.12-.32-.2-.6,0-.92.12-.24.4-.24.64-.32.36.2.71.36.79.76h0Z"/>
  <path class="cls-2" d="m154.99,30.13c.16.4-.28.6-.44.8-.48.16-.71-.2-.91-.48-.08-.4.16-.64.44-.88.48-.12.71.2.91.56h0Z"/>
  <path class="cls-2" d="m251.22,30c-.04.52-.83,1.04-.91,1.56-.44,1.08-1.39,1.88-2.46,2.24-.24.2-.56.48-.91.52-.08-.8.64-1.52,1.07-2.24.83-1.08,1.98-1.76,3.21-2.08h0Z"/>
  <path class="cls-2" d="m152.45,31.68c.59.68.91,1.28,1.63,1.88.04.16-.08.4-.28.4-1.94-.12-3.25-2.12-4.2-3.52.12-.44.63-.08.91-.12.67.52,1.43.68,1.94,1.36h0Z"/>
  <path class="cls-2" d="m251.77,32.24c-.08,1.72-.91,3.48-2.46,4.31-.44.16-.91.6-1.35.32.83-1.72,2.1-3.12,3.49-4.63h.32Z"/>
  <path class="cls-2" d="m244.16,33.4c.12.6-.2.96-.67,1.16-.44.04-.71-.32-.91-.64-.04-.4.2-.76.56-.88.12-.12.32-.12.48-.12.24.08.36.28.56.48h0Z"/>
  <path class="cls-2" d="m150.27,33.76c.75.52,1.43,1.24,2.14,1.88-.51.36-1.15.04-1.75.04-1.35-.48-2.26-1.64-3.65-2.04.04-.44.55-.28.83-.4.87-.08,1.59.32,2.42.52h0Z"/>
  <path class="cls-2" d="m192.75,21.94c-2.22-.88-3.69,1.44-5.95,1.16-.28.16-.2.44-.36.64-.12.12-.32.04-.44-.04-.12-.96-.43-1.84-.55-2.76-.24-.4-.12-.96-.32-1.36-1.27-3.48,3.09-.84,3.97-2.88.75-1.76-1.47-1.96-2.14-3.2v-.52c-.64-.64-1.31-.84-1.71-1.68.28-1,.4-2.08.12-3.08-.04-.24-.2-.56-.55-.44-.75,1.04-1.31,1.88-2.02,2.88-.75-.56-1.47-1.28-2.34-1.76-.59-.08-1.15-.68-1.82-.44-.12.24,0,.44.12.6.04,1.56.83,2.8,1.94,3.92l.12.6c-.71,1.64-.52,3.51-.71,5.27-1.78,4.55-4.68,8.95-8.61,12.1-2.26,2.56-4.96,5.03-5.32,8.55-.12.56.08,1.24-.36,1.64-1.31-.48-2.62-1.12-3.69-1.96-1.82-1.28-4.44-1.12-5.63-3.44-.48-.92.12-1.84.55-2.52,1.35-1.28,1.15-3.56.44-5.11-.16-.04-.2.16-.32.2-.12,2.36-1.98,4-1.27,6.59.16.76.56,1.24.75,1.96-.28-.08-.67-.08-.91-.2-.87-.12-1.75-.48-2.66-.36-1.82.84-4.32-.2-5.79,1.48-.24.04-.55.08-.48.44.87,0,1.7.24,2.58.2,1.39.24,2.3-.92,3.25-1.44h.24c.4-.4,1.07-.16,1.59-.24,2.5.28,4.44,1.48,6.5,2.72v.16c-.79.36-1.71.6-2.5,1.04-.91.68-1.94,1.56-2.22,2.68-.63,1,.2,1.88.6,2.72.04.4.08.88.44,1.04,1.27-1.36.08-3.04.28-4.6.32-1.2,1.43-1.76,2.58-2.08,2.26-.96,3.89.88,5.71,1.92-.04,1.84.2,3.6-.2,5.39-.56.2-1.27.32-1.87.28-3.13.24-5.59,1.96-8.41,2.92-1.27.44-2.78.4-4.05.88.99.28,2.02-.08,3.05-.12,3.89-.56,6.86-3.56,11.07-3.04l.08.12c-.48,1-1.11,1.84-1.86,2.6-.12-.44-.16-.8-.56-1.04-.32-.16-.67,0-.91.32-.12.2-.12.44,0,.6.2.36.52.44.87.56-.08.36-.52.52-.75.84-1.11,1.88-3.37,1.12-4.68,2.44-.2.28-.91.44-.6.88,1.51.16,2.98-.24,4.09-1.04,1.47-1.64,3.01-3.19,4.48-4.75.24,1.28-.12,2.6-.87,3.64-.36-.2-.64-.48-1.07-.6-.4.08-.67.48-.71.8.16.28.32.6.59.8-1.35.96-3.05,1.04-4.6,1.48-2.89.36-5.71.6-8.65.64-1.39-.08-2.98.4-4.28,0-1.51.28-3.13-.2-4.36.64-.16.2.04.4.04.6,1.83,1.2,4.32.24,6.39.6h15.63c1.15-.04,2.3-.08,3.21-.6,2.02-1.16,3.13-3.24,4.17-5.27.4-.72.67-1.56.83-2.4.4-1.36,1.63-2.32,2.97-2.44.2,2.08-.2,4.15-.67,6.07-.24,1.28-1.07,2.52-.55,3.88.12.64.79.64,1.31.72,4.8-.08,9.6-.28,14.68.08.91.16,1.71.44,2.7.4.08-.12.36-.16.24-.4-.12-.44-.44-1-.95-1.12-.08-.24-.44-.16-.56-.32-2.54-1.44-5.59-.68-8.57-.64-1.55.16-3.09.44-4.4-.44-.59-.72-.16-3-.16-3,0-.9,2.18-7.19,2.46-7.71.08-.6.32-1.16.24-1.84.32-.8.24-1.84.24-2.72.16-1.28.79-2.48,1.23-3.72.24-.6.44-1.24.67-1.84.24-.76.32-1.48.79-2.08,1.29.82,2.56.8,3.18,2.26l.55,3.33c0,.2.16.6.44.36,1.03-.68.71-2.2.71-3.24.24-1.24-.63-1.84-.99-2.92-.28-.2-.73-1.15-.73-1.15-.16-.88-2.08-1.48-1.65-2.56.24-.92.48-1.76,1.35-2.28.13.09.18.18.2.28l.48-.33.05-3.34c1.29,0,3.2.16,4.51.16.36.12.64.4,1.03.44l.32-.44,3.21-.63c-1.36.15-2.19-1.42-3.49-1.42h0Z"/>
  <path class="cls-1" d="m196.25,23.35c.1-.01.19-.03.3-.06l-.3.06h0Z"/>
  <path class="cls-2" d="m161.7,34.48c.04.48-.24.76-.6.92-.32-.12-.55-.16-.75-.48-.16-.44.24-.76.55-.92.32.08.71.12.79.48h0Z"/>
  <path class="cls-2" d="m159.12,34.48c.24.24.28.64.16.92-.28.24-.71.44-.95.12-.24-.24-.48-.52-.28-.84.28-.28.75-.52,1.07-.2h0Z"/>
  <path class="cls-1" d="m214.33,34.92s.02.04.03.06"/>
  <path class="cls-2" d="m244.56,35.6c.16.44-.2.76-.52.92-.4-.12-.91-.2-.91-.72.04-.32.32-.52.59-.6.36-.12.67.16.83.4h0Z"/>
  <path class="cls-2" d="m246.66,35.52c.12.2.4.52.08.72-.16.12-.28.16-.4.32-.43.08-.83-.08-.95-.48-.08-.44.28-.64.59-.84.28-.08.48.12.67.28h0Z"/>
  <path class="cls-2" d="m149.16,36c-.16.48-.55.68-1.07.52-.12-.12-.24-.32-.32-.52.04-.28.12-.56.44-.68.48.04.83.24.95.68h0Z"/>
  <path class="cls-2" d="m162.53,36.68c-.04.32-.4.6-.67.76-.4.04-.67-.28-.87-.56,0-.32.16-.72.48-.8.44-.16.91.16,1.07.6h0Z"/>
  <path class="cls-2" d="m160.19,36.4c.12.12.24.44.12.64-.24.2-.6.56-.99.32-.24-.2-.52-.36-.44-.76.16-.16.36-.4.6-.48.32-.08.48.12.71.28h0Z"/>
  <path class="cls-2" d="m252.73,36.88c0,.32-.32.64-.52.76-.32.12-.67.04-.87-.2-.24-.08-.16-.4-.16-.6.2-.28.48-.44.75-.52.36.08.6.32.79.56h0Z"/>
  <path class="cls-2" d="m255.27,37.24c-.12.36-.4.68-.75.72-.24-.04-.67-.12-.59-.48,0-.28.16-.56.36-.64.4-.2.87,0,.99.4h0Z"/>
  <path class="cls-2" d="m153.68,37.8c.08.48-.08.8-.48.96-.28.16-.55-.04-.75-.2-.2-.2-.36-.52-.2-.8.08-.36.44-.28.67-.44.36.04.56.2.75.48h0Z"/>
  <path class="cls-2" d="m155.63,38.15c.12.32-.24.44-.32.68-.2.12-.48.24-.71.08-.28-.24-.6-.6-.32-.96.32-.6,1.15-.28,1.35.2h0Z"/>
  <path class="cls-2" d="m250.39,37.96c.04.4-.32.68-.55.92-.36.08-.71-.16-.79-.48-.04-.32.16-.56.44-.76.36-.04.71,0,.91.32h0Z"/>
  <path class="cls-2" d="m253.64,38.59c-.08.36-.04.76-.44,1-.32.08-.71.04-.95-.16-.24-.2-.28-.56-.16-.84.2-.32.55-.56.95-.48.28.16.36.36.6.48h0Z"/>
  <path class="cls-2" d="m152.18,39.43c.16.32-.2.4-.32.56-.28.16-.55.04-.79-.08-.28-.16-.16-.56-.12-.76.36-.68,1.07-.2,1.23.28h0Z"/>
  <path class="cls-2" d="m251.14,40.19c.16.04.08.28.04.36-.95.48-2.38.6-3.21-.16-.48-.4-1.07-.56-1.59-.88.2-.52.91-.48,1.43-.6,1.15.16,2.06,1.24,3.33,1.28h0Z"/>
  <path class="cls-2" d="m154.08,39.83c.08.32-.16.44-.24.68-.16.24-.48.16-.67.08-.36-.24-.52-.68-.28-1,.44-.44.95-.2,1.19.24h0Z"/>
  <path class="cls-2" d="m157.57,40.07c.16.36-.08.68-.4.88-.28.16-.52-.08-.75-.12-.2-.28-.56-.6-.2-.92.36-.6,1.07-.28,1.35.16h0Z"/>
  <path class="cls-2" d="m203.43,41.76c-.08.8-1.4-.11-1.21.95.19.76.34,1.67.79,2.24.38.53.19,1.37.15,2.01-.34.57-.9.99-1.51,1.29-1.13-.11-2.79.57-3.32-.84-.23-.61-.64-1.21-.64-1.9.11-.08.27-.08.38-.19,0-.27-.3-.42-.26-.68,1.28-.23-.53-1.37.57-1.44.9.95,2.37.65,3.17,1.67.19.15.34.38.57.49-.15-.95-.6-1.9-.75-2.92-.11-.53.08-1.02.45-1.33.68-.53,1.24.23,1.62.64h0Z"/>
  <path class="cls-2" d="m161.06,41.51c.12.4-.2.64-.44.84-.36.16-.55-.24-.71-.44-.12-.4.16-.6.4-.8.28,0,.59.12.75.4h0Z"/>
  <path class="cls-2" d="m185.53,41.91c.47,1.56.32,3.16-.48,4.47-.04.32.08.84-.36.8-1.07-1.48-.28-3.56.16-5.11.08-.4.56-.56.67-.16h0Z"/>
  <path class="cls-2" d="m219.49,42.67c.55,1.12.59,2.6.08,3.72l-.32.32c-.44-.92-.79-1.84-.91-2.84.2-.72.44-1.36.48-2.12.56-.12.52.6.67.92h0Z"/>
  <path class="cls-2" d="m164.16,43.11c-.24.48-.91.6-1.35.92-.95.72-2.34.88-3.53.68,1.03-1.44,2.62-2.28,4.52-1.88.08.16.28.08.36.28h0Z"/>
  <path class="cls-2" d="m147.85,44.55c1.47,1.04,1.86,2.48,2.74,3.91.12.16.52.2.36.52-.32.24-.63-.24-1.07-.16-1.51-.68-2.46-2.36-2.42-4.11,0-.16.24-.16.4-.16h0Z"/>
  <path class="cls-2" d="m217.94,45.79c.04.4-.04.8-.36.92-.44.12-.79-.12-.91-.48-.12-.28.12-.44.2-.64.32-.32.87-.16,1.07.2h0Z"/>
  <path class="cls-2" d="m234.68,47.9c0-.76.2-1.48.28-2.2.12-.24.2-.52.16-.84.95-1.28,2.9-.88,4.4-.76.6.32,1.35.28,1.98.44.28-.2.67-.24.99-.2,1.27-.68.44-2.16.52-3.32l-.48-1.2c-.12-.24-.24-.52-.32-.8-.24-.28-.4-.8-.63-1.08-.67-1.76-1.98-2.76-3.09-4.15-2.02-2.64-5.2-4.12-8.37-5.15-3.13-1.08-6.31.32-9.12,1.32-.87-.24-1.31-.92-1.55-1.68-.16-1.52.16-3,.75-4.23.12-1,.79-1.76,1.07-2.68.71-2.24,1.47-4.43,1.63-6.87.08-1.48-1.03-2.52-2.14-3.16-.75-.2-1.63-.16-2.18.44-.51,1.08-1.63,1.8-2.58,2.32-.08.68.75.24,1.03.48.87.16,1.87-.12,2.58.44.08,1.6-.83,2.92-1.67,4.11-1.35,2-2.78,4.03-3.61,6.23l-.16-.16.19,9.77c1.26,2.1,2.84,4.5,5.2,5.3,1.27,1.04,2.86,2.28,4.56,1.36.91-.28.99,1,1.43,1.52.48,1.48-.59,2.52-.67,3.87l-1.03,2.2c-1.19,2.32-2.26,4.79-4.09,6.75-.6,0-.95.64-1.55.68-.32.44-.95.12-1.35.28-1.23.52-2.97.2-3.81,1.36.08.12.2.16.32.2,2.42.04,5.12.2,7.69.08.32-.12.6-.4.63-.76-.36-.68.12-1.28.44-1.8.2-.96.83-1.56,1.11-2.48.83-1.64,1.78-3.24,2.7-4.87l1.23-2c.28-.68.75-1.52,1.23-2.24.32-.32.48-.68.71-1.08.04-.4-.16-.56-.4-.84.28-.28.71-.2,1.07-.28.99.6,2.02,1.56,2.22,2.64l.36,1.04.16.48-.08,1.32.16,1.24c.2,1.92-.16,3.88-.36,5.79-.67,2.32-3.33,2.08-5.24,2.6-.47.32-1.39.16-1.39.96,2.3.48,5,.2,7.46.16.4-.16.48-.52.67-.88.08-.52.59-.96.43-1.52-.43-.56-.04-1.44-.16-2.2.08-.2.08-.48,0-.76.32-1.16.24-2.56.48-3.68l.16-1.52h0Z"/>
  <path class="cls-2" d="m254.19,46.34c-1.27,1.8-2.62,3.83-4.84,4.47-.16,0-.32.08-.4-.12,1.35-1.44,2.06-3.68,4.17-4.2.32-.16.75-.32,1.07-.16h0Z"/>
  <path class="cls-2" d="m145.91,48.3c-.2.16-.04.52-.4.56-.32.16-.67-.04-.83-.36-.16-.4.2-.8.51-.88.32.16.63.28.71.68h0Z"/>
  <path class="cls-2" d="m157.33,48.86c.12.36-.28.36-.48.44-1.67.6-3.37.04-4.56-1.16,0-.16,0-.32.16-.36,1.63.4,3.53.08,4.88,1.08h0Z"/>
  <path class="cls-2" d="m148.09,48.34c.08.16.12.44.08.6-.24.36-.6.44-.99.36-.24-.12-.36-.28-.52-.52.04-.4.36-.64.67-.76.32.04.56.12.75.32h0Z"/>
  <path class="cls-2" d="m185.26,48.54c.08.36-.24.6-.48.76-.36.08-.67-.08-.83-.32-.12-.28,0-.68.28-.76.36-.08.91-.04,1.03.32h0Z"/>
  <path class="cls-2" d="m255.7,48.7c.12.4-.24.6-.51.84-.24.12-.52,0-.75-.12-.04-.2-.28-.36-.2-.64.16-.36.51-.52.91-.48.2.16.36.2.55.4h0Z"/>
  <path class="cls-2" d="m258.32,48.54c.24.36.04.64-.16.92-.16.28-.48.36-.71.24-.24-.24-.56-.36-.59-.72,0-.32.36-.56.59-.68.4-.16.56.24.87.24h0Z"/>
  <path class="cls-2" d="m144.24,49.7c.04.28-.2.44-.28.68-.2.08-.4.24-.64.16-.28-.12-.48-.36-.59-.64.08-.36.32-.68.71-.8.32.08.67.24.79.6h0Z"/>
  <path class="cls-2" d="m227.78,49.7c.08.16.04.36.04.52-.24.32-.55.6-.95.4-.24-.24-.52-.48-.4-.84.32-.44.99-.6,1.31-.08h0Z"/>
  <path class="cls-2" d="m150.63,50.3c-.08.28-.2.56-.55.6-.36.04-.48-.28-.67-.44,0-.36-.04-.72.32-.92.48-.16.91.24.91.76h0Z"/>
  <path class="cls-2" d="m146.82,50.38c.12.4-.16.68-.4.88-.48.16-.87-.2-1.07-.56.04-.36.32-.8.71-.92.36,0,.55.4.75.6h0Z"/>
  <path class="cls-2" d="m230.4,50.3c.08.4-.04.8-.44.96-.48.16-.87-.24-1.07-.56.2-.32.24-.76.71-.84.36,0,.6.16.79.44h0Z"/>
  <path class="cls-2" d="m148.69,50.46c.12.28-.12.4-.2.6-.2,0-.32.24-.55.16-.16-.2-.48-.28-.52-.56-.04-.4.24-.6.52-.76.4-.04.64.24.75.56h0Z"/>
  <path class="cls-2" d="m253.52,50.78c-.12.32-.36.48-.67.64-.32.08-.52-.2-.75-.32-.2-.16-.12-.52-.04-.72.4-.68,1.47-.36,1.47.4h0Z"/>
  <path class="cls-2" d="m256.53,50.94c-.12.44-.55.64-.95.68-.36-.16-.75-.44-.48-.92.16-.16.24-.32.48-.36.48-.16.83.2.95.6h0Z"/>
  <path class="cls-2" d="m237.69,51.22c.2.52-.28.68-.59.92-.28-.04-.52-.16-.75-.32-.08-.44.12-.84.56-1.04.36,0,.55.16.79.44h0Z"/>
  <path class="cls-2" d="m226.79,51.7c.2.08.12.36.08.48-.24.16-.55.56-.91.32-.28-.16-.48-.4-.4-.76.2-.44,1.03-.48,1.23-.04h0Z"/>
  <path class="cls-2" d="m229.01,51.98c.04.32-.04.48-.32.64-.28.28-.6-.04-.87-.12-.08-.16-.16-.4-.04-.6.12-.16.32-.28.52-.32.28.08.6.08.71.4h0Z"/>
  <path class="cls-2" d="m161.7,52.02c.24.24-.04.52-.08.76-.2.24-.63.44-.99.2-.4-.16-.36-.68-.28-1,.24-.08.24-.36.55-.36.36.04.55.2.79.4h0Z"/>
  <path class="cls-2" d="m241.94,52.18c.08.4-.32.56-.59.64-.48.16-.71-.2-.91-.52,0-.24.24-.4.32-.6.56-.24.91.16,1.19.48h0Z"/>
  <path class="cls-2" d="m239.8,52.18c.16.4-.28.6-.44.8-.28.12-.63.08-.87-.16-.2-.12-.2-.36-.2-.6.24-.2.36-.44.64-.52.36,0,.71.2.87.48h0Z"/>
  <path class="cls-2" d="m257.69,52.66c.08.56-.63.28-.91.44-1.67,1-3.81.24-5.4-.36.12-.52.71-.32,1.03-.52,1.71-1.08,3.45.24,5.15.32l.12.12h0Z"/>
  <path class="cls-2" d="m149.12,52.18l-.16.28c-1.47.88-3.37,1.48-5.12.92l-.16-.24c1.47-1.08,3.41-1.36,5.32-1.08l.12.12h0Z"/>
  <path class="cls-2" d="m245.98,52.46c0,.32-.16.6-.4.76-.4.12-.91,0-1.03-.44-.12-.32.2-.64.52-.76.28,0,.75.04.91.44h0Z"/>
  <path class="cls-2" d="m156.22,52.62c-.16.32-.08.64-.48.8-.4.16-.87-.2-.99-.52-.12-.44.2-.56.4-.76.48-.24.83.12,1.07.48h0Z"/>
  <path class="cls-2" d="m153.41,52.82c.12.28-.12.44-.2.64-.2.24-.55.2-.79.12-.28-.24-.55-.52-.44-.96.24-.2.36-.32.63-.44.36.08.71.24.79.64h0Z"/>
  <path class="cls-2" d="m248.76,53.73c-.04.36-.32.64-.63.72-.32.04-.6-.2-.75-.4-.12-.24-.08-.56.16-.76.08-.12.36-.12.52-.2.36.04.64.32.71.64h0Z"/>
  <path class="cls-2" d="m150.47,53.3c.12.32-.16.44-.2.68-.12.68-.55,1.12-.87,1.72-.75.92-1.83.92-2.9,1.2l-.16-.32c1.15-1.48,2.38-2.64,4.01-3.36l.12.08h0Z"/>
  <path class="cls-2" d="m246.78,54.17c.08.48-.32.56-.59.76-.36,0-.63-.2-.79-.48-.12-.44.28-.6.52-.8.4-.08.75.2.87.52h0Z"/>
  <path class="cls-2" d="m155.03,54.17c-.04.08.04.16.12.2-.04.44-.36.56-.6.76-.36,0-.63-.12-.87-.4-.16-.36,0-.8.4-.92.36-.04.83,0,.95.36h0Z"/>
  <path class="cls-2" d="m254.08,55.37c.4-.04.47-.52.91-.6.4-.08.75.16.95.44.16.48-.2.72-.52.92-.28.2-.87-.24-.83.28.28.2.52.48.56.8-.08.16-.36.12-.48.04-1.15-.48-2.38-1.28-2.86-2.48-.16-.36-.91-.64-.48-.96,1.15-.08,2.1.84,2.74,1.56h0Z"/>
  <path class="cls-2" d="m257.88,54.13c.2.2.12.56-.04.76-.2.4-.79.24-1.15.2-.2-.2-.4-.4-.32-.72.16-.24.32-.4.6-.52.36-.08.63.08.91.28h0Z"/>
  <path class="cls-2" d="m243.49,56.29c.36.44.71,1.12.87,1.6-.08.12-.28.08-.36.08-1.35-.76-3.09-1.6-3.61-3.2-.12-.16-.44-.36-.4-.64,1.03-.2,2.02.56,2.74,1.12.28.4.59.6.75,1.04h0Z"/>
  <path class="cls-2" d="m152.81,54.77c.16.36-.16.64-.36.8-.44.08-.67-.08-.91-.32-.28-.44.24-.8.56-.96.32-.04.51.28.71.48h0Z"/>
  <path class="cls-2" d="m248.44,55.69c.04.24-.28.4-.4.56-.32.04-.63.16-.91-.12-.08-.2-.28-.52-.04-.72.44-.56,1.07-.12,1.35.28h0Z"/>
  <path class="cls-2" d="m258.32,56.25c.12.48-.24.8-.56,1-.4.12-.71-.16-.95-.36-.2-.24-.04-.48,0-.76.28-.24.63-.44,1.03-.28.16.12.32.2.48.4h0Z"/>
  <path class="cls-2" d="m230.87,61.77c0,.48-.87.36-1.23.72-1.23.64-2.7.64-4.16.6v-.24c1.43-1.2,3.49-1.64,5.4-1.08h0Z"/>
  <path class="cls-2" d="m173,63.48c-.04.36-.24.56-.6.68-.28,0-.55-.16-.67-.4-.16-.48.24-.68.52-.88.36.04.67.32.75.6h0Z"/>
  <path class="cls-2" d="m230.2,63.92c-.08.36-.2.76-.6.92-.36.08-.6-.12-.87-.28-.2-.16-.08-.44-.12-.64.28-.72,1.31-.72,1.59,0h0Z"/>
  <path class="cls-2" d="m238.09,64.08c-.99.64-2.1,1.4-3.41,1.4l-2.14-.04-.2-.16c1.31-1.6,3.69-1.6,5.75-1.44v.24h0Z"/>
  <path class="cls-2" d="m162.13,65.04c0,.36-.16.64-.52.76-.4.08-.67-.08-.83-.36-.16-.36,0-.72.32-.92.44-.28.87.2,1.03.52h0Z"/>
  <path class="cls-2" d="m164.11,65.44c.12.2-.08.32-.16.52-.24.12-.55.2-.75,0-.28-.16-.36-.44-.24-.68.12-.24.36-.2.48-.36.28.12.55.24.67.52h0Z"/>
  <path class="cls-2" d="m148.92,69.48c-.4.48-1.03-.12-1.47-.36-1.39-.8-1.35-2.36-2.74-3.28.16-.48.51.04.79-.04.24.16.56.32.83.44,1.35.76,1.67,2.04,2.58,3.24h0Z"/>
  <path class="cls-2" d="m264.55,53.98c-.63-1.16-1.71-1.64-2.98-1.64-1.03.08-1.78.76-2.22,1.64-.24.88.08,1.68.75,2.2.28.12.63.08.79-.2.2-.52-.36-.52-.44-.92-.16-.56.04-1.04.44-1.4.4-.4,1.07-.2,1.55-.2.48.32.95.6,1.19,1.16.24.68.24,1.44,0,2.12-.44,1-1.43,1.8-2.46,2-3.29.48-39.43.32-39.43.32-4.24.4-9.08-.8-12.73,1.44-1.67.8-2.5,2.64-2.94,4.27-1.07.96-2.22,2.08-3.09,3.16l-.12-.12c.2-.96.63-1.8.83-2.76.6-.8.6-1.88,1.03-2.76,1.51-2.44,2.94-4.91,5.28-6.63.99-1.32,2.74-1.08,4.24-1.08,1.62.76,3.53,1,5.51.8.08-.08.12-.16.12-.28-.55-.52-1.47-.72-2.1-1.24-1.59-.76-3.1.24-4.76.12-.08-.08-.16-.12-.12-.24,1.51-1.12,3.21-1.92,4.92-2.64,1.39-.76,2.86-1.16,4.32-1.72.59,0,1.15-.52,1.71-.16l2.1-.56c.08.04.16.16.32.12,1.78-.6,4.05-.04,6.07-.08l.28.24,1.9.48c.71.08,1.03.92,1.78.96.4-.56-.44-.8-.63-1.16.87-.2,1.86.04,2.66.4l-.4.44c-.24.44.12.76.48.92.28.08.48-.12.67-.2.52-.36-.04-.72.12-1.04,2.94.52,5.75,1.24,8.45,2.4.75.24,1.47.8,2.3.76-.83-.76-1.98-1.16-3.02-1.6-.67-.4-1.63-.44-2.14-1,.12-.2.4-.12.51-.28,1.35-.16,2.5-1.16,3.45-2.24.08-.24.52-.16.48-.48-.36-.4-.95.12-1.43.08-1.67.32-2.38,2.28-4.05,2.64-2.02-.48-4.08-.96-6.11-1.48-.99-.16-2.06-.24-2.97-.64l-2.22-.2h-4.05c-.04-.08-.16-.12-.12-.24,1.43-.36,2.66-1.2,4.09-1.56l10.63-4.87c1.11-1,2.1-2.12,3.01-3.28.04-.32-.16-.64-.44-.76-.28-.12-.6-.08-.79.16-.48.36,0,.8,0,1.24-.48.64-1.23,1.2-1.82,1.56-.16-.04-10.95,4.91-10.95,4.91-1.59.68-3.17,1.44-4.84,1.8l-2.3.36c-.16.48-.55.76-.99.92-.63.12-1.15.52-1.82.52-5.16,2-10.51,4.12-14.6,8.19.24-.48.36-1.08.4-1.68-.08-.6-.04-1.28-.44-1.76-.09-.22-.38-.86-.29-1.09l-.58.38c-.36.88-.67,2.48-.32,3.4.12.72.71,1.56.16,2.2-1.9,2.32-2.97,5.11-4.24,7.75-.48-.08-.71-.52-.91-.96,1.35-1.72,2.42-3.64,2.82-5.83.28-.2.08-.72.36-.96-.08-.64.36-1.28.04-1.8.25-.87-1.16-1.68-.26-2.24l-.75.36c-1.71,2.24.89,5.59-1.06,7.75v.16c-.56.72-.83,1.44-1.59,1.92-.95-.4-1.31-1.48-1.86-2.28-.87-.84-.87-2.56-.36-3.72.36-1.16-.24-2.16-.36-3.2l-.4-.24c-.95,1.24-1.31,3.2-.55,4.67.4.72.44,1.72,1.03,2.32.36,1.16,1.07,1.92,1.71,2.96.16.4-.24.48-.44.68-.44-.28-.36-.92-.75-1.2-1.31-2.8-3.01-5.03-5.08-7.31-.08-.36-.44-.68-.24-1.08.75-.72.91-2.12.52-3.04-.08-.2-.32-.44-.28-.64l-.6-.48c.08,1.4-.83,2.64-.44,4.11v.08c-4.09-3.08-8.6-5.82-13.2-7.98l-.37,1.01c1.16.29,4.25,2.17,4.25,2.17,1.39.52,2.66,1.36,3.97,2.12,5.39,3,8.97,7.95,11.38,13.46.04.44.44.92.16,1.36-.83-1.28-2.02-2-3.01-3.04-.28-1.88-1.39-3.67-3.01-4.43-.6-.88-1.86-.96-2.86-1.24l-14.44-.08c-11.74-.16-22.45.36-34.11.16-1.63-.16-3.61-.72-4.09-2.44-.32-.6-.32-1.64,0-2.2.44-.76,1.23-1,2.02-1.08.63.08,1.07.68,1.35,1.12,0,.52-.44,1-.64,1.44.04.16.2.48.48.36.52-.2.91-.76,1.03-1.28.04-.28.16-.68-.12-.88-.24-.84-1.11-1.44-1.86-1.64-.99-.08-2.02.2-2.7.92-.95.8-.91,2.24-.63,3.36.63,1.76,2.5,2.96,4.28,3.2l38.59.16c3.77.2,8.01-.44,11.82.32,1.39.44,2.86,1.48,3.21,3.04-.04.08-.16.04-.28.04-3.13-2.04-7.26-2.8-11.26-2.32-1.59-.08-3.01.52-4.44.92-.75.16-1.47-.2-1.94-.64-1.43-1.28-3.93-1.2-5.75-.72,0,.12-.04.24.04.28,1.94-.16,3.09,1.52,4.84,1.72.4.08.71-.36,1.07-.04-1.82.88-3.57,1.92-5.51,2.48-.6-.12-.91-.68-1.39-1-.75-.84-2.14-.48-3.17-.56-.36.08-.67-.16-.91,0,.32.64,1.03,1,1.71,1.32.99.44,2.14-.04,3.05.56-.24.28-.56.36-.83.56-1.86.72-3.41,2.4-5.47,2.28-2.18.24-4.4-.4-5.87-1.92-.63-1.56-2.26-2.4-4.01-2.32-.12.08-.28.08-.24.28.87.52,1.55,1.56,2.42,2.16.56.68,1.63,0,2.14.76.76.52,1.71.96,2.58,1.12.63.28,1.35.4,2.06.56l-.28.16c-3.61,1.2-7.77,1.32-11.82,1.16-1.19-.04-2.34-.4-3.53-.36.2.24.6.44.95.56-.32.2-.67.28-1.07.32-.48.12-1.03.16-1.51.4-.63-.04-1.19.2-1.7.4-.67.72-1.47,1.48-2.26,1.84,0,.16-.04.4.16.4.75-.32,1.7-.08,2.46-.4,1.31-.12,2.06-1.56,3.09-2.16,1.11-.88,2.7-.68,4.05-.48.79.2-.08.52.16,1.04.32.28.59.6,1.03.48.08-.08.16-.16.28-.2.24-.32.2-.68.04-1,.56-.36,1.31.04,1.9-.2,1.51-.04,3.01-.36,4.48-.4.24-.04.52-.28.75-.04-.12.32-.52.36-.36.8.08.36.48.52.79.6.4-.16.75-.44.6-.96-.08-.28-.4-.32-.6-.44.83-.4,1.78-.52,2.62-.92.6-.12,1.15-.32,1.67-.56.52-.04.95-.52,1.43-.32-.2.68-.48,1.32-.83,1.92-.63,2.12-1.11,4.91,0,6.95.12.04.16-.04.24-.08-.83-2.12-.36-4.55.36-6.55.55-3.4,4.05-4.39,6.54-5.67l.12.16c-.67,1.76-1.66,3.44-1.51,5.55.08.36-.16.72,0,.96.67-.36,1.11-1.16,1.47-1.84.28-1.8-.75-4.03,1.07-5.35,3.25-1.28,6.31-2.96,10.07-3,.12.12.4-.08.43.16-.79.88-1.94,1.72-2.3,2.8-1.27,1.76-1.23,4.75-.67,6.91.36,1.24-.71,1.92-1.23,2.88-.25.34-.32.92-.55,1.31l.78.09c.67-.72,1.31-1.6,1.35-2.64.08.4.43.72.75.8.28-.44-.24-.76-.28-1.2.64-.36.91.44,1.43.6.83.2,1.55.56,2.42.56l.28-.28c-.87-1.36-2.62-1.6-4.12-1.68-.79-1.32-.79-2.96-.71-4.55.16-.84.32-1.72.79-2.48.2-.56.75-1.08,1.11-1.52.71-.68,1.63-1.16,2.5-1.36h.12c0,.08.04.12.04.12-1.07.84-1.19,2-1.82,3.04-.67,1-.99,2.36-.36,3.48.24.52.12,1.32.67,1.68.51-.72.56-1.64.83-2.44-.12-1.32-.91-2.56-.16-3.83.4-1,1.23-1.4,2.14-1.76,2.18-.2,4.09.92,5.99,1.76.4.28,1.07.52,1.15,1.08-.04,1.08-.63,2.16-1.47,2.68-1.07.64-2.62.72-3.61-.04-.59-.6-.83-1.64-.63-2.44.44-.48,1.03-.88,1.74-.64.4.2.75.6,1.27.36.2-.12.28-.44.16-.64-.44-.24-.6-.84-1.19-.92-.75-.12-1.67-.08-2.18.44-.83.72-1.15,1.8-.91,2.8.28,1.28,1.23,2.2,2.46,2.56,1.83.44,3.73-.12,4.88-1.68.48-.52.59-1.08.87-1.72,1.9,1.16,3.33,3.2,4.08,5.27,0,.68.2,1.4.04,2l1.39.12c-.12-.32,0-.68.12-.96.52-2.64,2.14-4.83,4.09-6.55.68-.4.52.52.68.8.59,1.52,1.98,2.6,3.45,3.04,1.67.28,3.25-.12,4.28-1.4.52-.96,1.15-2.36.28-3.36-.55-.68-1.31-1.04-2.18-1.04-1.03,0-1.67.72-2.18,1.48,0,.32-.04.68.24.84.16,0,.48.04.59-.2.08-.6.6-.88,1.07-1.2.44-.24.91,0,1.27.24.44.36.52.96.55,1.56-.08.76-.59,1.56-1.31,1.88-1.15.6-2.82.32-3.81-.36-.48-.52-.75-1.12-1.11-1.76-.08-.64-.32-1.2,0-1.84,1.75-1.04,3.57-1.8,5.67-2,.83.16,1.55.72,2.1,1.32,1.82,1.88-.4,4.56.87,6.63.48-.08.48-.72.67-1.12.6-1.44-.16-3-.51-4.39-.48-.88-.75-1.64-1.51-2.36.2-.08.28-.08.48-.08.83.56,1.75,1.2,2.42,2.08,1.15,1.88,1.75,4.11,1.55,6.55-.32,1.2-1.59,1.76-2.58,2.2-.4.32-.87.8-1.07,1.28.48.28,1.15,0,1.63-.2.75-.28,1.19-1.24,1.71-1.68.08.04.04.16.08.24.04.44-.2,1.04.2,1.16.2-.56.24-1.36.36-2.04.52.56.59,1.28.75,2,.36.72.95,1.68,1.9,1.8.24-.36-.04-.72-.12-1.04-.12-1-.95-1.52-1.51-2.24-1.39-1.92-.75-4.91-1.82-7.07-.4-1.16-1.23-2-2.14-2.96l.16-.16c1.94-.04,3.57.6,5.35.96,2.18,1.08,5.36.84,6.39,3.68.44,1.6,1.15,3.08,2.26,4.31l.12-.08c.24-.4.24-1.08,0-1.48-.24-2-1.98-2.48-2.9-4.15l.12-.16c.95.28,1.94.52,2.89.92,3.17.88,5.39,4,5.79,7.23,0,2.56-.48,4.67-1.47,6.83-.12.32-.67.68-.32.96.44-.32.52-.84.75-1.2,1.31-2.2,1.98-5.23,1.31-8.03-.04-.52-.63-.92-.36-1.44.2.24.44.28.67.36.24-.16.6-.16.75-.44.04-.24.2-.52,0-.72-.24-.36-.75-.36-1.15-.28-.2.24-.44.56-.48.88-.4-.68-.79-1.56-1.43-2.12l.08-.12c1.79.6,3.41,1.48,5.24,1.96.4.24.83.44,1.39.44,1.55.6,3.25.84,4.88,1.24,1.19-.12,2.18.44,3.37.16v-.08l-.04.04c-.44-.56-1.39-.04-1.9-.44-2.74-.28-5.35-1-7.81-1.96.04-.12.2-.08.32-.08.4-.2.67-.56.63-1-.2-.28-.52-.44-.91-.44-.24.12-.55.4-.59.68.04.32.32.68.59.76-.08.08-.24.04-.36.04-1.23-.56-2.42-1.08-3.61-1.64-.44-.08-.79-.44-1.23-.52-.91-.44-1.82-.88-2.74-1.24-2.54-1.32-5.35-2.04-8.05-3-.6-.16-1.15-.32-1.71-.48-.99-.28-1.98-.52-2.97-.8-3.37-.84-7.89-.92-10.83.92-.47-.16-.75.6-.99.12.83-2.2,3.25-2.92,5.43-3,15.91-.16,30.82-.28,46.49-.52,1.83,0,3.61-.64,4.56-2.28.67-.96.79-2.6.28-3.68h0Zm-63.07,14.74c-.16.48-.48.88-.44,1.4l-.16.08c.12-.6-.48-.96-.32-1.6-.32-.48-.32-1.08-.6-1.6-.36-.64.32-.92.6-1.36.55.24.75.76,1.15,1.24.24.68-.28,1.2-.24,1.84h0Z"/>
  <path class="cls-2" d="m244.52,66.2c0,.12.24.16.16.36-1.39,1.24-3.33,1.6-5.31,1.68-.16.04-.32.16-.51.12-.12-.08-.16-.2-.08-.28,1.43-1.56,3.61-2.36,5.75-1.88h0Z"/>
  <path class="cls-2" d="m238.13,66.84c.16.56-.2.88-.63,1.08-.44-.04-.67-.32-.87-.64-.12-.32.16-.48.28-.68.32-.32,1.07-.32,1.23.24h0Z"/>
  <path class="cls-2" d="m162.73,66.92c.08.28.04.64-.2.84-.16.2-.52.24-.72.2-.28-.04-.44-.36-.51-.6,0-.36.2-.56.51-.76.32,0,.67-.04.91.32h0Z"/>
  <path class="cls-2" d="m155.63,69.52v.28c-.95.2-1.86-.04-2.58-.6-.55-.8-1.19-1.6-2.1-2,0-.12-.24-.28,0-.36,1.98,0,3.17,1.6,4.68,2.68h0Z"/>
  <path class="cls-2" d="m250.55,66.88c-.91,1.36-1.71,3.04-3.33,3.64-.28,0-.52.4-.76.12.64-1.52,1.98-3.16,3.53-3.8.16,0,.39-.04.55.04h0Z"/>
  <path class="cls-2" d="m165.03,67.36c.04.44-.28.52-.56.76-.32.04-.48-.2-.67-.44-.16-.4.2-.56.4-.76.32-.08.67.16.83.44h0Z"/>
  <path class="cls-2" d="m255.54,67.6c-.36.52-.2,1.28-.55,1.84-.79.92-1.47,1.96-2.74,2.16-.2-.4.28-.8.48-1.16.56-1.2,1.35-2.56,2.62-3.08l.2.24h0Z"/>
  <path class="cls-2" d="m143.33,67.96c.12.28.24.56,0,.88-.24.2-.59.28-.91.16-.36-.2-.48-.64-.32-.96.24-.36.95-.56,1.23-.08h0Z"/>
  <path class="cls-2" d="m141.07,68.44c.04.2.16.36.12.56-.12.2-.32.44-.55.48-.44.08-.71-.16-.91-.52-.04-.36.08-.68.39-.84.36-.16.76.04.95.32h0Z"/>
  <path class="cls-2" d="m145.75,68.68c.08.32.16.88-.32.96-.56.24-.87-.16-1.19-.48,0-.36.2-.64.48-.8.4-.04.75,0,1.03.32h0Z"/>
  <path class="cls-2" d="m152.26,69.2c-.04.28.04.68-.28.76-.2.2-.56.12-.75.08-.08-.24-.52-.44-.28-.72.16-.2.32-.32.55-.44.24.12.6,0,.75.32h0Z"/>
  <path class="cls-2" d="m259.35,69.48c-.12.28-.28.64-.6.64-.36-.04-.71-.08-.91-.44-.16-.44.2-.68.52-.8.4,0,.91.16.99.6h0Z"/>
  <path class="cls-2" d="m252.09,69.67c.04.32-.32.56-.48.68-.55.24-1.03-.16-1.23-.6.08-.36.36-.6.68-.72.51-.04.79.24,1.03.64h0Z"/>
  <path class="cls-2" d="m257.01,69.6c0,.28-.16.56-.36.68-.32.12-.71.08-.95-.16-.36-.32-.08-.6.16-.84.36-.2,1.03-.16,1.15.32h0Z"/>
  <path class="cls-2" d="m142.3,70.27c.08.44-.08.84-.48,1-.36,0-.75-.2-.87-.56-.04-.36.08-.72.4-.84.39-.12.71.12.95.4h0Z"/>
  <path class="cls-2" d="m250.11,70.71c.12.44-.12.84-.56,1.04-.32.08-.52-.08-.75-.28-.16-.2-.36-.64-.04-.84.32-.6,1.11-.36,1.35.08h0Z"/>
  <path class="cls-2" d="m163.64,71.15c.16.44-.32.52-.43.76-.16.08-.48.12-.6-.04-.2-.24-.44-.48-.32-.84.2-.16.28-.32.52-.4.44-.12.6.28.83.52h0Z"/>
  <path class="cls-2" d="m258.64,71.43c.08.28-.16.4-.2.6-.24.2-.63.24-.91.16-.36-.2-.36-.52-.36-.88.24-.16.28-.36.55-.44.36,0,.79.16.91.56h0Z"/>
  <path class="cls-2" d="m256.18,71.55c.16.48-.28.72-.6.84-.16.04-.4-.08-.44.16,1.03.52,1.67,1.36,2.46,2.12v.32c-1.43-.04-2.9-.4-3.93-1.52-.28-.2-.75-.2-1.07-.48.52-.52,1.47-.32,2.18-.36.52-.56-.6-.96.08-1.44.24-.04.4-.28.71-.2.28.12.44.32.6.56h0Z"/>
  <path class="cls-2" d="m239.95,71.59c.08.2-.16.44-.2.64-.24.24-.6.28-.87.16-.2-.28-.52-.52-.4-.92.32-.6,1.35-.48,1.47.12h0Z"/>
  <path class="cls-2" d="m151.26,72.99c-.12.36-.28.6-.67.64-.32-.04-.6-.16-.72-.48-.04-.28.16-.44.2-.64.44-.36,1.23-.12,1.19.48h0Z"/>
  <path class="cls-2" d="m154.48,72.47c0,.56-.6.88-.79,1.44-.6,1.32-1.67,2.52-3.17,2.64-.16-.36.52-.8.67-1.16.63-1.36,1.9-2.08,3.05-2.92h.24Z"/>
  <path class="cls-2" d="m239,73.03c.04.44-.36.76-.67.92-.36.12-.64-.16-.83-.32-.32-.32-.12-.64.04-.96.48-.48,1.15-.08,1.47.36h0Z"/>
  <path class="cls-2" d="m241.46,73.31c-.04.44-.32.76-.71.88-.08-.12-.28-.04-.4-.08-.28-.16-.52-.4-.52-.72.2-.2.28-.52.56-.56.36-.04.95,0,1.07.48h0Z"/>
  <path class="cls-2" d="m160.62,73.27c.04.44-.28.68-.59.84-.36.04-.6-.2-.75-.48-.08-.36.28-.6.48-.8.48-.16.6.2.87.44h0Z"/>
  <path class="cls-2" d="m163.36,73.43c-.12.36-.36.6-.75.68-.28-.08-.59-.16-.71-.48-.04-.4.28-.6.55-.8.4,0,.83.16.91.6h0Z"/>
  <path class="cls-2" d="m249.99,76.23c.2.16.55.36.48.64-.63.28-1.15-.44-1.74-.56-.95-.96-1.67-2-2.06-3.2.36-.36.75.08,1.07.2.91.76,1.78,1.76,2.26,2.92h0Z"/>
  <path class="cls-2" d="m251.46,73.43c.12.28.08.6-.08.88-.24.4-.75.32-1.11.24-.2-.24-.56-.56-.32-.92.12-.32.48-.4.75-.52.28-.04.48.2.75.32h0Z"/>
  <path class="cls-2" d="m167.01,74.47c.04.32.12.8-.28,1-.36.08-.83-.04-.95-.48-.2-.48.24-.56.48-.8.32-.08.51.08.75.28h0Z"/>
  <path class="cls-2" d="m241.34,77.07c.55.8.95,1.8,1.03,2.84-.12.28.2.56-.04.76h-.16c-1.79-1.28-2.18-3.08-2.86-4.87-.16-.08-.2-.24-.16-.4.4-.36.67.36,1.07.48l1.11,1.2h0Z"/>
  <path class="cls-2" d="m172.17,75.71s0,.08.04.08c-1.59,1.12-3.81,1.8-5.63.72-.04-.12.04-.32.2-.36,1.15-.36,2.26-.92,3.49-.76l1.9.32h0Z"/>
  <path class="cls-2" d="m163.12,75.91c-1.35.84-2.58,2.48-4.24,2.88-.32.12-.52.56-.91.32.71-2.16,3.05-3.32,5.16-3.52v.32h0Z"/>
  <path class="cls-2" d="m239,77.7c.12.32,0,.76-.32.84-.2.2-.59.2-.75,0-.36-.16-.36-.52-.36-.8.12-.28.4-.32.59-.44.36.08.64.08.83.4h0Z"/>
  <path class="cls-2" d="m235.71,77.91c-.24.56-.91.88-1.43,1.04-1.35.48-2.58-.16-3.77-.48.04-.32.44-.2.63-.4,1.31-.28,2.66-.56,4.05-.2.12-.08.4-.12.52.04h0Z"/>
  <path class="cls-2" d="m163.12,79.06c-.12.16-.16.52-.48.64-.28.12-.55,0-.79-.16-.08-.24-.36-.44-.16-.72.08-.28.4-.36.63-.44.4.04.71.28.79.68h0Z"/>
  <path class="cls-2" d="m165.46,79.42c-.12.24-.24.6-.55.76-.32.08-.56-.08-.8-.28-.12-.24-.24-.52-.12-.8.08-.2.36-.24.55-.36.4-.04.75.36.91.68h0Z"/>
  <path class="cls-2" d="m238.25,79.82c.04.32-.12.52-.28.76-.2.28-.6.32-.87.16-.28-.04-.36-.36-.48-.56-.24-.32.16-.52.28-.8.43-.36,1.15-.16,1.35.44h0Z"/>
  <path class="cls-2" d="m240,79.74c.04.2.16.4.08.56-.24.2-.4.72-.87.52-.24.08-.36-.24-.47-.32-.16-.4-.04-1,.47-1.08.36-.12.6.2.79.32h0Z"/>
  <path class="cls-2" d="m164.04,80.9c.08.44-.08.84-.4,1.08-.43.08-.99.08-1.15-.44-.04-.4,0-.92.48-1.16.4-.04.87.04,1.07.52h0Z"/>
  <path class="cls-2" d="m166.3,80.74c-.08,1.12-.32,2.48-1.43,3.12-.64.12-1.27.72-1.9.32v-.2c.83-1.2,2.34-2.12,3.33-3.24h0Z"/>
  <path class="cls-2" d="m232.02,81.66c.16.24-.12.44-.24.64-.24.28-.67.16-.95.04-.28-.12-.32-.52-.2-.8.08-.24.32-.36.52-.44.36-.04.67.28.87.56h0Z"/>
  <path class="cls-2" d="m170.26,83.5c.55.92.24,2.16.55,3.16-.67.08-.95-.68-1.39-1.08-.87-1.2-.75-2.8-1.15-4.19.08-.12.2-.12.28-.08.59.4,1.03,1.16,1.51,1.68-.08.28.24.28.2.52h0Z"/>
  <path class="cls-2" d="m234,81.98c0,.32-.36.4-.55.6-.28-.04-.51-.16-.75-.36-.12-.4.2-.52.4-.72.4-.16.79.04.91.48h0Z"/>
  <path class="cls-2" d="m238.73,85.54c0,.12-.04.36-.24.28h-.16c-1.15-1.04-2.3-2.2-2.14-3.8l.24-.04c1.07.92,2.26,1.92,2.3,3.56h0Z"/>
  <path class="cls-2" d="m235.75,84.26c.04.32-.16.56-.36.76-.44.12-1.11.08-1.19-.52-.04-.4.4-.6.6-.8.48-.12.79.2.95.56h0Z"/>
  <path class="cls-2" d="m233.13,85.1c-.55,1.48-2.06,2.24-3.09,3.36-.2-.12-.12-.44-.08-.6.4-1.52,1.59-3,3.05-3.6.63.08,0,.52.12.84h0Z"/>
  <path class="cls-2" d="m236.11,86.29c0,.36-.36.52-.55.72-.32-.04-.63-.12-.87-.44-.04-.4.28-.52.51-.72.4-.08.75.12.91.44h0Z"/>
  <path class="cls-2" d="m206.59,13.77c.54,0,.98.44.98.99s-.44.99-.98.99h-11.76c-.54,0-.98-.44-.98-.99s.44-.99.98-.99h11.76Zm-8.32,1.71c1.15,0,.06-1.39-.56-1.39h-1.15c-1.15,0-.06,1.39.55,1.39h1.15Zm4.82,0c1.15,0,.06-1.39-.56-1.39h-1.15c-1.15,0-.06,1.39.56,1.39h1.15Zm3.55-1.39h-.44c-1.15,0-.17,1.39.44,1.39.77,0,.82-1.39,0-1.39h0Z"/>
  <path class="cls-2" d="m205.56,27.26l2.25.86,2.21-.86-.87,3.31,1.75-.36-.6,2,.6,1.92-1.55-.42.68,3.57-2.21-.86-2.25.86.91-3.57-1.79.5.48-2.01-.48-1.92,1.71.28-.84-3.31h0Zm3.32,5.97c.51,0,.55-.7.55-1.3,0-1.36-1.08,0-1.63-1.28-.4,1.08-1.51.08-1.51,1.24,0,.8,0,1.34.79,1.34h1.8Zm-2.2-1.23c0,.52.7.17,1.21.17s1.21.35,1.21-.17c0-.74-.7-.48-1.21-.48s-1.21-.26-1.21.48h0Z"/>
  <polygon class="cls-2" points="200.3 32.13 200.3 31.71 199.92 31.64 200.22 31.33 200.04 30.99 200.42 31.03 200.66 30.62 200.88 31.03 201.28 30.99 201.09 31.33 201.39 31.64 201.01 31.71 201.01 32.13 200.66 31.86 200.3 32.13 200.3 32.13"/>
  <polygon class="cls-2" points="198.56 34.37 198.56 33.95 198.18 33.88 198.48 33.57 198.29 33.24 198.68 33.28 198.91 32.87 199.14 33.27 199.53 33.24 199.35 33.57 199.64 33.88 199.27 33.95 199.27 34.37 198.91 34.11 198.56 34.37 198.56 34.37"/>
  <polygon class="cls-2" points="201.52 34.09 201.52 33.67 201.14 33.6 201.44 33.29 201.25 32.95 201.64 32.99 201.87 32.58 202.1 32.99 202.49 32.95 202.31 33.29 202.6 33.6 202.23 33.67 202.23 34.09 201.87 33.82 201.52 34.09 201.52 34.09"/>
  <polygon class="cls-2" points="201.87 35.77 201.87 35.53 201.65 35.49 201.82 35.31 201.72 35.12 201.93 35.15 202.07 34.92 202.2 35.14 202.42 35.12 202.31 35.31 202.48 35.49 202.27 35.53 202.27 35.77 202.07 35.61 201.87 35.77 201.87 35.77"/>
  <polygon class="cls-2" points="199.12 37.68 199.12 36.96 198.47 36.84 198.98 36.32 198.66 35.74 199.33 35.81 199.73 35.11 200.12 35.8 200.79 35.74 200.47 36.32 200.98 36.84 200.34 36.96 200.34 37.68 199.73 37.23 199.12 37.68 199.12 37.68"/>
  <polygon class="cls-2" points="200.52 0 201.91 3.43 205.45 2.39 203.66 5.64 206.67 7.77 203.03 8.38 203.25 12.09 200.52 9.6 197.78 12.09 198 8.38 194.36 7.77 197.38 5.64 195.58 2.39 199.12 3.43 200.52 0 200.52 0"/>
  <path class="cls-2" d="m187.72,77.04c-.42.16-.58.27-.48.71l.5,2.1c.09.39.12,1-.14,1.38-.31.45-.96.74-1.44.85-.34.08-1.09.22-1.69-.03-.4-.17-.66-.35-.82-1.06l-.52-2.21c-.13-.55-.34-.52-.79-.45l-.04-.17,2.66-.64.04.16c-.52.14-.76.21-.62.79l.52,2.21c.09.38.3,1.29,1.44,1.01,1.39-.33,1.16-1.35,1.06-1.77l-.48-2.01c-.1-.4-.24-.61-.93-.47l-.04-.17,1.73-.42.04.16h0Z"/>
  <path class="cls-2" d="m191.66,77.48c-.24-.43-.88-1.09-1.82-.88-.41.09-.8.39-.71.82.08.36.26.47.99.6l1.27.22c.29.05.98.3,1.14,1.03.13.58-.2,1.5-1.65,1.82-.75.17-1.16.02-1.4.08-.17.04-.18.17-.19.28l-.23.05-.36-1.64.23-.05c.31.63.93,1.28,1.93,1.06.95-.21.84-.88.82-.96-.1-.44-.5-.52-1.06-.61l-.58-.09c-1.47-.24-1.6-.81-1.66-1.12-.09-.4-.04-1.36,1.46-1.69.63-.14,1.05,0,1.28-.06.18-.04.2-.15.21-.28l.24-.05.32,1.44-.22.05h0Z"/>
  <path class="cls-2" d="m196.89,80.1l-2.88.28-.02-.17c.58-.1.78-.13.72-.7l-.34-3.56c-.56.08-1.39.19-1.45,1.29l-.23.02-.1-1.36,4.83-.46.14,1.36-.23.02c-.26-1.07-1.1-1.02-1.65-.99l.34,3.56c.06.57.25.57.85.55v.17h.01Z"/>
  <path class="cls-2" d="m203.62,80.1l-1.66-.03-1.63-2.16h-.22s-.03,1.33-.03,1.33c-.01.54.17.57.7.64v.17s-2.74-.05-2.74-.05v-.17c.55-.04.72-.06.73-.61l.06-3c.01-.58-.24-.6-.7-.64v-.17s2.61.05,2.61.05c.57.01,2.28.1,2.26,1.24-.02.84-.85,1.03-1.29,1.14l1.59,1.97c.11.12.23.13.33.14v.17h0Zm-3.5-2.41c1.06.01,1.48-.13,1.5-1.01.01-.69-.31-.99-.96-1-.45,0-.46.07-.51.28l-.03,1.73h0Z"/>
  <path class="cls-2" d="m208.93,80.78l-2.6-.33.02-.17c.5.03.65.04.67-.18.02-.18-.17-.71-.26-.94l-1.81-.23c-.28.46-.45.72-.46.82-.03.26.35.32.62.37l-.02.17-1.63-.2.02-.17c.44,0,.58-.21.88-.69l2.24-3.47.22.03,1.35,3.77c.27.77.37,1.01.76,1.05l-.02.17h0Zm-2.25-1.9l-.61-1.74-.96,1.54,1.57.2h0Z"/>
  <path class="cls-2" d="m213.64,81.74l-4.6-.84.03-.17c.45.03.7.06.77-.35l.58-3.23c.08-.44-.24-.51-.6-.6l.03-.17,2.78.51-.03.17c-.56-.08-.81-.12-.91.47l-.57,3.15c-.06.32.11.41.64.5,1.2.22,1.75-.25,2.25-.94l.23.04-.6,1.46h0Z"/>
  <path class="cls-2" d="m216.69,82.43l-2.77-.58.04-.17c.43.06.75.09.83-.32l.67-3.22c.09-.44-.28-.53-.64-.63l.03-.17,2.77.58-.03.17c-.37-.06-.76-.14-.85.31l-.67,3.21c-.09.43.22.51.65.63l-.03.17h0Z"/>
  <path class="cls-2" d="m222.32,83.15l-2.61-.27.02-.17c.5.02.65.03.67-.2.02-.18-.19-.71-.28-.94l-1.81-.19c-.28.46-.43.73-.44.83-.03.26.36.32.63.36l-.02.17-1.63-.17.02-.17c.44,0,.58-.23.87-.71l2.17-3.51.22.02,1.43,3.74c.29.76.39,1,.78,1.03l-.02.17h0Zm-2.29-1.85l-.65-1.73-.92,1.56,1.57.16h0Z"/>
  <path class="cls-2" d="m201.63,28.36c0-1.63-.91-.1-1.42-1.49-.37,1.17-1.47.19-1.47,1.45,0,.48.13.76.36.91v.48c0,.13.1.23.22.23h1.73c.13,0,.23-.1.23-.23v-.52c.21-.18.35-.46.35-.83h0Zm-1.41.31c-.48,0-1.12.33-1.12-.24,0-.8.54-.62,1.02-.62s1.21-.18,1.21.62c0,.56-.64.24-1.12.24h0Z"/>
  <path class="cls-2" d="m215.83,48.38c.41,0,.75-.29.75-.66s-.33-.66-.75-.66-.75.3-.75.66.34.66.75.66h0Z"/>
  <path class="cls-2" d="m212.31,24.22s-.35.59-.35.7c0,.22.16.39.36.39s.35-.18.35-.39c0-.01-.36-.7-.36-.7h0Z"/>
  <path class="cls-2" d="m188.35,24.22s-.35.59-.35.7c0,.22.16.39.36.39s.36-.18.36-.39c0-.01-.36-.7-.36-.7h0Z"/>
  <path class="cls-2" d="m194.34,24.22s-.35.59-.35.7c0,.22.16.39.36.39s.36-.18.36-.39c0-.01-.36-.7-.36-.7h0Z"/>
  <path class="cls-2" d="m200.33,24.22s-.35.59-.35.7c0,.22.16.39.36.39s.36-.18.36-.39c0-.01-.36-.7-.36-.7h0Z"/>
  <path class="cls-2" d="m206.32,24.22s-.35.59-.35.7c0,.22.16.39.36.39s.36-.18.36-.39c0-.01-.36-.7-.36-.7h0Z"/>
  <path class="cls-2" d="m188.36,32.44s.35.59.35.7c0,.22-.16.39-.36.39s-.36-.17-.36-.39c0-.01.36-.7.36-.7h0Z"/>
  <path class="cls-2" d="m188.36,40.43s.35.59.35.7c0,.22-.16.39-.36.39s-.36-.17-.36-.39c0-.01.36-.7.36-.7h0Z"/>
  <path class="cls-2" d="m189.32,46.75s.35.59.35.7c0,.21-.16.39-.36.39s-.36-.18-.36-.39c0-.01.36-.7.36-.7h0Z"/>
  <path class="cls-2" d="m194.35,50.12s.35.59.35.7c0,.22-.16.39-.36.39s-.36-.17-.36-.39c0-.01.36-.7.36-.7h0Z"/>
  <path class="cls-2" d="m212.61,32.44s-.35.59-.35.7c0,.22.16.39.36.39s.36-.17.36-.39c0-.01-.36-.7-.36-.7h0Z"/>
  <path class="cls-2" d="m212.61,40.43s-.35.59-.35.7c0,.22.16.39.36.39s.36-.17.36-.39c0-.01-.36-.7-.36-.7h0Z"/>
  <path class="cls-2" d="m211.66,46.75s-.35.59-.35.7c0,.21.16.39.36.39s.36-.18.36-.39c0-.01-.36-.7-.36-.7h0Z"/>
  <path class="cls-2" d="m206.63,50.12s-.35.59-.35.7c0,.22.16.39.36.39s.36-.17.36-.39c0-.01-.36-.7-.36-.7h0Z"/>
  <path class="cls-2" d="m200.52,53.68s-.35.59-.35.7c0,.22.16.39.36.39s.36-.18.36-.39c0-.01-.36-.7-.36-.7h0Z"/>
  <path class="cls-2" d="m210.26,41.76c.07.11.26.15.5.07l.23-.64s-.26-.3-.43-.26c-.64.15-1.32.23-1.7.84,0,.42.3.8.6.99.23-.08.26.15.41.27.04.19-.07.34-.26.34-.45-.46-1.24.15-1.58-.42.15-.57.45-1.21-.04-1.75.04-.11.23-.23.11-.34-.19-.53-.75-.11-1.09-.11-.57-.08-1.02.23-1.36.68.04.19.11.38.3.57.15-.04.23,0,.26.15l-.38.23c.11.11.11.27.15.42-.26.11-.53-.26-.64-.46,0-.3.04-.84-.38-.91-.08,0-.33.11-.33.11-.09.12-.15.35-.15.63s.15.68.15.68c0,0,1.16.86,1.43,1.39-.34.68-.34,1.63-1.13,2.01-.23.15-.23.38-.23.61l.19.15c.49-.27,1.43-.34,1.36-1.18.19-.34.38-.72.72-.99.38-.08.72.11.87.42-.11.57-.49.95-1.02,1.14-.07.08-.04.19-.04.3.15.27.56.15.79.11.64-.42.91-1.18,1.47-1.4.08.38-.75.49-.23.87.34-.08.79.04,1.02-.42-.26-.64.9-.95.19-1.52,0-.57.6-.8.57-1.4-.23-.61-.94-.61-1.13-1.18.23-.15.57-.11.79,0h0Z"/>
  <path class="cls-2" d="m182.74,48.67c.41,0,.75-.3.75-.66s-.33-.66-.75-.66-.75.29-.75.66.33.66.75.66h0Z"/>
  <path class="cls-2" d="m143.89,71.36c.41,0,.74-.32.74-.71s-.33-.71-.74-.71-.74.32-.74.71.33.71.74.71h0Z"/>
  <path class="cls-2" d="m168.61,76.87h-.05l-.05-.06h0v.04s0,.02.02.02h0s-.08,0-.08,0h0s.02,0,.02-.02v-.09s0-.02-.02-.02h0s.07,0,.07,0c.02,0,.07,0,.07.04,0,.02-.02.03-.04.03l.05.06s0,0,0,0h0Zm-.1-.07s.04,0,.04-.03c0-.02-.01-.03-.03-.03-.01,0-.01,0-.01,0v.05h0Z"/>
  <path class="cls-2" d="m168.72,76.78s-.02-.04-.05-.04c-.01,0-.03,0-.03.02,0,.01,0,.02.02.02h.03s.03.03.03.05c0,.02-.01.04-.06.04-.02,0-.03,0-.04,0,0,0,0,0,0,0h0v-.05h0s.02.04.05.04c.03,0,.03-.02.03-.02,0-.01-.01-.02-.03-.02h-.02s-.04-.04-.04-.05c0-.01,0-.04.05-.04.02,0,.03,0,.04,0,0,0,0,0,0,0h0v.04h0Z"/>
  <path class="cls-2" d="m168.97,76.74s-.01,0-.02.01l-.05.12h0l-.04-.09h0l-.04.09h0l-.05-.12s0-.01-.02-.01h0s.07,0,.07,0h0s-.01,0-.01.01c0,0,0,0,0,0l.03.07h0l.03-.06v-.02s-.01,0-.03,0h0s.07,0,.07,0h0s-.02,0-.02.01c0,0,0,0,0,.01l.02.07h0l.03-.07s0,0,0,0c0,0,0,0-.02,0h0s.04,0,.04,0h0Z"/>
  <path class="cls-2" d="m168.97,76.87s.05-.01.06-.05c0,0,0,0-.01,0,0,0,0,0-.01,0-.02,0-.04,0-.04-.04,0-.01,0-.04.05-.04.02,0,.05.01.05.06,0,.04-.03.07-.1.08h0Zm.06-.06s.01,0,.01,0c0,0,0-.01,0-.02,0-.04,0-.05-.02-.05-.01,0-.01.01-.01.03,0,.03,0,.04.02.04h0Z"/>
  <path class="cls-2" d="m169.11,76.78s.04,0,.05,0c.01,0,.03.02.03.04,0,.03-.03.05-.07.05-.02,0-.03,0-.03-.02,0,0,0-.01.01-.01.02,0,.03.02.04.02,0,0,.02,0,.02-.02,0-.01-.01-.02-.03-.03-.02,0-.03,0-.05,0l.02-.07h.07v.02h-.07v.02h0Z"/>
  <path class="cls-2" d="m214.3,23.27v-.02h-27.64v.02h0l.02,21.12c0,2.15.91,4.04,2.17,4.62l10.63,6.75c.24.27.58.44.97.44.33,0,.64-.13.86-.34l10.8-6.85c1.26-.58,2.17-2.46,2.17-4.62l.02-21.12h0Zm-.78,21.41c-.14,1.6-.69,2.93-1.79,3.68l-10.42,6.63h-.06c-.22.18-.5.28-.8.28s-.59-.11-.82-.29l-10.4-6.61c-1.1-.75-1.65-2.08-1.79-3.68v-20.67h26.09v20.67h0Z"/>
  <path class="cls-2" d="m204.2,54.06l.33-.16c-.14.05-.24.1-.33.16h0Z"/>
  <path class="cls-2" d="m183.35,82.93l-2.6.3-.02-.17c.49-.09.64-.11.61-.34-.02-.18-.34-.65-.47-.85l-1.81.21c-.17.51-.27.8-.25.91.03.26.42.23.69.21l.02.17-1.63.19-.02-.17c.43-.1.51-.35.7-.88l1.36-3.9.23-.03,2.2,3.34c.45.68.6.89.98.84l.02.17h0Zm-2.63-1.31l-1-1.54-.57,1.73,1.57-.18h0Z"/>
  <path class="cls-2" d="m229.13,73.03c-.48-1.24-1.47-2.08-2.7-2.48-1.27-.28-2.62-.08-3.45.88-1.43,1.16-.44,3.08-.4,4.63,0,.32.04.56-.28.72-5.75-.52-11.11-1.96-16.82-2.56-1.31-.23-2.63-.17-3.88-.43l-1.6-.17c-4.96.16-9.92.44-14.56,1.64-.99.32-2.1.4-3.09.76-.71-.12-1.31.4-1.98.2l-1.31.31c-.12.02-.27.01-.44-.03-.63-1.64,1.27-2.64.67-4.23-.52-.92-1.55-1.8-2.74-1.64-1.35-.16-2.54.6-3.17,1.64-.91,2,.24,4.07.6,6.03-.08.64.64,1.36,0,1.88-1.27-.88-2.94-1.36-4.48-.92-.48.24-1.35-.08-1.59.48,1.71.92,3.89.8,5.79.72.24-.08.4-.12.6.04.16,1.04-.2,2.44.44,3.36.71.96,1.9,1.2,3.05,1.32,3.65-.12,6.9-1.2,10.23-2.04.52-.04.91-.32,1.47-.32,1.78-.4,3.73-.72,5.63-.76-.83,1.08-1.31,2.28-1.67,3.6-.48,1.08.83,1.24,1.23,1.84-1.23.36-2.1,1.2-3.25,1.68-2.54-.08-4.68.88-7.06,1.16-.04.52.83.36.91.88-.12.36-.48.4-.75.6-.04.24,0,.28.24.32.24-.28.75-.08.99-.36.79,0,1.47-.24,2.22-.28.67-.28,1.43-.32,2.02-.8.83-.24,1.35-.8,2.18-1.04,1.19,0,2.26-.4,3.37-.48v.24c-.91,1.48-1.86,3-2.82,4.39-.16.28.04.56.28.64.55.16,1.11,0,1.55-.24.83-1.44,1.59-2.8,2.26-4.27.28-1.36,1.27-2.08,2.26-3,.16-.08.4-.32.55-.08-.79.92-1.31,1.8-1.9,2.8-.32,1.12-.4,2.56.6,3.48.48.4,1.19.28,1.82.32,1.55-.8,3.53.48,4.72-1.04.71-.12.83.72,1.23,1.12.68.2,1.39.88,2.06.4-.04-.44-.52-.84-.75-1.24-.48-.84-1.07-1.52-1.51-2.28-.2-.56-.56-.92-.64-1.48.72.24,1.35.72,2.14.84.67.28,1.51.24,2.14.64.52.68,1.31,1.08,1.98,1.52.99.48,2.1.56,3.13.96.4.04.99.36,1.27,0-.16-.2-.36-.32-.59-.44-.12-.52.71-.24.99-.64-.1-.2-.27-.28-.46-.3-.57-.3-1.98-.41-2.36-.62-.48-.08-.91-.28-1.39-.44-2.38,0-3.69-2.16-5.59-2.96.44-.4,1.11-.72,1.39-1.32.36-.56.48-1.48.12-2.12-.36-1.24-1.94-1.08-2.86-1.76l.12-.12c1.55-.08,2.9.28,4.28.56,3.81.52,7.34,1.96,11.31,2.04,2.18,0,4.92.12,5.99-2,.2-1.24.44-2.48.64-3.72.48-2,1.78-3.84,1.59-6.03h0Zm-42.84,18.22l-.55-.52c.28-.36.87-.16,1.31-.4,1.03-.32,2.22-.72,3.37-.48-1.19.96-2.74,1.08-4.12,1.4h0Zm24.76-.64c.95.43,2.86.85,4.23,1-.12.54-1.09.03-.98.8-1.23-.48-2.66-.72-3.57-1.68.08-.04.16-.16.32-.12h0Zm-37.22-16.98c.12-.72.28-1.48.95-2,.95-.52,2.26-.4,3.13.12.28.16.48.4.64.76.2.68-.12,1.4-.6,1.8h-.4c0-.64,0-1.28.24-1.8-.04-.48-.44-.52-.75-.72-.67-.2-1.27.12-1.79.4-.4.48-.75,1.08-.51,1.76.28.44.04,1.04.2,1.52l-.12.16c-.47-.52-1.11-1.08-.99-2h0Zm1.86,1.14c.59.44,1.43.24,2.14.36.12.44.12,1-.2,1.36-.67-.16-1.55-.08-1.9-.72.08-.28-.12-.68-.04-1h0Zm-.12-1.34c.12-.32,0-.8.44-.88.28-.08.71-.08.75.24-.04.48-.08.96-.2,1.4-.55.04-.83-.28-.99-.76h0Zm18.6,12.82c-.2-1.4.36-2.6,1.27-3.6.56-.12,1.19-.24,1.71.08-1.03.28-2.34.52-2.58,1.84.04.52-.12.8.12,1.24.44.76,1.43.44,1.98,1.04,0,.2-.16.44-.36.48-.67-.4-1.51-.56-2.14-1.08h0Zm-1.43,2.76c.95-.4,1.94-1.24,3.01-.88-.75.6-1.98.84-3.01.88h0Zm3.77.4c-.56,1.28-1.19,2.52-1.94,3.75-.08.2-.4.24-.63.28,0-.56.56-1,.79-1.48.83-1.08,1.07-2.24,2.02-3.28.24.24-.24.4-.24.72h0Zm.99-2.32v.16h-.08v-.2h.16s-.12,0-.16.04h.08Zm-.36-1.08c-.67-.08-1.31-.28-1.9-.48-.4-.4,0-.84,0-1.28.55-.88,2.14-1.32,2.9-.52-.12.88-.44,1.64-.99,2.28h0Zm.87,0c.12-.52.36-1.2.63-1.68-.04.52-.28,1.24-.63,1.68h0Zm.44-3.24c-.52-.12-.79-.72-1.35-.72.48-.16.95-.12,1.51-.04.2.28-.12.52-.16.76h0Zm.48,1.2h-.04v-.44h.04v.44h0Zm.04,1.84c-.04-.16.08-.36.12-.56.2-.2.4.16.48.28-.12.2-.36.32-.6.28h0Zm.6-2.48c.2-.56.24-1.04.59-1.48.4,0,.75,0,1.07.16.08.8,1.07,1.88,0,2.56-.36.16-.87.52-1.27.16-.52-.44-.6-.84-.4-1.4h0Zm2.89-1.12c-.08-.36.36-.08.52-.24l1.23.08c-.63-.08-1.43,1.4-1.74.16h0Zm1.98.52c-.48.16-.83.72-1.31.84.24-.44.83-.88,1.31-.84h0Zm-1.67,2.48v.12h-.04v-.12h.04Zm.08,2.44c-.04.08.04.2-.08.28l-.91-.72c.44-.08.75.12.99.44h0Zm-1.07-1.24c.08-.08.28-.08.36,0h-.36Zm-.56-.6c.16-.24.36-.6.63-.6,0,.04.04.08.08.12-.24.2-.44.4-.71.48h0Zm-.91-.08h-.16l.24-.24c.12.08-.04.16-.08.24h0Zm.12,1.52c.52-.56.99.32,1.19.76.6.88,2.14,1.68,1.55,2.88-.75.68-1.94.04-2.78.56-.44-.04-1.19.08-1.43-.36.44-1.28.83-2.72,1.47-3.84h0Zm-1.11.76l.2-.32c-.32.96-.79,1.96-1.31,2.88-.24-.96.75-1.72,1.11-2.56h0Zm1.75,4.75c-.75.04-1.9.48-2.62-.16.04-.32-.32-.48-.28-.8.63-.24,1.19.52,1.78-.04.91.04,1.86-.12,2.78.08.44.12,1.11-.72,1.19.12-.32,1.32-1.9.4-2.85.8h0Zm2.3-5.75v-.12h.08v.12h-.08Zm.24,2.52c.04.4.44.56.2.92-.08-.16-.32-.52-.2-.92h0Zm1.11,2.4l-.2.08c-.2-.16-.12-.6-.08-.84.24.2.44.48.28.76h0Zm1.98.96c-.04.12-.24.12-.32.04-1.19-1.52-1.74-3.12-2.5-4.79l.16-.04c.95,1.56,1.71,3.28,2.66,4.79h0Zm1.47-3.68c-.08.04-.08.12-.08.16-1.15.04-1.9-.64-2.78-1.24l-.04-.2c1.07.08,1.94.76,2.9,1.28h0Zm-1.03-5.31c.48.12.52.64.55,1.04-.04.88-.52,1.64-1.35,1.96-.44.24-1.11.32-1.55.16.95-.04,1.98-.4,2.38-1.36l-.04-1.8h0Zm-.87-.16c.2.56.55,1.08.36,1.76-.4.76-1.19.76-1.9.92-.36.04-.63-.08-.91-.28.04-.16-.04-.28-.16-.4.12-.52-.91-1.04-.2-1.48.63-.6,2.14-1.96,2.82-.52h0Zm20.15-2.92c-.32.4-.04,1.04-.44,1.4,0,.72-.6,1.08-1.11,1.36-4.72,1.04-9.36-.56-13.92-1.36-6.39-1.4-13.84-1.8-20.35-.32-3.05.56-6.03,1.28-8.96,2.12-1.83.24-3.81.52-5.55-.04-1.43-.68-.83-2.52-1.27-3.8.08-1-.28-1.8-.32-2.76-.12-.32-.2-.72-.16-1.04.59.08,1.19.52,1.82.68,3.33.64,6.31-.44,9.4-1,2.97-.64,6.03-1.16,9.16-1.4,3.57-.04,7.22-.24,10.63.36,1.11.04,2.06.32,3.13.4,2.22.28,4.28.88,6.55,1.04.36.12.79.12,1.19.2,3.57.56,7.57,1.56,10.99,0,0,1.44-.6,2.76-.79,4.15h0Zm-1.11-4.87c.04.64-.56.48-.87.72h-.95c-.2-.32-.12-.8-.12-1.12.63.12,1.35.12,1.94.4h0Zm-.44-1c.44-.44-.12-2.96,1.11-1.32,0,.32.04.8-.28,1.04-.2.16-.52.48-.83.28h0Zm3.21-.4c-.36.72-.91,1.24-1.71,1.36.04-.96.91-1.64.6-2.72-.52-.76-1.55-1-2.5-.8-.36.24-.2.64-.32,1l-.16,1.32c-.8,0-.83-.72-1.07-1.28.04-.84.4-1.68,1.23-2.08.63-.32,1.66-.28,2.3.08.52.12,1.11.36,1.31.84.6.56.44,1.56.32,2.28h0Z"/>
  <line class="cls-4" x1=".37" y1="137.43" x2="400.71" y2="137.43"/>
  <path class="cls-3" d="m0,164.92v-.43h.53c.46,0,.81-.07,1.05-.21.25-.15.43-.35.55-.6.07-.16.11-.66.11-1.48v-10.45c0-.81-.04-1.32-.13-1.52-.09-.2-.26-.38-.53-.53-.26-.16-.61-.23-1.05-.23h-.53v-.43h7.11c1.9,0,3.43.26,4.58.77,1.41.63,2.48,1.59,3.21,2.87.73,1.28,1.1,2.73,1.1,4.35,0,1.12-.18,2.15-.54,3.09-.36.94-.82,1.72-1.39,2.33-.57.61-1.23,1.1-1.98,1.48-.74.37-1.65.65-2.73.86-.48.09-1.23.14-2.25.14H0Zm6.06-14.99v12.4c0,.66.03,1.06.09,1.21.06.15.17.26.32.34.21.12.52.18.91.18,1.3,0,2.3-.45,2.99-1.34.94-1.2,1.41-3.07,1.41-5.6,0-2.04-.32-3.67-.96-4.89-.51-.95-1.16-1.6-1.96-1.95-.56-.24-1.5-.36-2.8-.35h0Z"/>
  <path class="cls-3" d="m26.51,159.05h-6.01c.07,1.45.46,2.6,1.16,3.45.54.65,1.19.97,1.94.97.47,0,.89-.13,1.28-.39.38-.27.79-.74,1.23-1.42l.4.26c-.59,1.21-1.25,2.07-1.97,2.58-.72.5-1.55.75-2.5.75-1.62,0-2.86-.62-3.69-1.87-.67-1.01-1.01-2.26-1.01-3.75,0-1.83.49-3.28,1.48-4.36.99-1.09,2.15-1.63,3.48-1.63,1.11,0,2.07.46,2.88,1.37.82.91,1.26,2.25,1.32,4.04h0Zm-2.88-.79c0-1.26-.07-2.12-.21-2.59-.13-.47-.34-.82-.63-1.07-.16-.14-.38-.21-.66-.21-.41,0-.74.2-1,.6-.46.7-.69,1.65-.69,2.86v.41h3.19Z"/>
  <path class="cls-3" d="m31.64,163.81v4.08c0,.56.04.95.13,1.15.09.2.23.35.42.45.19.09.55.14,1.1.14v.43h-6.25v-.43c.48-.02.84-.15,1.08-.41.16-.18.23-.64.23-1.39v-11.57c0-.77-.09-1.27-.27-1.48-.18-.22-.53-.34-1.04-.38v-.43h4.59v1.44c.38-.56.77-.97,1.17-1.22.57-.37,1.19-.55,1.86-.55.8,0,1.53.25,2.19.76.66.51,1.17,1.21,1.51,2.11.34.89.52,1.85.52,2.88,0,1.11-.18,2.13-.54,3.05-.35.91-.87,1.61-1.55,2.1-.67.48-1.42.71-2.25.71-.6,0-1.16-.13-1.69-.4-.39-.2-.8-.55-1.23-1.04h0Zm0-1.18c.67.95,1.39,1.43,2.16,1.43.42,0,.77-.22,1.04-.67.41-.66.61-1.91.61-3.75,0-1.89-.22-3.18-.67-3.88-.3-.46-.7-.69-1.2-.69-.79,0-1.44.57-1.95,1.71v5.85h0Z"/>
  <path class="cls-3" d="m46.31,163.3c-1.34,1.18-2.54,1.77-3.6,1.77-.63,0-1.14-.2-1.56-.61-.41-.41-.62-.93-.62-1.55,0-.84.36-1.59,1.08-2.25.72-.67,2.28-1.56,4.7-2.67v-1.1c0-.83-.05-1.35-.14-1.56-.09-.22-.25-.41-.5-.56-.25-.16-.53-.25-.84-.25-.51,0-.93.11-1.25.34-.2.14-.3.3-.3.49,0,.16.11.37.33.61.3.34.44.66.45.97,0,.38-.14.71-.43.98-.28.27-.65.4-1.11.4-.49,0-.91-.15-1.24-.45-.33-.3-.49-.64-.49-1.04,0-.56.22-1.1.67-1.61.45-.52,1.07-.91,1.86-1.18.8-.27,1.62-.41,2.48-.41,1.04,0,1.86.22,2.46.67.61.44,1,.91,1.18,1.43.11.33.16,1.08.16,2.26v4.25c0,.5.02.82.06.95.04.13.1.22.18.28.08.06.17.09.27.09.2,0,.41-.14.62-.43l.35.28c-.39.58-.8,1-1.22,1.27-.41.26-.89.39-1.42.39-.63,0-1.11-.14-1.46-.43-.35-.3-.57-.74-.64-1.34h0Zm0-.86v-3.67c-.95.55-1.65,1.15-2.11,1.78-.3.42-.46.85-.46,1.28,0,.36.13.68.39.95.2.21.47.32.82.32.39,0,.84-.22,1.36-.66h0Z"/>
  <path class="cls-2" d="m56.09,153.96v2.48c.73-1.13,1.36-1.88,1.91-2.25.55-.37,1.07-.56,1.58-.56.44,0,.78.14,1.04.41.27.27.4.64.4,1.14,0,.52-.13.93-.39,1.22-.25.29-.55.43-.91.43-.41,0-.77-.13-1.08-.4-.3-.27-.48-.41-.54-.45-.08-.05-.17-.07-.27-.07-.23,0-.44.09-.64.26-.32.27-.56.64-.73,1.14-.25.76-.37,1.59-.37,2.51v3.18c.01.45.04.73.09.86.09.21.23.37.41.47.19.09.5.15.94.18v.42h-5.92v-.42c.48-.04.8-.17.96-.39.17-.23.26-.82.26-1.77v-6.06c0-.62-.03-1.02-.09-1.2-.08-.22-.19-.38-.34-.48-.15-.1-.41-.17-.79-.21v-.43h4.48Z"/>
  <path class="cls-2" d="m66.55,149.95v4.01h2.6v1.16h-2.6v6.76c0,.63.03,1.04.08,1.23.06.18.17.33.32.45.15.11.28.16.41.16.51,0,.99-.39,1.44-1.16l.35.26c-.63,1.5-1.66,2.25-3.08,2.25-.7,0-1.29-.19-1.77-.57-.48-.39-.78-.82-.91-1.3-.08-.27-.12-.98-.12-2.16v-5.92h-1.43v-.41c.98-.7,1.82-1.43,2.51-2.19.69-.77,1.3-1.62,1.82-2.57h.39Z"/>
  <path class="cls-2" d="m74.74,153.96v1.44c.6-.66,1.16-1.11,1.66-1.37.52-.27,1.08-.4,1.69-.4.7,0,1.29.16,1.77.49.48.33.84.83,1.1,1.5.62-.7,1.22-1.21,1.79-1.52.58-.31,1.18-.47,1.8-.47.76,0,1.36.18,1.8.53.45.34.77.79.94,1.32.18.53.27,1.38.27,2.55v4.49c0,.84.07,1.37.22,1.57.16.2.48.34.96.4v.42h-5.66v-.42c.45-.04.77-.21.98-.52.14-.21.21-.7.21-1.45v-4.71c0-.98-.04-1.6-.12-1.86-.08-.27-.2-.46-.37-.59-.16-.13-.36-.2-.59-.2-.34,0-.68.13-1.02.37-.34.24-.69.61-1.04,1.1v5.88c0,.79.07,1.29.2,1.49.18.29.52.45,1.03.48v.42h-5.67v-.42c.3-.02.54-.09.71-.22.18-.14.3-.3.35-.49.06-.2.09-.61.09-1.25v-4.71c0-.99-.04-1.61-.12-1.86-.08-.25-.21-.45-.4-.59-.18-.14-.37-.21-.59-.21-.31,0-.6.08-.86.25-.37.24-.76.66-1.17,1.24v5.88c0,.77.07,1.29.22,1.53.16.24.48.39.96.43v.42h-5.65v-.42c.46-.05.79-.2.98-.45.13-.17.2-.68.2-1.52v-6.19c0-.83-.08-1.34-.23-1.55-.15-.2-.46-.34-.95-.4v-.43h4.46Z"/>
  <path class="cls-3" d="m98.74,159.05h-6.01c.07,1.45.46,2.6,1.16,3.45.54.65,1.19.97,1.95.97.47,0,.89-.13,1.28-.39.38-.27.79-.74,1.23-1.42l.4.26c-.59,1.21-1.25,2.07-1.97,2.58-.72.5-1.55.75-2.5.75-1.63,0-2.86-.62-3.69-1.87-.67-1.01-1.01-2.26-1.01-3.75,0-1.83.49-3.28,1.48-4.36.99-1.09,2.15-1.63,3.48-1.63,1.11,0,2.07.46,2.88,1.37.82.91,1.26,2.25,1.32,4.04h0Zm-2.88-.79c0-1.26-.07-2.12-.21-2.59-.13-.47-.34-.82-.63-1.07-.16-.14-.38-.21-.66-.21-.41,0-.74.2-1,.6-.46.7-.69,1.65-.69,2.86v.41h3.19Z"/>
  <path class="cls-2" d="m104.35,153.96v1.42c.56-.61,1.1-1.05,1.62-1.32.52-.28,1.07-.42,1.66-.42.71,0,1.3.2,1.77.6.47.39.78.88.94,1.46.12.45.19,1.3.19,2.57v4.27c0,.84.07,1.37.22,1.58.16.2.48.33.96.39v.42h-5.54v-.42c.41-.05.71-.23.89-.52.12-.2.19-.68.19-1.45v-4.87c0-.9-.03-1.46-.11-1.7-.07-.23-.19-.41-.36-.54-.16-.13-.35-.2-.55-.2-.67,0-1.3.48-1.87,1.44v5.87c0,.82.07,1.34.22,1.56.16.22.44.36.86.41v.42h-5.54v-.42c.46-.05.79-.2.98-.45.13-.17.2-.68.2-1.52v-6.19c0-.83-.08-1.34-.23-1.55-.15-.2-.47-.34-.95-.4v-.43h4.46Z"/>
  <path class="cls-2" d="m116.73,149.95v4.01h2.6v1.16h-2.6v6.76c0,.63.03,1.04.08,1.23.06.18.17.33.32.45.15.11.28.16.41.16.51,0,.99-.39,1.44-1.16l.35.26c-.63,1.5-1.66,2.25-3.08,2.25-.7,0-1.29-.19-1.77-.57-.48-.39-.78-.82-.91-1.3-.08-.27-.12-.98-.12-2.16v-5.92h-1.43v-.41c.98-.7,1.82-1.43,2.51-2.19.7-.77,1.3-1.62,1.82-2.57h.39Z"/>
  <path class="cls-3" d="m130.82,153.63c.95,0,1.84.25,2.66.74.82.49,1.44,1.19,1.86,2.1.43.91.64,1.9.64,2.98,0,1.55-.39,2.86-1.18,3.9-.95,1.27-2.27,1.9-3.95,1.9s-2.92-.58-3.81-1.73c-.89-1.16-1.34-2.5-1.34-4.02s.45-2.94,1.36-4.1c.91-1.17,2.16-1.76,3.75-1.76h0Zm.05.83c-.4,0-.74.15-1.03.46-.28.3-.47.89-.56,1.78-.09.88-.13,2.11-.13,3.69,0,.84.05,1.62.16,2.34.09.55.27.98.55,1.27.28.29.6.43.96.43s.64-.1.88-.29c.3-.27.51-.64.61-1.11.16-.74.23-2.24.23-4.5,0-1.33-.07-2.24-.22-2.73-.15-.5-.37-.86-.66-1.09-.2-.16-.47-.25-.8-.25h0Z"/>
  <path class="cls-2" d="m141.86,155.11v7.61c0,.73.08,1.2.23,1.38.25.29.71.42,1.38.4v.42h-6.46v-.42c.49,0,.84-.06,1.04-.16.21-.11.36-.26.43-.45.08-.19.12-.58.12-1.17v-7.61h-1.59v-1.15h1.59v-1.36c-.01-1.12.4-2.06,1.22-2.81.83-.75,1.94-1.12,3.35-1.12.96,0,1.67.18,2.13.54.47.36.7.76.7,1.2,0,.35-.14.66-.43.91-.29.26-.67.39-1.15.39-.41,0-.73-.11-.97-.32-.23-.21-.35-.45-.35-.7,0-.07.02-.21.07-.43.03-.13.05-.26.05-.37,0-.16-.05-.28-.14-.36-.13-.12-.28-.18-.46-.18-.23,0-.42.09-.57.28-.15.19-.22.49-.22.9l.02,2.05v1.39h1.62v1.15h-1.62Z"/>
  <path class="cls-2" d="m155.88,149.94v6.53h.46c.7,0,1.28-.11,1.72-.32.45-.21.82-.57,1.12-1.07.31-.5.52-1.18.61-2.03h.41v7.98h-.41c-.15-1.51-.55-2.5-1.22-2.98-.66-.48-1.4-.73-2.24-.73h-.46v4.86c0,.81.04,1.32.13,1.52.09.2.27.38.53.54.27.15.62.22,1.07.22h.53v.43h-8.31v-.43h.53c.46,0,.83-.08,1.11-.25.2-.11.36-.3.47-.56.09-.19.13-.68.13-1.48v-10.45c0-.81-.04-1.32-.13-1.52-.09-.2-.26-.38-.53-.53-.26-.16-.61-.23-1.05-.23h-.53v-.43h13.41v4.56h-.48c-.11-1.07-.39-1.86-.84-2.38-.45-.52-1.09-.88-1.95-1.09-.47-.12-1.34-.18-2.6-.18h-1.48Z"/>
  <path class="cls-3" d="m168.48,153.63c.95,0,1.84.25,2.66.74.82.49,1.44,1.19,1.86,2.1.43.91.64,1.9.64,2.98,0,1.55-.39,2.86-1.18,3.9-.95,1.27-2.27,1.9-3.95,1.9s-2.92-.58-3.81-1.73c-.89-1.16-1.34-2.5-1.34-4.02s.45-2.94,1.36-4.1c.91-1.17,2.16-1.76,3.75-1.76h0Zm.05.83c-.4,0-.74.15-1.03.46-.28.3-.47.89-.56,1.78-.09.88-.13,2.11-.13,3.69,0,.84.05,1.62.16,2.34.09.55.27.98.55,1.27.28.29.6.43.96.43s.64-.1.88-.29c.3-.27.51-.64.61-1.11.16-.74.23-2.24.23-4.5,0-1.33-.07-2.24-.22-2.73-.15-.5-.37-.86-.66-1.09-.2-.16-.47-.25-.8-.25h0Z"/>
  <path class="cls-2" d="m178.9,153.96v2.48c.73-1.13,1.36-1.88,1.91-2.25.55-.37,1.07-.56,1.58-.56.44,0,.78.14,1.04.41.27.27.4.64.4,1.14,0,.52-.13.93-.39,1.22-.25.29-.55.43-.91.43-.41,0-.77-.13-1.08-.4-.3-.27-.48-.41-.54-.45-.08-.05-.17-.07-.27-.07-.23,0-.44.09-.64.26-.32.27-.56.64-.73,1.14-.25.76-.37,1.59-.37,2.51v3.18c.01.45.04.73.09.86.09.21.23.37.41.47.19.09.5.15.94.18v.42h-5.92v-.42c.48-.04.8-.17.96-.39.17-.23.26-.82.26-1.77v-6.06c0-.62-.03-1.02-.09-1.2-.08-.22-.19-.38-.34-.48-.15-.1-.41-.17-.79-.21v-.43h4.48Z"/>
  <path class="cls-3" d="m193.08,159.05h-6.01c.07,1.45.46,2.6,1.16,3.45.54.65,1.19.97,1.95.97.47,0,.89-.13,1.28-.39.38-.27.79-.74,1.23-1.42l.4.26c-.59,1.21-1.25,2.07-1.97,2.58-.72.5-1.55.75-2.5.75-1.63,0-2.86-.62-3.69-1.87-.67-1.01-1.01-2.26-1.01-3.75,0-1.83.49-3.28,1.48-4.36.99-1.09,2.15-1.63,3.48-1.63,1.11,0,2.07.46,2.88,1.37.82.91,1.26,2.25,1.32,4.04h0Zm-2.88-.79c0-1.26-.07-2.12-.21-2.59-.13-.47-.34-.82-.63-1.07-.16-.14-.38-.21-.66-.21-.41,0-.74.2-1,.6-.46.7-.69,1.65-.69,2.86v.41h3.19Z"/>
  <path class="cls-3" d="m196.61,148.65c.51,0,.94.18,1.29.54.35.35.53.78.53,1.28s-.18.93-.54,1.28c-.35.35-.78.53-1.28.53s-.93-.18-1.28-.53c-.35-.35-.53-.78-.53-1.28s.18-.93.53-1.28c.35-.36.78-.54,1.28-.54h0Zm1.64,5.31v8.68c0,.77.09,1.27.27,1.49.18.21.53.33,1.05.36v.42h-5.92v-.42c.48-.02.84-.16,1.08-.42.16-.18.23-.66.23-1.43v-6.4c0-.77-.09-1.27-.27-1.48-.18-.22-.53-.34-1.04-.38v-.43h4.59Z"/>
  <path class="cls-3" d="m206.95,154.09h3.69v1.29h-2.1c.38.38.65.73.8,1.04.19.42.28.86.28,1.32,0,.78-.22,1.46-.66,2.04-.43.57-1.02,1.02-1.77,1.35-.74.32-1.4.48-1.98.48-.05,0-.52-.02-1.41-.06-.35,0-.65.12-.89.35-.23.23-.35.5-.35.82,0,.28.11.51.32.69.22.18.57.27,1.05.27l2.03-.02c1.64,0,2.77.18,3.39.54.88.5,1.32,1.27,1.32,2.31,0,.66-.2,1.27-.61,1.8-.41.55-.94.95-1.61,1.21-1.01.38-2.17.57-3.48.57-.98,0-1.88-.1-2.7-.29-.81-.19-1.39-.45-1.75-.8-.35-.34-.53-.69-.53-1.07s.13-.68.4-.97c.27-.28.78-.52,1.51-.71-1.02-.5-1.52-1.2-1.52-2.09,0-.54.21-1.06.62-1.57.41-.51,1.07-.95,1.97-1.32-1.05-.38-1.8-.89-2.27-1.51-.47-.62-.7-1.35-.7-2.17,0-1.07.44-2,1.31-2.78.87-.79,2-1.18,3.37-1.18.73,0,1.48.15,2.25.46h0Zm-2.03.27c-.45,0-.84.23-1.15.69-.31.45-.47,1.4-.47,2.84,0,1.16.15,1.96.46,2.4.31.43.68.64,1.1.64.47,0,.86-.21,1.17-.64.31-.43.47-1.27.47-2.51,0-1.4-.18-2.35-.53-2.86-.25-.37-.6-.56-1.05-.56h0Zm-.69,12.18c-.8,0-1.32.07-1.58.2-.45.24-.67.57-.67.98s.23.76.69,1.08c.46.33,1.33.49,2.6.49,1.09,0,1.94-.14,2.55-.43.62-.29.94-.7.94-1.22,0-.2-.06-.36-.18-.49-.21-.23-.53-.39-.96-.48-.42-.09-1.56-.13-3.4-.13h0Z"/>
  <path class="cls-2" d="m215.92,153.96v1.42c.56-.61,1.1-1.05,1.62-1.32.52-.28,1.07-.42,1.66-.42.71,0,1.3.2,1.77.6.47.39.78.88.94,1.46.12.45.19,1.3.19,2.57v4.27c0,.84.07,1.37.22,1.58.16.2.48.33.96.39v.42h-5.54v-.42c.41-.05.71-.23.89-.52.12-.2.19-.68.19-1.45v-4.87c0-.9-.04-1.46-.11-1.7-.07-.23-.19-.41-.36-.54-.16-.13-.35-.2-.55-.2-.67,0-1.3.48-1.87,1.44v5.87c0,.82.07,1.34.22,1.56.16.22.44.36.86.41v.42h-5.54v-.42c.46-.05.79-.2.98-.45.13-.17.2-.68.2-1.52v-6.19c0-.83-.08-1.34-.23-1.55-.15-.2-.47-.34-.95-.4v-.43h4.46Z"/>
  <path class="cls-3" d="m238.29,160.4h-5.61l-.67,1.55c-.22.52-.33.94-.33,1.28,0,.45.18.77.54.98.21.13.73.22,1.56.28v.43h-5.29v-.43c.57-.09,1.04-.32,1.41-.7.37-.39.82-1.19,1.36-2.4l5.68-12.68h.22l5.73,13.03c.55,1.23,1,2.01,1.35,2.33.27.24.64.38,1.12.42v.43h-7.69v-.43h.32c.62,0,1.05-.09,1.3-.26.17-.12.26-.3.26-.54,0-.14-.02-.28-.07-.43-.02-.07-.13-.36-.35-.88l-.84-1.98h0Zm-.4-.87l-2.37-5.47-2.44,5.47h4.8Z"/>
  <path class="cls-2" d="m250.05,155.11v7.61c0,.73.08,1.2.23,1.38.25.29.71.42,1.38.4v.42h-6.46v-.42c.49,0,.84-.06,1.04-.16.21-.11.36-.26.43-.45.08-.19.12-.58.12-1.17v-7.61h-1.59v-1.15h1.59v-1.36c-.01-1.12.4-2.06,1.22-2.81.83-.75,1.95-1.12,3.35-1.12.96,0,1.67.18,2.13.54.47.36.7.76.7,1.2,0,.35-.14.66-.43.91-.29.26-.67.39-1.15.39-.41,0-.73-.11-.97-.32-.23-.21-.35-.45-.35-.7,0-.07.02-.21.07-.43.03-.13.05-.26.05-.37,0-.16-.05-.28-.14-.36-.13-.12-.28-.18-.46-.18-.23,0-.42.09-.57.28-.15.19-.22.49-.22.9l.02,2.05v1.39h1.62v1.15h-1.62Z"/>
  <path class="cls-2" d="m258.04,155.11v7.61c0,.73.08,1.2.23,1.38.25.29.71.42,1.38.4v.42h-6.46v-.42c.49,0,.84-.06,1.04-.16.21-.11.36-.26.43-.45.08-.19.12-.58.12-1.17v-7.61h-1.59v-1.15h1.59v-1.36c-.01-1.12.4-2.06,1.22-2.81.83-.75,1.95-1.12,3.35-1.12.96,0,1.67.18,2.13.54.47.36.7.76.7,1.2,0,.35-.14.66-.43.91-.29.26-.67.39-1.15.39-.41,0-.73-.11-.97-.32-.23-.21-.35-.45-.35-.7,0-.07.02-.21.07-.43.03-.13.05-.26.05-.37,0-.16-.05-.28-.14-.36-.13-.12-.28-.18-.46-.18-.23,0-.42.09-.57.28-.15.19-.22.49-.22.9l.02,2.05v1.39h1.62v1.15h-1.62Z"/>
  <path class="cls-3" d="m267.27,163.3c-1.34,1.18-2.54,1.77-3.6,1.77-.63,0-1.14-.2-1.56-.61-.41-.41-.62-.93-.62-1.55,0-.84.36-1.59,1.08-2.25.72-.67,2.28-1.56,4.7-2.67v-1.1c0-.83-.05-1.35-.14-1.56-.09-.22-.25-.41-.5-.56-.25-.16-.53-.25-.84-.25-.51,0-.93.11-1.25.34-.2.14-.3.3-.3.49,0,.16.11.37.33.61.3.34.45.66.45.97,0,.38-.14.71-.43.98-.28.27-.65.4-1.11.4-.49,0-.91-.15-1.24-.45-.33-.3-.49-.64-.49-1.04,0-.56.22-1.1.67-1.61.45-.52,1.07-.91,1.86-1.18.8-.27,1.62-.41,2.48-.41,1.04,0,1.86.22,2.46.67.61.44,1,.91,1.18,1.43.11.33.16,1.08.16,2.26v4.25c0,.5.02.82.06.95.04.13.1.22.18.28.08.06.17.09.27.09.2,0,.41-.14.62-.43l.35.28c-.39.58-.8,1-1.22,1.27-.41.26-.89.39-1.42.39-.63,0-1.11-.14-1.46-.43-.35-.3-.57-.74-.64-1.34h0Zm0-.86v-3.67c-.95.55-1.65,1.15-2.11,1.78-.3.42-.46.85-.46,1.28,0,.36.13.68.39.95.2.21.47.32.82.32.39,0,.84-.22,1.36-.66h0Z"/>
  <path class="cls-3" d="m275.62,148.65c.51,0,.94.18,1.29.54.35.35.53.78.53,1.28s-.18.93-.54,1.28c-.35.35-.78.53-1.28.53s-.93-.18-1.28-.53c-.35-.35-.53-.78-.53-1.28s.18-.93.53-1.28c.35-.36.78-.54,1.28-.54h0Zm1.64,5.31v8.68c0,.77.09,1.27.27,1.49.18.21.53.33,1.05.36v.42h-5.92v-.42c.48-.02.84-.16,1.08-.42.16-.18.23-.66.23-1.43v-6.4c0-.77-.09-1.27-.27-1.48-.18-.22-.53-.34-1.04-.38v-.43h4.59Z"/>
  <path class="cls-2" d="m283.96,153.96v2.48c.73-1.13,1.36-1.88,1.91-2.25.55-.37,1.07-.56,1.58-.56.44,0,.78.14,1.04.41.27.27.4.64.4,1.14,0,.52-.13.93-.39,1.22-.25.29-.55.43-.91.43-.41,0-.77-.13-1.08-.4-.3-.27-.48-.41-.54-.45-.08-.05-.17-.07-.27-.07-.23,0-.44.09-.64.26-.32.27-.56.64-.73,1.14-.25.76-.38,1.59-.38,2.51v3.18c.01.45.04.73.09.86.09.21.23.37.41.47.19.09.5.15.94.18v.42h-5.92v-.42c.48-.04.8-.17.96-.39.17-.23.26-.82.26-1.77v-6.06c0-.62-.03-1.02-.09-1.2-.08-.22-.19-.38-.34-.48-.15-.1-.41-.17-.79-.21v-.43h4.48Z"/>
  <path class="cls-2" d="m296.51,153.66l.18,3.74h-.4c-.48-1.11-.97-1.87-1.49-2.27-.51-.41-1.02-.61-1.52-.61-.32,0-.59.11-.82.33-.23.21-.34.46-.34.74,0,.21.08.41.23.61.25.32.95.87,2.1,1.65,1.15.77,1.9,1.43,2.26,1.98.37.54.55,1.14.55,1.82,0,.61-.15,1.21-.46,1.79-.3.59-.73,1.04-1.29,1.35-.55.31-1.17.47-1.84.47-.52,0-1.22-.16-2.1-.49-.23-.09-.39-.13-.48-.13-.26,0-.47.2-.64.59h-.39l-.19-3.94h.4c.35,1.03.83,1.8,1.44,2.32.62.52,1.2.77,1.75.77.37,0,.68-.11.91-.34.24-.23.36-.52.36-.84,0-.37-.12-.7-.35-.97-.23-.27-.76-.69-1.57-1.24-1.2-.83-1.97-1.46-2.32-1.9-.52-.64-.77-1.35-.77-2.12,0-.84.29-1.61.87-2.29.59-.69,1.43-1.03,2.53-1.03.59,0,1.17.14,1.72.43.21.12.38.18.52.18.14,0,.25-.03.34-.08.09-.06.22-.23.41-.5h.4Z"/>
  <path class="cls-3" d="m309.29,163.3c-1.34,1.18-2.54,1.77-3.6,1.77-.63,0-1.14-.2-1.56-.61-.41-.41-.62-.93-.62-1.55,0-.84.36-1.59,1.08-2.25.72-.67,2.28-1.56,4.7-2.67v-1.1c0-.83-.05-1.35-.14-1.56-.09-.22-.25-.41-.5-.56-.25-.16-.53-.25-.84-.25-.51,0-.93.11-1.25.34-.2.14-.3.3-.3.49,0,.16.11.37.33.61.3.34.45.66.45.97,0,.38-.14.71-.43.98-.28.27-.65.4-1.11.4-.49,0-.91-.15-1.24-.45-.33-.3-.49-.64-.49-1.04,0-.56.22-1.1.67-1.61.45-.52,1.07-.91,1.86-1.18.8-.27,1.62-.41,2.48-.41,1.04,0,1.86.22,2.46.67.61.44,1,.91,1.18,1.43.11.33.16,1.08.16,2.26v4.25c0,.5.02.82.06.95.04.13.1.22.18.28.08.06.17.09.27.09.2,0,.41-.14.62-.43l.35.28c-.39.58-.8,1-1.22,1.27-.41.26-.89.39-1.42.39-.62,0-1.11-.14-1.46-.43-.35-.3-.57-.74-.64-1.34h0Zm0-.86v-3.67c-.95.55-1.65,1.15-2.11,1.78-.3.42-.46.85-.46,1.28,0,.36.13.68.39.95.2.21.47.32.82.32.39,0,.84-.22,1.36-.66h0Z"/>
  <path class="cls-2" d="m319,153.96v1.42c.56-.61,1.1-1.05,1.62-1.32.52-.28,1.07-.42,1.66-.42.71,0,1.3.2,1.77.6.47.39.78.88.94,1.46.12.45.19,1.3.19,2.57v4.27c0,.84.07,1.37.22,1.58.16.2.48.33.96.39v.42h-5.54v-.42c.41-.05.71-.23.89-.52.12-.2.19-.68.19-1.45v-4.87c0-.9-.04-1.46-.11-1.7-.07-.23-.19-.41-.36-.54-.16-.13-.35-.2-.55-.2-.67,0-1.3.48-1.87,1.44v5.87c0,.82.07,1.34.22,1.56.16.22.44.36.86.41v.42h-5.54v-.42c.46-.05.79-.2.98-.45.13-.17.2-.68.2-1.52v-6.19c0-.83-.08-1.34-.23-1.55-.15-.2-.47-.34-.95-.4v-.43h4.46Z"/>
  <path class="cls-3" d="m337.33,149.03v12.61c0,.85.02,1.36.07,1.51.06.26.18.45.35.57.18.13.49.2.93.23v.39l-4.63.9v-1.73c-.55.67-1.05,1.13-1.49,1.37-.43.24-.92.36-1.46.36-1.4,0-2.5-.62-3.32-1.87-.66-1.02-.98-2.26-.98-3.74,0-1.18.2-2.23.61-3.16.41-.94.96-1.64,1.66-2.12.71-.48,1.47-.71,2.29-.71.52,0,.99.1,1.39.3.41.2.84.56,1.3,1.07v-3.3c0-.84-.04-1.34-.11-1.51-.09-.23-.23-.39-.42-.5-.19-.11-.54-.16-1.05-.16v-.49h4.86Zm-3.28,7.43c-.58-1.11-1.29-1.66-2.12-1.66-.29,0-.53.08-.71.23-.29.24-.53.67-.71,1.28-.18.61-.27,1.54-.27,2.8,0,1.38.1,2.41.3,3.07.2.66.48,1.14.83,1.44.18.15.43.22.74.22.69,0,1.34-.54,1.95-1.62v-5.77h0Z"/>
  <path class="cls-2" d="m358.67,149.03v4.3h-.42c-.25-.99-.53-1.7-.83-2.13-.3-.44-.72-.78-1.25-1.04-.3-.14-.82-.21-1.56-.21h-1.18v12.26c0,.81.04,1.32.13,1.52.09.2.27.38.53.54.27.15.62.22,1.08.22h.53v.43h-8.32v-.43h.53c.46,0,.83-.08,1.11-.25.2-.11.36-.3.48-.56.09-.19.13-.68.13-1.48v-12.26h-1.15c-1.07,0-1.85.23-2.33.68-.68.63-1.11,1.54-1.29,2.71h-.45v-4.3h14.27Z"/>
  <path class="cls-2" d="m363.22,153.96v2.48c.73-1.13,1.36-1.88,1.91-2.25.55-.37,1.07-.56,1.58-.56.44,0,.78.14,1.04.41.27.27.4.64.4,1.14,0,.52-.13.93-.39,1.22-.25.29-.55.43-.91.43-.41,0-.77-.13-1.08-.4-.3-.27-.48-.41-.54-.45-.08-.05-.17-.07-.27-.07-.23,0-.44.09-.64.26-.32.27-.56.64-.73,1.14-.25.76-.37,1.59-.37,2.51v3.18c.01.45.04.73.09.86.09.21.23.37.41.47.19.09.5.15.94.18v.42h-5.92v-.42c.48-.04.8-.17.96-.39.17-.23.26-.82.26-1.77v-6.06c0-.62-.03-1.02-.09-1.2-.08-.22-.19-.38-.34-.48-.15-.1-.41-.17-.79-.21v-.43h4.48Z"/>
  <path class="cls-3" d="m374.17,163.3c-1.34,1.18-2.54,1.77-3.6,1.77-.63,0-1.14-.2-1.56-.61-.41-.41-.62-.93-.62-1.55,0-.84.36-1.59,1.08-2.25.72-.67,2.28-1.56,4.7-2.67v-1.1c0-.83-.05-1.35-.14-1.56-.09-.22-.25-.41-.5-.56-.25-.16-.53-.25-.84-.25-.51,0-.93.11-1.25.34-.2.14-.3.3-.3.49,0,.16.11.37.33.61.3.34.44.66.45.97,0,.38-.14.71-.43.98-.28.27-.65.4-1.11.4-.49,0-.91-.15-1.24-.45-.33-.3-.49-.64-.49-1.04,0-.56.22-1.1.67-1.61.45-.52,1.07-.91,1.86-1.18.8-.27,1.62-.41,2.48-.41,1.04,0,1.86.22,2.46.67.61.44,1,.91,1.18,1.43.11.33.16,1.08.16,2.26v4.25c0,.5.02.82.06.95.04.13.1.22.18.28.08.06.17.09.27.09.2,0,.41-.14.62-.43l.35.28c-.39.58-.8,1-1.22,1.27-.41.26-.89.39-1.42.39-.63,0-1.11-.14-1.46-.43-.35-.3-.57-.74-.64-1.34h0Zm0-.86v-3.67c-.95.55-1.65,1.15-2.11,1.78-.3.42-.46.85-.46,1.28,0,.36.13.68.39.95.19.21.47.32.82.32.39,0,.84-.22,1.36-.66h0Z"/>
  <path class="cls-3" d="m389.82,149.03v12.61c0,.85.02,1.36.07,1.51.06.26.18.45.35.57.18.13.49.2.93.23v.39l-4.63.9v-1.73c-.55.67-1.05,1.13-1.49,1.37-.43.24-.92.36-1.46.36-1.4,0-2.5-.62-3.32-1.87-.66-1.02-.98-2.26-.98-3.74,0-1.18.2-2.23.61-3.16.41-.94.96-1.64,1.66-2.12.71-.48,1.47-.71,2.29-.71.52,0,.99.1,1.39.3.41.2.84.56,1.3,1.07v-3.3c0-.84-.04-1.34-.11-1.51-.09-.23-.23-.39-.42-.5-.19-.11-.54-.16-1.05-.16v-.49h4.86Zm-3.28,7.43c-.58-1.11-1.29-1.66-2.12-1.66-.29,0-.53.08-.71.23-.29.24-.53.67-.71,1.28-.18.61-.27,1.54-.27,2.8,0,1.38.1,2.41.3,3.07.2.66.48,1.14.83,1.44.18.15.43.22.74.22.69,0,1.34-.54,1.95-1.62v-5.77h0Z"/>
  <path class="cls-3" d="m400.83,159.05h-6.01c.07,1.45.46,2.6,1.16,3.45.54.65,1.19.97,1.95.97.47,0,.89-.13,1.28-.39.38-.27.79-.74,1.23-1.42l.4.26c-.59,1.21-1.25,2.07-1.97,2.58-.72.5-1.55.75-2.5.75-1.63,0-2.86-.62-3.69-1.87-.67-1.01-1.01-2.26-1.01-3.75,0-1.83.49-3.28,1.48-4.36.99-1.09,2.15-1.63,3.48-1.63,1.11,0,2.07.46,2.88,1.37.82.91,1.26,2.25,1.32,4.04h0Zm-2.88-.79c0-1.26-.07-2.12-.21-2.59-.13-.47-.34-.82-.63-1.07-.16-.14-.38-.21-.66-.21-.41,0-.74.2-1,.6-.46.7-.69,1.65-.69,2.86v.41h3.19Z"/>
</svg>