<?xml version="1.0" encoding="UTF-8"?>
<svg id="Layer_5" data-name="Layer 5" xmlns="http://www.w3.org/2000/svg" viewBox="0 0 500 500">
  <defs>
    <style>
      .cls-1 {
        fill: #fc0053;
      }

      .cls-2 {
        fill: #313159;
      }
    </style>
  </defs>
  <path class="cls-1" d="m280.1,351.59c0,40.12-60.2,40.12-60.2,0s60.2-40.12,60.2,0"/>
  <path class="cls-1" d="m280.1,148.41c0-16.64-13.46-30.1-30.1-30.1s-30.1,13.46-30.1,30.1v90.3c0,16.64,13.46,30.1,30.1,30.1s30.1-13.46,30.1-30.1v-90.3Z"/>
  <path class="cls-2" d="m479.51,217.78l-1.65-2.03c-11.11-13.87-17.14-31.13-17.17-48.91v-42.65c-.09-36.04-21.58-68.58-54.7-82.78l-16.17-6.94h-.03c-15.14-5.97-32.28,1.18-38.68,16.14-6.44,14.96.24,32.33,14.99,39.18l16.17,6.94v-.03c10.99,4.73,18.14,15.52,18.22,27.48v42.68-.03c.06,29.98,9.79,59.17,27.78,83.16-17.99,23.99-27.72,53.17-27.78,83.16v42.68-.03c.03,12.05-7.14,22.96-18.22,27.69l-16.17,6.94c-7.55,2.97-13.61,8.91-16.73,16.4-3.15,7.53-3.12,15.99.09,23.46,3.23,7.47,9.32,13.34,16.9,16.26,7.61,2.91,16.05,2.62,23.43-.79l16.17-6.94h.03c33.13-14.2,54.62-46.74,54.7-82.78v-42.89c.03-17.78,6.06-35.04,17.17-48.91l1.65-2.12c15.08-18.81,15.08-45.59,0-64.4v.06Z"/>
  <path class="cls-2" d="m22.13,284.24c11.11,13.87,17.14,31.13,17.17,48.91v42.68-.03c.09,36.04,21.58,68.58,54.7,82.78l16.17,6.94h.03c15.14,5.97,32.28-1.18,38.68-16.14,6.44-14.96-.24-32.33-14.99-39.18l-16.17-6.94v.03c-10.99-4.73-18.14-15.52-18.22-27.48v-42.65c-.06-29.98-9.79-59.17-27.78-83.16,17.99-23.99,27.72-53.17,27.78-83.16v-42.65c-.03-12.05,7.14-22.96,18.22-27.69l16.17-6.94c7.55-2.97,13.61-8.91,16.73-16.4,3.15-7.53,3.12-15.99-.09-23.46-3.23-7.47-9.32-13.34-16.9-16.26-7.61-2.91-16.05-2.62-23.43.79l-16.17,6.94h-.03c-33.13,14.2-54.62,46.74-54.7,82.78v42.68c-.03,17.75-6.06,35.01-17.17,48.91l-1.65,2.12v-.03c-15.08,18.84-15.08,45.59,0,64.43l1.65,2.18Z"/>
</svg>