<?xml version="1.0" encoding="UTF-8"?>
<svg id="Layer_2" data-name="Layer 2" xmlns="http://www.w3.org/2000/svg" viewBox="0 0 1104.86 986.22">
  <defs>
    <style>
      .cls-1 {
        fill: #ee4055;
      }

      .cls-2 {
        fill: #fff;
      }

      .cls-3 {
        fill: #f0e75a;
      }

      .cls-4 {
        fill: #b5b5ff;
      }

      .cls-5 {
        fill: #075f5e;
      }

      .cls-6 {
        fill: #414141;
      }

      .cls-7 {
        fill: #068284;
      }

      .cls-8 {
        fill: #26b89a;
      }
    </style>
  </defs>
  <rect class="cls-2" x="10.07" y="545.42" width="1084.71" height="425.86" rx="29.11" ry="29.11"/>
  <g>
    <path class="cls-5" d="m656.2,716.03c0,15.48-7.62,29.78-20.48,41.31-5.9,5.29-12.9,10-20.79,13.97-13.3,6.7-29.09,11.32-46.29,13.12-5.28.55-10.7.84-16.22.84s-10.93-.29-16.21-.84c-49.62-5.19-87.56-33.84-87.56-68.4s37.95-63.2,87.56-68.4v14.18c-34.65,4.59-61.51,23.58-65.98,47.23-.43,2.29-.65,4.62-.65,6.98,0,26.82,28.64,49.19,66.63,54.22,5.24.69,10.66,1.06,16.21,1.06s10.97-.37,16.22-1.06c14.72-1.95,28.05-6.5,38.84-12.91,17.05-10.13,27.79-24.88,27.79-41.31,0-2.37-.22-4.69-.65-6.98-4.48-23.65-31.34-42.64-65.98-47.23v94.46c-5.24.69-10.66,1.06-16.22,1.06v-110.55c.36,0,.72,0,1.07,0,.45,0,.9,0,1.35.02.33,0,.65.01.99.02,0,0,.01,0,.02,0,4.36.12,8.63.46,12.79,1.01v-.21c49.61,5.19,87.56,33.84,87.56,68.4Z"/>
    <g>
      <path class="cls-5" d="m393.04,830.98l-1.61,4.29h-13.71c-6.35,0-11.02-1.94-14.03-5.81-2.99-3.87-4.5-8.66-4.5-14.36,0-6.48,1.78-11.37,5.36-14.65,3.58-3.28,7.99-4.91,13.24-4.91,7.78,0,12.86,3.2,15.25,9.93-1.96,0-3.08,0-4.62,0-2.72-4.22-7.1-5.6-10.71-5.6-4.26,0-7.53,1.35-9.78,4.02-2.25,2.67-3.38,6.41-3.38,11.21,0,5.54,1.22,9.56,3.65,12.07,2.44,2.5,5.47,3.76,9.1,3.76.18,0,.34,0,.52-.01h0s15.22.06,15.22.06Z"/>
      <path class="cls-5" d="m417.78,822.51l-1.81-4.4-2.02-4.92-.36-.89-6.62-16.79h-5.6l-10.19,26.38-3.53,9.14,3.93.08-.15,4.17,4.51-11.94h16.53l3.51,9.16,1.08,2.82h5.98l-5.25-12.8Zm-20.37-3.43l4.36-11.59c.92-2.48,1.63-4.99,2.14-7.51.49,1.78,1.43,4.51,2.81,8.17l4.13,10.93h-13.43Z"/>
      <path class="cls-5" d="m443.41,824.23c-.99-1.55-2.17-3.26-3.38-4.55-1.21-1.3-2.61-2.29-4.17-2.98,7.4-1.01,13.37-4.27,13.37-10.43,0-1.84-.35-3.46-1.06-4.87-.7-1.41-1.53-2.5-2.45-3.3-.94-.8-2.11-1.43-3.51-1.9-1.41-.47-3.76-.7-7.06-.7h-23.84s1.79,4.39,1.79,4.39h22.3c5.63,0,8.46,2.13,8.46,6.39,0,1.98-.83,3.28-2.31,4.5-1.49,1.23-3.99,1.84-7.51,1.84l-11.22-.03h-4.58l1.96,4.67,4.18-.03s4.79,0,5.53.19c.74.2,1.56.65,2.45,1.35.89.7,1.88,1.94,2.81,3.15.92,1.2,2.03,2.81,3.32,4.85l5.19,8.5h5.56l-5.83-11.03Z"/>
      <polygon class="cls-5" points="453.6 835.27 453.6 795.5 461.48 795.5 472.67 829.54 484.3 795.5 491.32 795.5 491.32 835.27 486.28 835.27 486.28 801.98 474.73 835.27 470.03 835.27 458.63 801.4 458.63 835.27 453.6 835.27"/>
      <rect class="cls-5" x="495.68" y="795.5" width="5.2" height="39.76"/>
      <path class="cls-5" d="m560.83,835.26v-39.77h13.62c2.59,0,4.89.18,6.91.54,2.02.36,3.96,1.28,5.82,2.76,1.86,1.48,3.37,3.6,4.54,6.36,1.17,2.76,1.75,6.09,1.75,9.99,0,5.98-1.41,10.83-4.23,14.54-2.82,3.71-7.55,5.57-14.18,5.57h-14.24Zm5.24-4.7h8.42c3.47,0,6.12-.51,7.96-1.54,1.84-1.02,3.25-2.74,4.21-5.13.96-2.4,1.44-5.34,1.44-8.83,0-2.44-.24-4.57-.72-6.4-.48-1.83-1.2-3.37-2.17-4.61-.96-1.25-2.19-2.2-3.67-2.87-1.49-.66-3.88-1-7.18-1h-8.3v30.38Z"/>
      <path class="cls-5" d="m603.03,830.55v-13.3h21.83v-4.72h-27.04v22.68h28.55v-4.66h-23.35Zm23.31-30.33v-4.67h-28.52v4.67h28.52Z"/>
      <rect class="cls-5" x="664.11" y="795.5" width="5.2" height="39.77"/>
      <path class="cls-5" d="m693.47,812.59v4.62h11.6v9.97h-.01v4.03h-10.65c-.28.01-.58.01-.86.01-4.02,0-7.43-1.23-10.25-3.69-2.83-2.46-4.24-6.46-4.24-11.99,0-4.93,1.26-8.76,3.76-11.51,2.5-2.75,6.06-4.12,10.65-4.12,4.84,0,9.3,1.88,11.31,5.57,2.14,0,2.9,0,5.41,0-2.22-6.64-8.5-9.99-16.75-9.99-6.38,0-11.28,1.92-14.67,5.74-3.4,3.82-5.1,8.71-5.1,14.64,0,2.95.48,5.69,1.47,8.24.97,2.54,2.31,4.71,4.01,6.47,1.72,1.78,3.79,3.1,6.26,3.98.8.29,1.63.52,2.5.71h22.23l.05-.04v-22.64h-16.72Z"/>
      <polygon class="cls-5" points="740.63 795.49 740.63 826.79 719.91 795.49 714.55 795.49 714.55 796.25 722.72 808.67 722.67 808.69 740.3 835.27 745.67 835.27 745.67 795.49 740.63 795.49"/>
      <path class="cls-5" d="m530.28,799.9c-.72.05-1.41.15-2.08.32.66-.15,1.35-.25,2.08-.32"/>
      <path class="cls-5" d="m531.94,830.93c-.17.01-.34.01-.52.01.14.01.27.01.41.01.23,0,.46,0,.68-.01h-.58"/>
      <path class="cls-5" d="m528.2,830.58c.67.16,1.36.27,2.08.32-.73-.06-1.42-.17-2.08-.32"/>
      <path class="cls-5" d="m533.16,835.27h-1.22v.03c.42,0,.82-.01,1.22-.03"/>
      <path class="cls-5" d="m534.47,835.15c-.19.03-.39.05-.59.07.2-.02.4-.02.59-.04v-.02"/>
      <path class="cls-5" d="m534.42,825.55h4.62c-.78,2.21-1.86,3.95-3.24,5.39-2.31,2.46-5.47,3.83-9.46,4.23,0,0-.39.02-.59.04-.24.02-.47.04-.72.05,0,0-1.91.02-2.23.01-5.76-.17-10.06-2.02-12.92-5.54l-.04-.05-.09-.11c-3.06-3.25-4.58-7.89-4.58-13.88,0-.11,0-.2,0-.3,0-.1,0-.2,0-.3,0-6.08,1.57-10.77,4.71-14.04,2.86-3.51,7.16-5.37,12.92-5.54.3-.01,1-.02,1-.02l1.22.04c.44.02,1.31.09,1.31.09,3.99.4,7.15,1.77,9.46,4.23,1.38,1.45,2.45,3.41,3.24,5.62h-4.62c-2.55-3.96-6.56-5.47-10.03-5.62h-1.09c-.13,0-.26,0-.39,0-.25,0-.5.02-.74.04-.72.05-1.41.15-2.08.32h-.01c-2.53.58-4.58,1.79-6.14,3.65-.23.27-.44.55-.64.85-.1.13-.19.27-.28.4-.04.06-.08.12-.12.19-.07.12-.15.24-.22.36-.05.07-.09.15-.14.24-.06.11-.12.23-.18.35-.05.1-.1.2-.15.31-.09.17-.17.35-.23.53-.07.18-.15.37-.22.56-.78,2.11-1.18,4.7-1.21,7.76.02,3.06.42,5.65,1.21,7.76.07.19.15.38.22.56.06.15.13.31.2.46.07.15.14.3.22.45.03.06.06.12.1.19.07.15.15.29.24.43l.09.14c.07.13.15.25.23.38.09.14.18.28.28.41.27.36.55.7.86,1.01,1.68,1.72,3.64,2.85,5.87,3.39h.01c.67.17,1.36.27,2.08.32.25.02.49.04.74.04.13,0,.26.01.39,0,.14.01.27.01.41.01.23,0,.46,0,.68-.01,3.47-.15,7.48-1.43,10.03-5.39Z"/>
      <path class="cls-5" d="m658.09,818.26c1.06,1.59,1.59,3.41,1.59,5.48s-.58,3.99-1.75,5.8c-1.16,1.81-2.84,3.22-5.02,4.23-.25.12-.51.23-.78.33l-.15.06c-.22.09-.43.17-.65.23-.17.06-.34.12-.52.16-1.64.47-3.41.71-5.33.71-5.33,0-8.06-1.26-10.8-3.66-2.02-1.77-3.35-3.52-3.96-6.11h5.32c.64,1.44,2.02,2.77,3.27,3.62.95.65,1.65.99,2.41,1.2.17.05.34.09.52.12h.01c.17.04.36.07.55.09.08.01.15.02.23.03.07.01.14.02.21.02.57.08,1.16.12,1.77.12.07,0,.14,0,.21.01,3.19.2,5.6-.64,7.19-1.91,1.59-1.27,2.39-2.82,2.39-4.66,0-.34-.04-.67-.12-.99-.14-.8-.46-1.52-.95-2.17-.7-.9-1.85-1.66-3.44-2.27-1.03-.41-3.3-1.03-6.81-1.88s-5.97-1.65-7.38-2.41c-1.83-.97-3.19-2.17-4.08-3.59-.49-.78-.85-1.62-1.07-2.51l-.02-.1c-.14-.66-.21-1.36-.21-2.1,0-.95.1-1.85.3-2.68v-.02c.28-.98.71-1.93,1.3-2.84.26-.41.55-.79.88-1.15h0c1-1.03,2.29-1.88,3.88-2.56,2.12-.91,4.5-1.35,7.16-1.35,1.14,0,2.27.05,3.37.16,3.41.34,6.51,1.22,8.35,2.82,2.09,1.83,3.33,4.14,3.75,6.94h-5.06c-.8-2.89-3.41-4.56-6.84-5.17h-.02c-1.01-.25-2.16-.36-3.44-.36-2.71,0-4.77.44-6.18,1.33-.95.55-1.63,1.26-2.04,2.15-.38.71-.57,1.48-.57,2.31,0,1.39.49,2.53,1.48,3.42.15.15.36.29.6.43l.12.07c.53.36,1.13.66,1.76.96,1.89.91,1.62.79,4,1.48,3.76,1.08,7.4,1.51,9.19,2.08.15.07.3.13.43.19,2.23,1.03,3.87,2.34,4.93,3.93Z"/>
    </g>
    <g>
      <path class="cls-5" d="m370.82,856.01h-9.32v13.23h-2.3v-26.98h11.63v2.68h-9.32v8.4h9.32v2.68Z"/>
      <path class="cls-5" d="m385.11,869.23h-2.22v-27.66h2.22v27.66Z"/>
      <path class="cls-5" d="m415.46,859.31c0,2.93-.86,5.41-2.57,7.42-1.71,2.01-3.83,3.02-6.36,3.02s-4.65-1-6.37-3.01c-1.72-2.01-2.58-4.48-2.58-7.43,0-2.76.79-5.16,2.37-7.19,1.74-2.24,3.93-3.36,6.58-3.36s4.83,1.11,6.56,3.34c1.58,2.03,2.37,4.43,2.37,7.21Zm-2.26.05c0-2.2-.64-4.09-1.93-5.68s-2.87-2.39-4.74-2.39-3.46.8-4.75,2.39c-1.29,1.59-1.93,3.49-1.93,5.68,0,1.42.29,2.74.87,3.97.6,1.27,1.41,2.24,2.44,2.93,1.03.68,2.15,1.02,3.37,1.02,2.6,0,4.53-1.3,5.78-3.9.6-1.25.9-2.59.9-4.03Z"/>
      <path class="cls-5" d="m452.53,849.28l-7.45,19.96h-.44l-5.43-14.29-5.5,14.29h-.43l-7.32-19.96h2.29l5.25,14.49,5.5-14.49h.41l5.47,14.49,5.36-14.49h2.3Z"/>
      <path class="cls-5" d="m500.4,859.31c0,2.93-.86,5.41-2.57,7.42-1.71,2.01-3.83,3.02-6.36,3.02s-4.65-1-6.37-3.01c-1.72-2.01-2.58-4.48-2.58-7.43,0-2.76.79-5.16,2.37-7.19,1.74-2.24,3.93-3.36,6.58-3.36s4.83,1.11,6.56,3.34c1.58,2.03,2.37,4.43,2.37,7.21Zm-2.26.05c0-2.2-.64-4.09-1.93-5.68s-2.87-2.39-4.74-2.39-3.46.8-4.75,2.39c-1.29,1.59-1.93,3.49-1.93,5.68,0,1.42.29,2.74.87,3.97.6,1.27,1.41,2.24,2.44,2.93,1.03.68,2.15,1.02,3.37,1.02,2.6,0,4.53-1.3,5.78-3.9.6-1.25.9-2.59.9-4.03Z"/>
      <path class="cls-5" d="m520.31,844.1c-.81-.4-1.5-.6-2.08-.6-.88,0-1.42.33-1.61.99-.07.27-.11.97-.11,2.1v2.69h3.58v2.22h-3.6v17.74h-2.22v-17.74h-2.26v-2.22h2.26v-3.12c0-1.16.07-2.02.2-2.57.21-.87.64-1.53,1.29-1.98.54-.37,1.19-.55,1.96-.55.72,0,1.58.17,2.58.51v2.53Z"/>
      <path class="cls-5" d="m573.57,864.54c-2.42,3.58-5.8,5.37-10.13,5.37-4.07,0-7.27-1.57-9.61-4.71-1.97-2.64-2.95-5.85-2.95-9.61,0-4.07,1.22-7.44,3.66-10.11,2.39-2.6,5.34-3.91,8.87-3.91,4.42,0,7.8,1.9,10.16,5.69l-1.83,1.63c-2.05-3.09-4.82-4.64-8.31-4.64-1.81,0-3.5.5-5.07,1.5-1.61,1.01-2.86,2.4-3.73,4.17-.88,1.76-1.32,3.73-1.32,5.91,0,3.37.99,6.14,2.97,8.31,1.95,2.14,4.38,3.2,7.29,3.2,3.25,0,5.97-1.47,8.16-4.42l1.83,1.61Z"/>
      <path class="cls-5" d="m594.42,849.44l-1.15,2.18c-.46-.23-.85-.35-1.17-.35-1.76,0-2.99,1.44-3.68,4.32-.27,1.14-.41,3.43-.41,6.89v6.74h-2.27v-19.96h2.27v2.93c1.33-2.3,2.82-3.45,4.45-3.45.61,0,1.26.23,1.95.68Z"/>
      <path class="cls-5" d="m621.9,859.46h-15.41c.04,2.23.64,4.09,1.8,5.58,1.22,1.56,2.77,2.34,4.66,2.34s3.38-.65,4.65-1.94c.58-.59,1.2-1.53,1.87-2.83l1.86,1.14c-1.16,2.63-2.76,4.4-4.81,5.32-1,.45-2.13.68-3.39.68-2.58,0-4.71-.99-6.4-2.97-1.69-1.98-2.53-4.47-2.53-7.47,0-2.53.67-4.79,2-6.77,1.69-2.52,3.96-3.78,6.8-3.78s5.26,1.29,7,3.87c1.24,1.83,1.87,4.11,1.89,6.82Zm-2.41-2.24c-.55-2.52-1.72-4.26-3.52-5.23-.93-.5-1.9-.75-2.92-.75-1.68,0-3.13.63-4.34,1.88-.88.91-1.55,2.28-2,4.1h12.78Z"/>
      <path class="cls-5" d="m651.84,869.23h-2.19v-3.43c-1.86,2.63-4.16,3.94-6.89,3.94-2.48,0-4.57-1.04-6.27-3.12-1.68-2.04-2.52-4.52-2.52-7.43s.86-5.33,2.58-7.37c1.72-2.04,3.81-3.06,6.28-3.06,2.83,0,5.1,1.39,6.82,4.18v-3.67h2.19v19.96Zm-2.05-9.87c0-2.28-.64-4.2-1.93-5.76-1.29-1.56-2.9-2.34-4.86-2.34-2.62,0-4.58,1.34-5.87,4.01-.62,1.27-.93,2.61-.93,4.03s.31,2.76.93,4.04c.62,1.28,1.45,2.27,2.49,2.98,1.04.71,2.16,1.07,3.36,1.07s2.35-.35,3.43-1.06c1.08-.71,1.91-1.66,2.49-2.87.58-1.21.87-2.57.87-4.08Z"/>
      <path class="cls-5" d="m673.2,851.5h-3.5v17.74h-2.24v-17.74h-3.01v-2.22h3.01v-7.41h2.24v7.41h3.5v2.22Z"/>
      <path class="cls-5" d="m687.79,843.18c0,.59-.18,1.08-.53,1.49-.36.41-.79.61-1.29.61s-.92-.21-1.27-.62-.53-.91-.53-1.48.17-1.08.53-1.5c.35-.41.78-.62,1.28-.62s.93.21,1.29.62c.36.41.53.91.53,1.5Zm-.68,26.06h-2.24v-19.96h2.24v19.96Z"/>
      <path class="cls-5" d="m717.45,859.31c0,2.93-.86,5.41-2.57,7.42-1.71,2.01-3.83,3.02-6.36,3.02s-4.65-1-6.37-3.01c-1.72-2.01-2.58-4.48-2.58-7.43,0-2.76.79-5.16,2.37-7.19,1.74-2.24,3.93-3.36,6.58-3.36s4.83,1.11,6.56,3.34c1.58,2.03,2.37,4.43,2.37,7.21Zm-2.26.05c0-2.2-.64-4.09-1.93-5.68s-2.87-2.39-4.74-2.39-3.46.8-4.75,2.39-1.93,3.49-1.93,5.68c0,1.42.29,2.74.87,3.97.6,1.27,1.41,2.24,2.44,2.93,1.03.68,2.15,1.02,3.37,1.02,2.6,0,4.53-1.3,5.78-3.9.6-1.25.9-2.59.9-4.03Z"/>
      <path class="cls-5" d="m745.24,869.23h-2.21v-9.51c0-2.25-.08-3.78-.25-4.6-.54-2.65-1.98-3.98-4.31-3.98-1.33,0-2.52.51-3.58,1.53-1.05,1.02-1.75,2.29-2.08,3.82-.21.96-.31,2.77-.31,5.42v7.31h-2.22v-19.96h2.22v3.58c1.75-2.73,3.9-4.09,6.43-4.09,1.25,0,2.38.37,3.38,1.11,1,.74,1.74,1.76,2.22,3.06.48,1.3.72,3.31.72,6.03v10.27Z"/>
    </g>
  </g>
  <g>
    <g>
      <path class="cls-4" d="m24.93,53.55c-2.72,0-4.95-.53-6.67-1.59-1.72-1.06-3-2.51-3.84-4.33-.84-1.83-1.3-3.91-1.39-6.24-.03-1.23-.04-2.54-.04-3.95s.01-2.75.04-4.04c.09-2.33.55-4.42,1.39-6.26.84-1.84,2.12-3.28,3.84-4.33,1.72-1.05,3.94-1.57,6.67-1.57,2.12,0,3.94.3,5.43.9,1.5.6,2.72,1.38,3.66,2.36.94.97,1.65,2.02,2.11,3.14.46,1.12.73,2.22.79,3.3.03.27-.05.49-.25.65-.2.17-.43.25-.7.25h-.9c-.24,0-.45-.07-.63-.2-.18-.13-.3-.38-.36-.74-.57-2.66-1.64-4.49-3.21-5.48s-3.55-1.48-5.95-1.48c-2.72,0-4.89.77-6.49,2.31-1.6,1.54-2.46,4-2.58,7.39-.09,2.45-.09,4.97,0,7.54.12,3.38.98,5.84,2.58,7.39,1.6,1.54,3.76,2.31,6.49,2.31,2.39,0,4.38-.49,5.95-1.48s2.64-2.81,3.21-5.48c.06-.36.18-.61.36-.74s.39-.2.63-.2h.9c.27,0,.5.08.7.25.19.16.28.38.25.65-.06,1.08-.32,2.18-.79,3.3-.46,1.12-1.17,2.17-2.11,3.14-.94.97-2.16,1.76-3.66,2.36-1.5.6-3.31.9-5.43.9Z"/>
      <path class="cls-4" d="m49.22,53.55c-1.44,0-2.76-.3-3.97-.9-1.21-.6-2.19-1.4-2.94-2.4-.75-1-1.12-2.13-1.12-3.39,0-2.04.82-3.67,2.47-4.89,1.65-1.23,3.79-2.02,6.42-2.38l7.09-.99v-1.57c0-1.59-.49-2.84-1.46-3.75s-2.52-1.37-4.65-1.37c-1.56,0-2.81.31-3.77.92-.96.61-1.62,1.41-1.98,2.4-.15.45-.43.67-.85.67h-.72c-.36,0-.61-.1-.76-.29-.15-.19-.22-.43-.22-.7,0-.42.16-.94.47-1.57.31-.63.8-1.25,1.46-1.86.66-.61,1.51-1.13,2.56-1.55,1.05-.42,2.32-.63,3.82-.63,1.77,0,3.22.24,4.38.72,1.15.48,2.05,1.1,2.69,1.86.64.76,1.1,1.61,1.37,2.54.27.93.4,1.84.4,2.74v14.95c0,.3-.09.54-.27.72s-.42.27-.72.27h-.76c-.3,0-.54-.09-.72-.27s-.27-.42-.27-.72v-2.11c-.36.54-.87,1.08-1.53,1.62-.66.54-1.5,1-2.54,1.37-1.03.37-2.33.56-3.88.56Zm.45-2.6c1.38,0,2.63-.3,3.77-.9,1.14-.6,2.04-1.52,2.72-2.76.67-1.24,1.01-2.81,1.01-4.69v-1.53l-5.79.81c-2.45.33-4.31.9-5.57,1.71-1.26.81-1.89,1.83-1.89,3.05,0,.99.28,1.8.85,2.42.57.63,1.29,1.1,2.18,1.41.88.31,1.79.47,2.72.47Z"/>
      <path class="cls-4" d="m67.99,53.1c-.3,0-.54-.09-.72-.27s-.27-.42-.27-.72v-21.33c0-.3.09-.55.27-.74.18-.19.42-.29.72-.29h.72c.3,0,.55.1.74.29.19.2.29.44.29.74v2.07c.54-1.05,1.32-1.83,2.33-2.33,1.02-.51,2.27-.76,3.77-.76h1.66c.3,0,.54.09.72.27s.27.42.27.72v.63c0,.3-.09.54-.27.72s-.42.27-.72.27h-1.93c-1.8,0-3.22.52-4.26,1.57-1.05,1.05-1.57,2.47-1.57,4.27v13.92c0,.3-.1.54-.29.72-.2.18-.44.27-.74.27h-.72Z"/>
      <path class="cls-4" d="m83.61,53.1c-.3,0-.54-.09-.72-.27s-.27-.42-.27-.72v-21.37c0-.3.09-.54.27-.72s.42-.27.72-.27h.76c.3,0,.54.09.72.27s.27.42.27.72v1.57c.75-.96,1.64-1.7,2.67-2.22,1.03-.52,2.28-.79,3.75-.79,3.35,0,5.75,1.41,7.18,4.22.69-1.29,1.7-2.31,3.03-3.08s2.87-1.15,4.6-1.15c1.59,0,3.02.37,4.29,1.1,1.27.73,2.27,1.82,3.01,3.25.73,1.44,1.1,3.23,1.1,5.39v13.07c0,.3-.09.54-.27.72-.18.18-.42.27-.72.27h-.76c-.3,0-.54-.09-.72-.27s-.27-.42-.27-.72v-12.62c0-1.98-.29-3.51-.85-4.6-.57-1.09-1.32-1.86-2.24-2.31-.93-.45-1.93-.67-3.01-.67-.9,0-1.81.22-2.74.67-.93.45-1.7,1.22-2.31,2.31-.61,1.09-.92,2.63-.92,4.6v12.62c0,.3-.09.54-.27.72s-.42.27-.72.27h-.76c-.3,0-.54-.09-.72-.27s-.27-.42-.27-.72v-12.62c0-1.98-.3-3.51-.9-4.6-.6-1.09-1.36-1.86-2.29-2.31-.93-.45-1.9-.67-2.92-.67-.9,0-1.81.22-2.74.67-.93.45-1.7,1.22-2.31,2.31-.61,1.09-.92,2.61-.92,4.56v12.66c0,.3-.09.54-.27.72s-.42.27-.72.27h-.76Z"/>
      <path class="cls-4" d="m122.54,24.95c-.3,0-.54-.09-.72-.27s-.27-.42-.27-.72v-1.71c0-.3.09-.55.27-.74.18-.19.42-.29.72-.29h1.71c.3,0,.55.1.74.29.19.2.29.44.29.74v1.71c0,.3-.1.54-.29.72s-.44.27-.74.27h-1.71Zm.49,28.15c-.3,0-.54-.09-.72-.27s-.27-.42-.27-.72v-21.37c0-.3.09-.54.27-.72s.42-.27.72-.27h.76c.3,0,.54.09.72.27s.27.42.27.72v21.37c0,.3-.09.54-.27.72s-.42.27-.72.27h-.76Z"/>
      <path class="cls-4" d="m140.9,53.55c-2.1,0-3.88-.41-5.34-1.23s-2.58-2.01-3.34-3.57c-.76-1.56-1.17-3.4-1.23-5.52-.03-.45-.04-1.05-.04-1.8s.01-1.35.04-1.8c.06-2.16.47-4,1.23-5.54.76-1.54,1.88-2.72,3.34-3.55s3.25-1.23,5.34-1.23c1.59,0,2.96.22,4.11.65,1.15.43,2.1,1,2.85,1.71.75.7,1.32,1.47,1.71,2.31.39.84.6,1.66.63,2.47.03.3-.06.54-.27.72-.21.18-.45.27-.72.27h-.63c-.3,0-.52-.07-.65-.2s-.28-.38-.43-.74c-.63-1.71-1.49-2.9-2.58-3.57s-2.43-1.01-4.02-1.01c-2.04,0-3.72.62-5.05,1.86-1.33,1.24-2.04,3.27-2.13,6.08-.06,1.05-.06,2.1,0,3.14.09,2.81.8,4.84,2.13,6.08,1.33,1.24,3.01,1.86,5.05,1.86,1.59,0,2.93-.34,4.02-1.01,1.09-.67,1.95-1.86,2.58-3.57.15-.36.29-.61.43-.74s.35-.2.65-.2h.63c.27,0,.51.09.72.27.21.18.3.42.27.72-.03.66-.17,1.32-.4,1.98-.24.66-.61,1.3-1.1,1.93s-1.1,1.18-1.82,1.66c-.72.48-1.58.86-2.58,1.15s-2.13.43-3.39.43Z"/>
      <path class="cls-4" d="m169.28,53.1c-.3,0-.54-.09-.72-.27-.18-.18-.27-.42-.27-.72v-29.41c0-.33.09-.58.27-.76.18-.18.42-.27.72-.27h9.56c3.17,0,5.66.46,7.45,1.39,1.8.93,3.08,2.3,3.84,4.11.76,1.81,1.16,4.02,1.19,6.62.03,1.35.04,2.54.04,3.57s-.02,2.22-.04,3.57c-.06,2.75-.46,5.03-1.21,6.82-.75,1.8-2.01,3.14-3.77,4.02-1.77.88-4.19,1.32-7.27,1.32h-9.79Zm1.84-2.69h7.72c2.39,0,4.29-.32,5.68-.97,1.39-.64,2.39-1.68,3.01-3.1.61-1.42.94-3.3.97-5.63.03-.9.04-1.68.04-2.36v-2c0-.66-.02-1.44-.04-2.33-.06-3.29-.82-5.72-2.29-7.3-1.47-1.57-4-2.36-7.59-2.36h-7.5v26.04Z"/>
      <path class="cls-4" d="m206.77,53.55c-2.9,0-5.21-.95-6.91-2.85s-2.68-4.39-2.92-7.48c-.03-.45-.04-1.05-.04-1.8s.01-1.35.04-1.8c.15-2.04.63-3.83,1.44-5.39.81-1.56,1.92-2.77,3.34-3.64,1.42-.87,3.11-1.3,5.05-1.3,2.09,0,3.88.46,5.34,1.39,1.47.93,2.6,2.26,3.39,4,.79,1.74,1.19,3.8,1.19,6.2v.67c0,.3-.1.54-.29.72-.2.18-.44.27-.74.27h-15.98v.45c.06,1.35.37,2.63.94,3.84.57,1.21,1.38,2.2,2.42,2.96,1.05.76,2.29,1.14,3.73,1.14,1.29,0,2.36-.19,3.21-.58.85-.39,1.53-.82,2.04-1.28.51-.46.84-.81.99-1.05.27-.39.48-.62.63-.7.15-.07.39-.11.72-.11h.72c.27,0,.5.08.7.25.19.17.28.38.25.65-.03.42-.26.94-.7,1.55-.43.61-1.05,1.22-1.84,1.82-.79.6-1.76,1.09-2.9,1.48s-2.41.58-3.82.58Zm-7.09-13.51h14.28v-.18c0-1.5-.28-2.84-.85-4.04-.57-1.2-1.39-2.15-2.47-2.85-1.08-.7-2.36-1.06-3.86-1.06s-2.78.35-3.84,1.06c-1.06.7-1.87,1.65-2.42,2.85-.55,1.2-.83,2.54-.83,4.04v.18Z"/>
      <path class="cls-4" d="m230.03,53.55c-1.56,0-2.9-.21-4.02-.63-1.12-.42-2.04-.92-2.76-1.5-.72-.58-1.25-1.16-1.59-1.73-.34-.57-.53-1-.56-1.3-.03-.33.07-.58.31-.74.24-.16.46-.25.67-.25h.67c.18,0,.34.03.47.09.13.06.31.22.52.49.39.51.84,1,1.35,1.46.51.46,1.16.83,1.95,1.1.79.27,1.79.4,2.99.4,1.8,0,3.28-.34,4.45-1.03,1.17-.69,1.75-1.71,1.75-3.05,0-.84-.23-1.51-.7-2.02-.46-.51-1.25-.96-2.36-1.35-1.11-.39-2.6-.79-4.49-1.21-1.89-.45-3.33-.99-4.33-1.62-1-.63-1.68-1.35-2.04-2.18-.36-.82-.54-1.71-.54-2.67,0-1.05.3-2.07.9-3.08.6-1,1.49-1.83,2.67-2.47,1.18-.64,2.67-.97,4.47-.97,1.47,0,2.72.19,3.75.58,1.03.39,1.88.86,2.54,1.41.66.55,1.14,1.1,1.46,1.64s.49.97.52,1.3c.03.3-.06.54-.27.72-.21.18-.45.27-.72.27h-.67c-.24,0-.43-.05-.58-.16-.15-.1-.29-.25-.4-.43-.3-.48-.66-.93-1.08-1.35-.42-.42-.98-.76-1.68-1.01-.7-.25-1.65-.38-2.85-.38-1.8,0-3.13.37-4,1.1-.87.73-1.3,1.67-1.3,2.81,0,.66.18,1.23.54,1.73.36.49,1.03.94,2.02,1.35.99.4,2.42.83,4.31,1.28,1.92.42,3.43.94,4.54,1.55,1.11.61,1.89,1.34,2.36,2.18.46.84.7,1.83.7,2.96,0,1.2-.34,2.31-1.01,3.32-.67,1.02-1.68,1.83-3.01,2.45-1.33.61-2.97.92-4.92.92Z"/>
      <path class="cls-4" d="m245.2,24.95c-.3,0-.54-.09-.72-.27s-.27-.42-.27-.72v-1.71c0-.3.09-.55.27-.74.18-.19.42-.29.72-.29h1.71c.3,0,.55.1.74.29.19.2.29.44.29.74v1.71c0,.3-.1.54-.29.72s-.44.27-.74.27h-1.71Zm.49,28.15c-.3,0-.54-.09-.72-.27s-.27-.42-.27-.72v-21.37c0-.3.09-.54.27-.72s.42-.27.72-.27h.76c.3,0,.54.09.72.27s.27.42.27.72v21.37c0,.3-.09.54-.27.72s-.42.27-.72.27h-.76Z"/>
      <path class="cls-4" d="m263.43,62.98c-1.92,0-3.48-.25-4.69-.76-1.21-.51-2.16-1.13-2.83-1.86-.67-.73-1.14-1.47-1.41-2.2s-.42-1.32-.45-1.77c-.03-.3.06-.55.27-.74.21-.19.45-.29.72-.29h.63c.24,0,.45.05.63.16.18.1.33.37.45.79.18.48.47,1.04.88,1.68.4.64,1.05,1.2,1.93,1.68.88.48,2.1.72,3.66.72,1.65,0,3.02-.21,4.13-.63,1.11-.42,1.95-1.16,2.54-2.22.58-1.06.88-2.54.88-4.42v-3.1c-.75,1.02-1.73,1.86-2.94,2.54-1.21.67-2.75,1.01-4.6,1.01-1.74,0-3.21-.31-4.42-.94-1.21-.63-2.19-1.47-2.94-2.51-.75-1.05-1.3-2.21-1.66-3.5-.36-1.29-.55-2.59-.58-3.91-.03-.84-.03-1.68,0-2.51.03-1.32.22-2.62.58-3.91.36-1.29.91-2.45,1.66-3.5.75-1.05,1.73-1.89,2.94-2.51,1.21-.63,2.69-.94,4.42-.94,1.86,0,3.39.34,4.6,1.03,1.21.69,2.19,1.53,2.94,2.51v-2.07c0-.3.09-.55.27-.74.18-.19.42-.29.72-.29h.72c.3,0,.55.1.74.29.19.2.29.44.29.74v21.87c0,1.92-.29,3.65-.85,5.21-.57,1.56-1.58,2.8-3.03,3.73-1.45.93-3.51,1.39-6.17,1.39Zm.04-12.03c1.71,0,3.08-.4,4.13-1.21s1.82-1.82,2.31-3.03c.49-1.21.77-2.43.83-3.66.03-.45.04-.99.04-1.62s-.02-1.17-.04-1.62c-.06-1.23-.34-2.45-.83-3.66-.49-1.21-1.26-2.22-2.31-3.03s-2.42-1.21-4.13-1.21-3.12.39-4.15,1.17c-1.03.78-1.77,1.8-2.22,3.05-.45,1.26-.7,2.6-.76,4.04-.03.84-.03,1.68,0,2.51.06,1.44.31,2.78.76,4.04.45,1.26,1.19,2.27,2.22,3.05,1.03.78,2.42,1.17,4.15,1.17Z"/>
      <path class="cls-4" d="m281.79,53.1c-.3,0-.54-.09-.72-.27s-.27-.42-.27-.72v-21.37c0-.3.09-.54.27-.72s.42-.27.72-.27h.76c.3,0,.54.09.72.27s.27.42.27.72v2.11c.81-1.05,1.79-1.9,2.94-2.56,1.15-.66,2.69-.99,4.6-.99,2.04,0,3.73.44,5.1,1.32,1.36.88,2.38,2.08,3.05,3.59.67,1.51,1.01,3.23,1.01,5.14v12.75c0,.3-.09.54-.27.72-.18.18-.42.27-.72.27h-.76c-.3,0-.54-.09-.72-.27s-.27-.42-.27-.72v-12.53c0-2.39-.58-4.27-1.75-5.63-1.17-1.36-2.87-2.04-5.12-2.04-2.13,0-3.84.68-5.14,2.04-1.3,1.36-1.95,3.24-1.95,5.63v12.53c0,.3-.09.54-.27.72s-.42.27-.72.27h-.76Z"/>
      <path class="cls-4" d="m320.45,53.1c-.3,0-.54-.09-.72-.27-.18-.18-.27-.42-.27-.72v-29.41c0-.33.09-.58.27-.76.18-.18.42-.27.72-.27h11.72c2.09,0,3.81.37,5.14,1.12,1.33.75,2.31,1.73,2.94,2.94.63,1.21.94,2.54.94,3.97,0,1.29-.2,2.39-.61,3.3-.4.91-.91,1.65-1.53,2.22-.61.57-1.22,1-1.82,1.3,1.2.6,2.26,1.56,3.19,2.87.93,1.32,1.39,2.92,1.39,4.8,0,1.5-.35,2.93-1.06,4.29-.7,1.36-1.75,2.47-3.14,3.32s-3.11,1.28-5.14,1.28h-12.03Zm1.84-17.78h9.29c2.21,0,3.9-.49,5.05-1.48s1.73-2.36,1.73-4.13-.58-3.1-1.73-4-2.84-1.35-5.05-1.35h-9.29v10.96Zm0,15.09h9.74c2.21,0,3.93-.58,5.14-1.75s1.82-2.65,1.82-4.44-.61-3.31-1.82-4.47-2.93-1.73-5.14-1.73h-9.74v12.39Z"/>
      <path class="cls-4" d="m349.18,53.1c-.3,0-.54-.09-.72-.27s-.27-.42-.27-.72v-21.33c0-.3.09-.55.27-.74.18-.19.42-.29.72-.29h.72c.3,0,.55.1.74.29.19.2.29.44.29.74v2.07c.54-1.05,1.32-1.83,2.33-2.33,1.02-.51,2.27-.76,3.77-.76h1.66c.3,0,.54.09.72.27s.27.42.27.72v.63c0,.3-.09.54-.27.72s-.42.27-.72.27h-1.93c-1.8,0-3.22.52-4.26,1.57-1.05,1.05-1.57,2.47-1.57,4.27v13.92c0,.3-.1.54-.29.72-.2.18-.44.27-.74.27h-.72Z"/>
      <path class="cls-4" d="m369.75,53.55c-1.44,0-2.76-.3-3.97-.9-1.21-.6-2.19-1.4-2.94-2.4-.75-1-1.12-2.13-1.12-3.39,0-2.04.82-3.67,2.47-4.89,1.65-1.23,3.79-2.02,6.42-2.38l7.09-.99v-1.57c0-1.59-.49-2.84-1.46-3.75s-2.52-1.37-4.65-1.37c-1.56,0-2.81.31-3.77.92-.96.61-1.62,1.41-1.98,2.4-.15.45-.43.67-.85.67h-.72c-.36,0-.61-.1-.76-.29-.15-.19-.22-.43-.22-.7,0-.42.16-.94.47-1.57.31-.63.8-1.25,1.46-1.86.66-.61,1.51-1.13,2.56-1.55,1.05-.42,2.32-.63,3.82-.63,1.77,0,3.22.24,4.38.72,1.15.48,2.05,1.1,2.69,1.86.64.76,1.1,1.61,1.37,2.54.27.93.4,1.84.4,2.74v14.95c0,.3-.09.54-.27.72s-.42.27-.72.27h-.76c-.3,0-.54-.09-.72-.27s-.27-.42-.27-.72v-2.11c-.36.54-.87,1.08-1.53,1.62-.66.54-1.5,1-2.54,1.37-1.03.37-2.33.56-3.88.56Zm.45-2.6c1.38,0,2.63-.3,3.77-.9,1.14-.6,2.04-1.52,2.72-2.76.67-1.24,1.01-2.81,1.01-4.69v-1.53l-5.79.81c-2.45.33-4.31.9-5.57,1.71-1.26.81-1.89,1.83-1.89,3.05,0,.99.28,1.8.85,2.42.57.63,1.29,1.1,2.18,1.41.88.31,1.79.47,2.72.47Z"/>
      <path class="cls-4" d="m388.51,53.1c-.3,0-.54-.09-.72-.27s-.27-.42-.27-.72v-21.37c0-.3.09-.54.27-.72s.42-.27.72-.27h.76c.3,0,.54.09.72.27s.27.42.27.72v2.11c.81-1.05,1.79-1.9,2.94-2.56,1.15-.66,2.69-.99,4.6-.99,2.04,0,3.73.44,5.1,1.32,1.36.88,2.38,2.08,3.05,3.59.67,1.51,1.01,3.23,1.01,5.14v12.75c0,.3-.09.54-.27.72-.18.18-.42.27-.72.27h-.76c-.3,0-.54-.09-.72-.27s-.27-.42-.27-.72v-12.53c0-2.39-.58-4.27-1.75-5.63-1.17-1.36-2.87-2.04-5.12-2.04-2.13,0-3.84.68-5.14,2.04-1.3,1.36-1.95,3.24-1.95,5.63v12.53c0,.3-.09.54-.27.72s-.42.27-.72.27h-.76Z"/>
      <path class="cls-4" d="m422.45,53.55c-1.74,0-3.21-.31-4.42-.94-1.21-.63-2.19-1.47-2.94-2.51-.75-1.05-1.29-2.21-1.64-3.5-.34-1.29-.55-2.59-.61-3.91-.03-.45-.04-.87-.04-1.26s.01-.81.04-1.26c.06-1.32.26-2.62.61-3.91.34-1.29.89-2.45,1.64-3.5.75-1.05,1.73-1.89,2.94-2.51,1.21-.63,2.69-.94,4.42-.94,1.86,0,3.39.34,4.6,1.03,1.21.69,2.19,1.53,2.94,2.51v-10.64c0-.3.09-.54.27-.72.18-.18.42-.27.72-.27h.76c.3,0,.54.09.72.27.18.18.27.42.27.72v29.9c0,.3-.09.54-.27.72s-.42.27-.72.27h-.76c-.3,0-.54-.09-.72-.27s-.27-.42-.27-.72v-2.11c-.75,1.02-1.73,1.86-2.94,2.54-1.21.67-2.75,1.01-4.6,1.01Zm.27-2.6c1.71,0,3.08-.4,4.13-1.21s1.83-1.82,2.33-3.03c.51-1.21.78-2.43.81-3.66.03-.45.04-1.03.04-1.75s-.02-1.3-.04-1.75c-.03-1.2-.31-2.38-.83-3.55-.52-1.17-1.31-2.14-2.36-2.92-1.05-.78-2.41-1.17-4.09-1.17s-3.12.39-4.15,1.17c-1.03.78-1.77,1.8-2.22,3.05-.45,1.26-.7,2.6-.76,4.04-.03.84-.03,1.68,0,2.51.06,1.44.31,2.78.76,4.04s1.19,2.27,2.22,3.05c1.03.78,2.42,1.17,4.15,1.17Z"/>
      <path class="cls-4" d="m456.67,53.1c-.39,0-.69-.09-.9-.27-.21-.18-.39-.46-.54-.85l-6.33-20.83c-.06-.18-.09-.34-.09-.49,0-.24.09-.45.27-.63s.39-.27.63-.27h.85c.3,0,.53.08.7.25.16.17.26.31.29.43l5.52,18.68,5.88-18.45c.06-.18.18-.37.36-.58.18-.21.46-.31.85-.31h.9c.39,0,.68.11.88.31.19.21.31.4.34.58l5.88,18.45,5.52-18.68c.03-.12.13-.26.29-.43s.4-.25.7-.25h.85c.24,0,.45.09.63.27.18.18.27.39.27.63,0,.15-.03.31-.09.49l-6.33,20.83c-.12.39-.28.67-.49.85-.21.18-.52.27-.94.27h-.76c-.39,0-.71-.09-.96-.27-.25-.18-.44-.46-.56-.85l-5.66-17.69-5.66,17.69c-.12.39-.3.67-.54.85-.24.18-.57.27-.99.27h-.76Z"/>
      <path class="cls-4" d="m491.55,53.55c-1.44,0-2.76-.3-3.97-.9-1.21-.6-2.19-1.4-2.94-2.4-.75-1-1.12-2.13-1.12-3.39,0-2.04.82-3.67,2.47-4.89,1.65-1.23,3.79-2.02,6.42-2.38l7.09-.99v-1.57c0-1.59-.49-2.84-1.46-3.75s-2.52-1.37-4.65-1.37c-1.56,0-2.81.31-3.77.92-.96.61-1.62,1.41-1.98,2.4-.15.45-.43.67-.85.67h-.72c-.36,0-.61-.1-.76-.29-.15-.19-.22-.43-.22-.7,0-.42.16-.94.47-1.57.31-.63.8-1.25,1.46-1.86.66-.61,1.51-1.13,2.56-1.55,1.05-.42,2.32-.63,3.82-.63,1.77,0,3.22.24,4.38.72,1.15.48,2.05,1.1,2.69,1.86.64.76,1.1,1.61,1.37,2.54.27.93.4,1.84.4,2.74v14.95c0,.3-.09.54-.27.72-.18.18-.42.27-.72.27h-.76c-.3,0-.54-.09-.72-.27s-.27-.42-.27-.72v-2.11c-.36.54-.87,1.08-1.53,1.62-.66.54-1.5,1-2.54,1.37-1.03.37-2.33.56-3.88.56Zm.45-2.6c1.38,0,2.63-.3,3.77-.9,1.14-.6,2.04-1.52,2.72-2.76.67-1.24,1.01-2.81,1.01-4.69v-1.53l-5.79.81c-2.45.33-4.31.9-5.57,1.71-1.26.81-1.89,1.83-1.89,3.05,0,.99.28,1.8.85,2.42.57.63,1.29,1.1,2.18,1.41.88.31,1.79.47,2.72.47Z"/>
      <path class="cls-4" d="m516.74,53.55c-1.56,0-2.9-.21-4.02-.63-1.12-.42-2.04-.92-2.76-1.5-.72-.58-1.25-1.16-1.59-1.73-.34-.57-.53-1-.56-1.3-.03-.33.07-.58.31-.74.24-.16.46-.25.67-.25h.67c.18,0,.34.03.47.09.13.06.31.22.52.49.39.51.84,1,1.35,1.46.51.46,1.16.83,1.95,1.1.79.27,1.79.4,2.99.4,1.8,0,3.28-.34,4.45-1.03,1.17-.69,1.75-1.71,1.75-3.05,0-.84-.23-1.51-.7-2.02-.46-.51-1.25-.96-2.36-1.35-1.11-.39-2.6-.79-4.49-1.21-1.89-.45-3.33-.99-4.33-1.62-1-.63-1.68-1.35-2.04-2.18-.36-.82-.54-1.71-.54-2.67,0-1.05.3-2.07.9-3.08.6-1,1.49-1.83,2.67-2.47,1.18-.64,2.67-.97,4.47-.97,1.47,0,2.72.19,3.75.58,1.03.39,1.88.86,2.54,1.41.66.55,1.14,1.1,1.46,1.64s.49.97.52,1.3c.03.3-.06.54-.27.72-.21.18-.45.27-.72.27h-.67c-.24,0-.43-.05-.58-.16-.15-.1-.29-.25-.4-.43-.3-.48-.66-.93-1.08-1.35-.42-.42-.98-.76-1.68-1.01-.7-.25-1.65-.38-2.85-.38-1.8,0-3.13.37-4,1.1-.87.73-1.3,1.67-1.3,2.81,0,.66.18,1.23.54,1.73.36.49,1.03.94,2.02,1.35.99.4,2.42.83,4.31,1.28,1.92.42,3.43.94,4.54,1.55,1.11.61,1.89,1.34,2.36,2.18.46.84.7,1.83.7,2.96,0,1.2-.34,2.31-1.01,3.32-.67,1.02-1.68,1.83-3.01,2.45-1.33.61-2.97.92-4.92.92Z"/>
      <path class="cls-4" d="m553.33,53.55c-1.86,0-3.39-.34-4.6-1.01-1.21-.67-2.19-1.52-2.94-2.54v2.11c0,.3-.09.54-.27.72s-.42.27-.72.27h-.76c-.3,0-.54-.09-.72-.27s-.27-.42-.27-.72v-29.9c0-.3.09-.54.27-.72.18-.18.42-.27.72-.27h.76c.3,0,.54.09.72.27.18.18.27.42.27.72v10.64c.75-.99,1.73-1.83,2.94-2.51,1.21-.69,2.75-1.03,4.6-1.03s3.25.31,4.45.94,2.17,1.47,2.92,2.51c.75,1.05,1.3,2.22,1.66,3.5.36,1.29.55,2.59.58,3.91.03.45.04.87.04,1.26s-.02.81-.04,1.26c-.03,1.32-.22,2.62-.58,3.91-.36,1.29-.91,2.45-1.66,3.5-.75,1.05-1.72,1.89-2.92,2.51-1.2.63-2.68.94-4.45.94Zm-.27-2.6c1.77,0,3.16-.39,4.17-1.17s1.75-1.8,2.2-3.05.7-2.6.76-4.04c.03-.84.03-1.68,0-2.51-.06-1.44-.31-2.78-.76-4.04-.45-1.26-1.18-2.27-2.2-3.05-1.02-.78-2.41-1.17-4.17-1.17-1.65,0-3,.39-4.06,1.17-1.06.78-1.86,1.75-2.38,2.92-.52,1.17-.8,2.35-.83,3.55-.03.45-.04,1.03-.04,1.75s.01,1.3.04,1.75c.06,1.23.34,2.45.83,3.66s1.26,2.22,2.31,3.03c1.05.81,2.42,1.21,4.13,1.21Z"/>
      <path class="cls-4" d="m577.94,53.55c-2.16,0-3.96-.45-5.41-1.35-1.45-.9-2.56-2.12-3.32-3.68-.76-1.56-1.17-3.29-1.23-5.21-.03-.45-.04-1.08-.04-1.89s.01-1.44.04-1.89c.06-1.95.47-3.69,1.23-5.23.76-1.54,1.87-2.76,3.32-3.66,1.45-.9,3.25-1.35,5.41-1.35s3.96.45,5.41,1.35,2.56,2.12,3.32,3.66c.76,1.54,1.17,3.29,1.24,5.23.03.45.04,1.08.04,1.89s-.02,1.44-.04,1.89c-.06,1.92-.47,3.65-1.24,5.21-.76,1.56-1.87,2.78-3.32,3.68s-3.25,1.35-5.41,1.35Zm0-2.6c2.09,0,3.8-.67,5.12-2.02,1.32-1.35,2.02-3.29,2.11-5.84.03-.45.04-1,.04-1.66s-.02-1.21-.04-1.66c-.09-2.57-.79-4.53-2.11-5.86-1.32-1.33-3.02-2-5.12-2s-3.8.67-5.12,2c-1.32,1.33-2.02,3.29-2.11,5.86-.03.45-.04,1-.04,1.66s.01,1.21.04,1.66c.09,2.54.79,4.49,2.11,5.84,1.32,1.35,3.02,2.02,5.12,2.02Z"/>
      <path class="cls-4" d="m595.09,53.1c-.3,0-.54-.09-.72-.27s-.27-.42-.27-.72v-21.33c0-.3.09-.55.27-.74.18-.19.42-.29.72-.29h.72c.3,0,.55.1.74.29.19.2.29.44.29.74v2.07c.54-1.05,1.32-1.83,2.33-2.33,1.02-.51,2.27-.76,3.77-.76h1.66c.3,0,.54.09.72.27s.27.42.27.72v.63c0,.3-.09.54-.27.72s-.42.27-.72.27h-1.93c-1.8,0-3.22.52-4.26,1.57-1.05,1.05-1.57,2.47-1.57,4.27v13.92c0,.3-.1.54-.29.72-.2.18-.44.27-.74.27h-.72Z"/>
      <path class="cls-4" d="m610.71,53.1c-.3,0-.54-.09-.72-.27s-.27-.42-.27-.72v-21.37c0-.3.09-.54.27-.72s.42-.27.72-.27h.76c.3,0,.54.09.72.27s.27.42.27.72v2.11c.81-1.05,1.79-1.9,2.94-2.56,1.15-.66,2.69-.99,4.6-.99,2.04,0,3.73.44,5.1,1.32,1.36.88,2.38,2.08,3.05,3.59.67,1.51,1.01,3.23,1.01,5.14v12.75c0,.3-.09.54-.27.72-.18.18-.42.27-.72.27h-.76c-.3,0-.54-.09-.72-.27s-.27-.42-.27-.72v-12.53c0-2.39-.58-4.27-1.75-5.63-1.17-1.36-2.87-2.04-5.12-2.04-2.13,0-3.84.68-5.14,2.04-1.3,1.36-1.95,3.24-1.95,5.63v12.53c0,.3-.09.54-.27.72s-.42.27-.72.27h-.76Z"/>
      <path class="cls-4" d="m19.77,106.98c-.39,0-.69-.09-.9-.27-.21-.18-.39-.46-.54-.85l-6.33-20.83c-.06-.18-.09-.34-.09-.49,0-.24.09-.45.27-.63s.39-.27.63-.27h.85c.3,0,.53.08.7.25.16.17.26.31.29.43l5.52,18.68,5.88-18.45c.06-.18.18-.37.36-.58.18-.21.46-.31.85-.31h.9c.39,0,.68.11.88.31.19.21.31.4.34.58l5.88,18.45,5.52-18.68c.03-.12.13-.26.29-.43s.4-.25.7-.25h.85c.24,0,.45.09.63.27s.27.39.27.63c0,.15-.03.31-.09.49l-6.33,20.83c-.12.39-.28.67-.49.85-.21.18-.52.27-.94.27h-.76c-.39,0-.71-.09-.96-.27-.25-.18-.44-.46-.56-.85l-5.66-17.69-5.66,17.69c-.12.39-.3.67-.54.85-.24.18-.57.27-.99.27h-.76Z"/>
      <path class="cls-4" d="m49.49,78.83c-.3,0-.54-.09-.72-.27s-.27-.42-.27-.72v-1.71c0-.3.09-.55.27-.74.18-.19.42-.29.72-.29h1.71c.3,0,.55.1.74.29.19.2.29.44.29.74v1.71c0,.3-.1.54-.29.72s-.44.27-.74.27h-1.71Zm.49,28.15c-.3,0-.54-.09-.72-.27s-.27-.42-.27-.72v-21.37c0-.3.09-.54.27-.72s.42-.27.72-.27h.76c.3,0,.54.09.72.27s.27.42.27.72v21.37c0,.3-.09.54-.27.72s-.42.27-.72.27h-.76Z"/>
      <path class="cls-4" d="m66.87,106.98c-1.56,0-2.78-.33-3.68-.99-.9-.66-1.53-1.56-1.89-2.69-.36-1.14-.54-2.41-.54-3.82v-13.24h-3.5c-.3,0-.54-.09-.72-.27-.18-.18-.27-.42-.27-.72v-.63c0-.3.09-.54.27-.72s.42-.27.72-.27h3.5v-7.54c0-.3.09-.54.27-.72.18-.18.42-.27.72-.27h.76c.3,0,.54.09.72.27.18.18.27.42.27.72v7.54h5.57c.3,0,.54.09.72.27s.27.42.27.72v.63c0,.3-.09.54-.27.72-.18.18-.42.27-.72.27h-5.57v13.06c0,1.59.26,2.83.79,3.73s1.46,1.35,2.81,1.35h2.42c.3,0,.54.09.72.27.18.18.27.42.27.72v.63c0,.3-.09.54-.27.72s-.42.27-.72.27h-2.65Z"/>
      <path class="cls-4" d="m76.16,106.98c-.3,0-.54-.09-.72-.27s-.27-.42-.27-.72v-29.9c0-.3.09-.54.27-.72.18-.18.42-.27.72-.27h.76c.3,0,.54.09.72.27.18.18.27.42.27.72v10.64c.81-1.05,1.79-1.9,2.94-2.56,1.15-.66,2.69-.99,4.6-.99,2.04,0,3.73.44,5.1,1.32,1.36.88,2.38,2.08,3.05,3.59.67,1.51,1.01,3.23,1.01,5.14v12.75c0,.3-.09.54-.27.72-.18.18-.42.27-.72.27h-.76c-.3,0-.54-.09-.72-.27s-.27-.42-.27-.72v-12.53c0-2.39-.58-4.27-1.75-5.63-1.17-1.36-2.87-2.04-5.12-2.04-2.13,0-3.84.68-5.14,2.04-1.3,1.36-1.95,3.24-1.95,5.63v12.53c0,.3-.09.54-.27.72s-.42.27-.72.27h-.76Z"/>
      <path class="cls-4" d="m113.74,78.83c-.3,0-.54-.09-.72-.27s-.27-.42-.27-.72v-1.71c0-.3.09-.55.27-.74.18-.19.42-.29.72-.29h1.71c.3,0,.55.1.74.29.19.2.29.44.29.74v1.71c0,.3-.1.54-.29.72s-.44.27-.74.27h-1.71Zm.49,28.15c-.3,0-.54-.09-.72-.27s-.27-.42-.27-.72v-21.37c0-.3.09-.54.27-.72s.42-.27.72-.27h.76c.3,0,.54.09.72.27s.27.42.27.72v21.37c0,.3-.09.54-.27.72s-.42.27-.72.27h-.76Z"/>
      <path class="cls-4" d="m131.12,106.98c-1.56,0-2.78-.33-3.68-.99-.9-.66-1.53-1.56-1.89-2.69-.36-1.14-.54-2.41-.54-3.82v-13.24h-3.5c-.3,0-.54-.09-.72-.27-.18-.18-.27-.42-.27-.72v-.63c0-.3.09-.54.27-.72s.42-.27.72-.27h3.5v-7.54c0-.3.09-.54.27-.72.18-.18.42-.27.72-.27h.76c.3,0,.54.09.72.27.18.18.27.42.27.72v7.54h5.57c.3,0,.54.09.72.27s.27.42.27.72v.63c0,.3-.09.54-.27.72-.18.18-.42.27-.72.27h-5.57v13.06c0,1.59.26,2.83.79,3.73s1.46,1.35,2.81,1.35h2.42c.3,0,.54.09.72.27.18.18.27.42.27.72v.63c0,.3-.09.54-.27.72s-.42.27-.72.27h-2.65Z"/>
      <path class="cls-4" d="m146.79,107.43c-1.56,0-2.9-.21-4.02-.63-1.12-.42-2.04-.92-2.76-1.5-.72-.58-1.25-1.16-1.59-1.73-.34-.57-.53-1-.56-1.3-.03-.33.07-.58.31-.74.24-.16.46-.25.67-.25h.67c.18,0,.34.03.47.09.13.06.31.22.52.49.39.51.84,1,1.35,1.46.51.46,1.16.83,1.95,1.1.79.27,1.79.4,2.99.4,1.8,0,3.28-.34,4.45-1.03,1.17-.69,1.75-1.71,1.75-3.05,0-.84-.23-1.51-.7-2.02-.46-.51-1.25-.96-2.36-1.35-1.11-.39-2.6-.79-4.49-1.21-1.89-.45-3.33-.99-4.33-1.62-1-.63-1.68-1.35-2.04-2.18-.36-.82-.54-1.71-.54-2.67,0-1.05.3-2.07.9-3.08.6-1,1.49-1.83,2.67-2.47,1.18-.64,2.67-.97,4.47-.97,1.47,0,2.72.19,3.75.58,1.03.39,1.88.86,2.54,1.41.66.55,1.14,1.1,1.46,1.64s.49.97.52,1.3c.03.3-.06.54-.27.72-.21.18-.45.27-.72.27h-.67c-.24,0-.43-.05-.58-.16-.15-.1-.29-.25-.4-.43-.3-.48-.66-.93-1.08-1.35-.42-.42-.98-.76-1.68-1.01-.7-.25-1.65-.38-2.85-.38-1.8,0-3.13.37-4,1.1-.87.73-1.3,1.67-1.3,2.81,0,.66.18,1.23.54,1.73.36.49,1.03.94,2.02,1.35.99.4,2.42.83,4.31,1.28,1.92.42,3.43.94,4.54,1.55,1.11.61,1.89,1.34,2.36,2.18.46.84.7,1.83.7,2.96,0,1.2-.34,2.31-1.01,3.32-.67,1.02-1.68,1.83-3.01,2.45-1.33.61-2.97.92-4.92.92Z"/>
      <path class="cls-4" d="m181.94,107.43c-2.16,0-3.96-.45-5.41-1.35-1.45-.9-2.56-2.12-3.32-3.68-.76-1.56-1.17-3.29-1.23-5.21-.03-.45-.04-1.08-.04-1.89s.01-1.44.04-1.89c.06-1.95.47-3.69,1.23-5.23.76-1.54,1.87-2.76,3.32-3.66,1.45-.9,3.25-1.35,5.41-1.35s3.96.45,5.41,1.35,2.56,2.12,3.32,3.66c.76,1.54,1.17,3.29,1.24,5.23.03.45.04,1.08.04,1.89s-.02,1.44-.04,1.89c-.06,1.92-.47,3.65-1.24,5.21-.76,1.56-1.87,2.78-3.32,3.68s-3.25,1.35-5.41,1.35Zm0-2.6c2.09,0,3.8-.67,5.12-2.02,1.32-1.35,2.02-3.29,2.11-5.84.03-.45.04-1,.04-1.66s-.02-1.21-.04-1.66c-.09-2.57-.79-4.53-2.11-5.86-1.32-1.33-3.02-2-5.12-2s-3.8.67-5.12,2c-1.32,1.33-2.02,3.29-2.11,5.86-.03.45-.04,1-.04,1.66s.01,1.21.04,1.66c.09,2.54.79,4.49,2.11,5.84,1.32,1.35,3.02,2.02,5.12,2.02Z"/>
      <path class="cls-4" d="m203.58,106.98c-.39,0-.69-.09-.9-.27-.21-.18-.39-.46-.54-.85l-6.33-20.83c-.06-.18-.09-.34-.09-.49,0-.24.09-.45.27-.63s.39-.27.63-.27h.85c.3,0,.53.08.7.25.16.17.26.31.29.43l5.52,18.68,5.88-18.45c.06-.18.18-.37.36-.58.18-.21.46-.31.85-.31h.9c.39,0,.68.11.88.31.19.21.31.4.34.58l5.88,18.45,5.52-18.68c.03-.12.13-.26.29-.43s.4-.25.7-.25h.85c.24,0,.45.09.63.27s.27.39.27.63c0,.15-.03.31-.09.49l-6.33,20.83c-.12.39-.28.67-.49.85-.21.18-.52.27-.94.27h-.76c-.39,0-.71-.09-.96-.27-.25-.18-.44-.46-.56-.85l-5.66-17.69-5.66,17.69c-.12.39-.3.67-.54.85-.24.18-.57.27-.99.27h-.76Z"/>
      <path class="cls-4" d="m233.8,106.98c-.3,0-.54-.09-.72-.27s-.27-.42-.27-.72v-21.37c0-.3.09-.54.27-.72s.42-.27.72-.27h.76c.3,0,.54.09.72.27s.27.42.27.72v2.11c.81-1.05,1.79-1.9,2.94-2.56,1.15-.66,2.69-.99,4.6-.99,2.04,0,3.73.44,5.1,1.32,1.36.88,2.38,2.08,3.05,3.59.67,1.51,1.01,3.23,1.01,5.14v12.75c0,.3-.09.54-.27.72-.18.18-.42.27-.72.27h-.76c-.3,0-.54-.09-.72-.27s-.27-.42-.27-.72v-12.53c0-2.39-.58-4.27-1.75-5.63-1.17-1.36-2.87-2.04-5.12-2.04-2.13,0-3.84.68-5.14,2.04-1.3,1.36-1.95,3.24-1.95,5.63v12.53c0,.3-.09.54-.27.72s-.42.27-.72.27h-.76Z"/>
      <path class="cls-4" d="m271.91,115.51c-.3,0-.54-.09-.72-.27s-.27-.42-.27-.72v-29.9c0-.3.09-.54.27-.72s.42-.27.72-.27h.76c.3,0,.54.09.72.27s.27.42.27.72v2.11c.75-1.02,1.73-1.86,2.94-2.54s2.75-1.01,4.6-1.01,3.25.31,4.45.92c1.2.61,2.17,1.43,2.92,2.45.75,1.02,1.3,2.16,1.66,3.41.36,1.26.55,2.54.58,3.86.03.45.04.94.04,1.48s-.02,1.03-.04,1.48c-.03,1.32-.22,2.6-.58,3.86-.36,1.26-.91,2.4-1.66,3.41-.75,1.02-1.72,1.83-2.92,2.45-1.2.61-2.68.92-4.45.92-1.86,0-3.39-.34-4.6-1.03-1.21-.69-2.19-1.53-2.94-2.51v10.64c0,.3-.09.54-.27.72s-.42.27-.72.27h-.76Zm9.03-10.69c1.77,0,3.16-.39,4.17-1.17s1.75-1.8,2.2-3.05.7-2.6.76-4.04c.03-.84.03-1.68,0-2.51-.06-1.44-.31-2.78-.76-4.04-.45-1.26-1.18-2.27-2.2-3.05-1.02-.78-2.41-1.17-4.17-1.17s-3.08.4-4.13,1.21c-1.05.81-1.82,1.82-2.31,3.03-.49,1.21-.77,2.43-.83,3.66-.03.45-.04,1.03-.04,1.75s.01,1.3.04,1.75c.03,1.2.31,2.38.83,3.55.52,1.17,1.32,2.14,2.38,2.92,1.06.78,2.42,1.17,4.06,1.17Z"/>
      <path class="cls-4" d="m305.63,107.43c-2.9,0-5.21-.95-6.91-2.85s-2.68-4.39-2.92-7.48c-.03-.45-.04-1.05-.04-1.8s.01-1.35.04-1.8c.15-2.04.63-3.83,1.44-5.39.81-1.56,1.92-2.77,3.34-3.64,1.42-.87,3.11-1.3,5.05-1.3,2.09,0,3.88.46,5.34,1.39,1.47.93,2.6,2.26,3.39,4,.79,1.74,1.19,3.8,1.19,6.2v.67c0,.3-.1.54-.29.72-.2.18-.44.27-.74.27h-15.98v.45c.06,1.35.37,2.63.94,3.84.57,1.21,1.38,2.2,2.42,2.96,1.05.76,2.29,1.14,3.73,1.14,1.29,0,2.36-.19,3.21-.58.85-.39,1.53-.82,2.04-1.28.51-.46.84-.81.99-1.05.27-.39.48-.62.63-.7.15-.07.39-.11.72-.11h.72c.27,0,.5.08.7.25.19.17.28.38.25.65-.03.42-.26.94-.7,1.55-.43.61-1.05,1.22-1.84,1.82-.79.6-1.76,1.09-2.9,1.48s-2.41.58-3.82.58Zm-7.09-13.51h14.28v-.18c0-1.5-.28-2.84-.85-4.04-.57-1.2-1.39-2.15-2.47-2.85-1.08-.7-2.36-1.06-3.86-1.06s-2.78.35-3.84,1.06c-1.06.7-1.87,1.65-2.42,2.85-.55,1.2-.83,2.54-.83,4.04v.18Z"/>
      <path class="cls-4" d="m322.47,106.98c-.3,0-.54-.09-.72-.27s-.27-.42-.27-.72v-21.33c0-.3.09-.55.27-.74.18-.19.42-.29.72-.29h.72c.3,0,.55.1.74.29.19.2.29.44.29.74v2.07c.54-1.05,1.32-1.83,2.33-2.33,1.02-.51,2.27-.76,3.77-.76h1.66c.3,0,.54.09.72.27s.27.42.27.72v.63c0,.3-.09.54-.27.72-.18.18-.42.27-.72.27h-1.93c-1.8,0-3.22.52-4.26,1.57-1.05,1.05-1.57,2.47-1.57,4.27v13.92c0,.3-.1.54-.29.72-.2.18-.44.27-.74.27h-.72Z"/>
      <path class="cls-4" d="m344.51,107.43c-1.56,0-2.9-.21-4.02-.63-1.12-.42-2.04-.92-2.76-1.5-.72-.58-1.25-1.16-1.59-1.73-.34-.57-.53-1-.56-1.3-.03-.33.07-.58.31-.74.24-.16.46-.25.67-.25h.67c.18,0,.34.03.47.09.13.06.31.22.52.49.39.51.84,1,1.35,1.46.51.46,1.16.83,1.95,1.1.79.27,1.79.4,2.99.4,1.8,0,3.28-.34,4.45-1.03,1.17-.69,1.75-1.71,1.75-3.05,0-.84-.23-1.51-.7-2.02-.46-.51-1.25-.96-2.36-1.35-1.11-.39-2.6-.79-4.49-1.21-1.89-.45-3.33-.99-4.33-1.62-1-.63-1.68-1.35-2.04-2.18-.36-.82-.54-1.71-.54-2.67,0-1.05.3-2.07.9-3.08.6-1,1.49-1.83,2.67-2.47,1.18-.64,2.67-.97,4.47-.97,1.47,0,2.72.19,3.75.58,1.03.39,1.88.86,2.54,1.41.66.55,1.14,1.1,1.46,1.64s.49.97.52,1.3c.03.3-.06.54-.27.72-.21.18-.45.27-.72.27h-.67c-.24,0-.43-.05-.58-.16-.15-.1-.29-.25-.4-.43-.3-.48-.66-.93-1.08-1.35-.42-.42-.98-.76-1.68-1.01-.7-.25-1.65-.38-2.85-.38-1.8,0-3.13.37-4,1.1-.87.73-1.3,1.67-1.3,2.81,0,.66.18,1.23.54,1.73.36.49,1.03.94,2.02,1.35.99.4,2.42.83,4.31,1.28,1.92.42,3.43.94,4.54,1.55,1.11.61,1.89,1.34,2.36,2.18.46.84.7,1.83.7,2.96,0,1.2-.34,2.31-1.01,3.32-.67,1.02-1.68,1.83-3.01,2.45-1.33.61-2.97.92-4.92.92Z"/>
      <path class="cls-4" d="m368.08,107.43c-2.16,0-3.96-.45-5.41-1.35-1.45-.9-2.56-2.12-3.32-3.68-.76-1.56-1.17-3.29-1.23-5.21-.03-.45-.04-1.08-.04-1.89s.01-1.44.04-1.89c.06-1.95.47-3.69,1.23-5.23.76-1.54,1.87-2.76,3.32-3.66,1.45-.9,3.25-1.35,5.41-1.35s3.96.45,5.41,1.35,2.56,2.12,3.32,3.66c.76,1.54,1.17,3.29,1.24,5.23.03.45.04,1.08.04,1.89s-.02,1.44-.04,1.89c-.06,1.92-.47,3.65-1.24,5.21-.76,1.56-1.87,2.78-3.32,3.68s-3.25,1.35-5.41,1.35Zm0-2.6c2.09,0,3.8-.67,5.12-2.02,1.32-1.35,2.02-3.29,2.11-5.84.03-.45.04-1,.04-1.66s-.02-1.21-.04-1.66c-.09-2.57-.79-4.53-2.11-5.86-1.32-1.33-3.02-2-5.12-2s-3.8.67-5.12,2c-1.32,1.33-2.02,3.29-2.11,5.86-.03.45-.04,1-.04,1.66s.01,1.21.04,1.66c.09,2.54.79,4.49,2.11,5.84,1.32,1.35,3.02,2.02,5.12,2.02Z"/>
      <path class="cls-4" d="m385.23,106.98c-.3,0-.54-.09-.72-.27s-.27-.42-.27-.72v-21.37c0-.3.09-.54.27-.72s.42-.27.72-.27h.76c.3,0,.54.09.72.27s.27.42.27.72v2.11c.81-1.05,1.79-1.9,2.94-2.56,1.15-.66,2.69-.99,4.6-.99,2.04,0,3.73.44,5.1,1.32,1.36.88,2.38,2.08,3.05,3.59.67,1.51,1.01,3.23,1.01,5.14v12.75c0,.3-.09.54-.27.72-.18.18-.42.27-.72.27h-.76c-.3,0-.54-.09-.72-.27-.18-.18-.27-.42-.27-.72v-12.53c0-2.39-.58-4.27-1.75-5.63-1.17-1.36-2.87-2.04-5.12-2.04-2.13,0-3.84.68-5.14,2.04-1.3,1.36-1.95,3.24-1.95,5.63v12.53c0,.3-.09.54-.27.72s-.42.27-.72.27h-.76Z"/>
      <path class="cls-4" d="m417.02,107.43c-1.44,0-2.76-.3-3.97-.9-1.21-.6-2.19-1.4-2.94-2.4-.75-1-1.12-2.13-1.12-3.39,0-2.04.82-3.67,2.47-4.89,1.65-1.23,3.79-2.02,6.42-2.38l7.09-.99v-1.57c0-1.59-.49-2.84-1.46-3.75s-2.52-1.37-4.65-1.37c-1.56,0-2.81.31-3.77.92-.96.61-1.62,1.41-1.98,2.4-.15.45-.43.67-.85.67h-.72c-.36,0-.61-.1-.76-.29-.15-.19-.22-.43-.22-.7,0-.42.16-.94.47-1.57.31-.63.8-1.25,1.46-1.86.66-.61,1.51-1.13,2.56-1.55,1.05-.42,2.32-.63,3.82-.63,1.77,0,3.22.24,4.38.72,1.15.48,2.05,1.1,2.69,1.86.64.76,1.1,1.61,1.37,2.54.27.93.4,1.84.4,2.74v14.95c0,.3-.09.54-.27.72s-.42.27-.72.27h-.76c-.3,0-.54-.09-.72-.27s-.27-.42-.27-.72v-2.11c-.36.54-.87,1.08-1.53,1.62-.66.54-1.5,1-2.54,1.37-1.03.37-2.33.56-3.88.56Zm.45-2.6c1.38,0,2.63-.3,3.77-.9,1.14-.6,2.04-1.52,2.72-2.76.67-1.24,1.01-2.81,1.01-4.69v-1.53l-5.79.81c-2.45.33-4.31.9-5.57,1.71-1.26.81-1.89,1.83-1.89,3.05,0,.99.28,1.8.85,2.42.57.63,1.29,1.1,2.18,1.41.88.31,1.79.47,2.72.47Z"/>
      <path class="cls-4" d="m435.84,106.98c-.3,0-.54-.09-.72-.27s-.27-.42-.27-.72v-29.9c0-.3.09-.54.27-.72.18-.18.42-.27.72-.27h.76c.3,0,.54.09.72.27.18.18.27.42.27.72v29.9c0,.3-.09.54-.27.72s-.42.27-.72.27h-.76Z"/>
      <path class="cls-4" d="m456.98,78.83c-.3,0-.54-.09-.72-.27s-.27-.42-.27-.72v-1.71c0-.3.09-.55.27-.74.18-.19.42-.29.72-.29h1.71c.3,0,.55.1.74.29.19.2.29.44.29.74v1.71c0,.3-.1.54-.29.72s-.44.27-.74.27h-1.71Zm.49,28.15c-.3,0-.54-.09-.72-.27s-.27-.42-.27-.72v-21.37c0-.3.09-.54.27-.72s.42-.27.72-.27h.76c.3,0,.54.09.72.27s.27.42.27.72v21.37c0,.3-.09.54-.27.72s-.42.27-.72.27h-.76Z"/>
      <path class="cls-4" d="m474.94,107.43c-1.74,0-3.21-.31-4.42-.94-1.21-.63-2.19-1.47-2.94-2.51-.75-1.05-1.29-2.21-1.64-3.5-.34-1.29-.55-2.59-.61-3.91-.03-.45-.04-.87-.04-1.26s.01-.81.04-1.26c.06-1.32.26-2.62.61-3.91.34-1.29.89-2.45,1.64-3.5.75-1.05,1.73-1.89,2.94-2.51,1.21-.63,2.69-.94,4.42-.94,1.86,0,3.39.34,4.6,1.03,1.21.69,2.19,1.53,2.94,2.51v-10.64c0-.3.09-.54.27-.72.18-.18.42-.27.72-.27h.76c.3,0,.54.09.72.27.18.18.27.42.27.72v29.9c0,.3-.09.54-.27.72s-.42.27-.72.27h-.76c-.3,0-.54-.09-.72-.27s-.27-.42-.27-.72v-2.11c-.75,1.02-1.73,1.86-2.94,2.54-1.21.67-2.75,1.01-4.6,1.01Zm.27-2.6c1.71,0,3.08-.4,4.13-1.21s1.83-1.82,2.33-3.03c.51-1.21.78-2.43.81-3.66.03-.45.04-1.03.04-1.75s-.02-1.3-.04-1.75c-.03-1.2-.31-2.38-.83-3.55-.52-1.17-1.31-2.14-2.36-2.92-1.05-.78-2.41-1.17-4.09-1.17s-3.12.39-4.15,1.17c-1.03.78-1.77,1.8-2.22,3.05-.45,1.26-.7,2.6-.76,4.04-.03.84-.03,1.68,0,2.51.06,1.44.31,2.78.76,4.04s1.19,2.27,2.22,3.05c1.03.78,2.42,1.17,4.15,1.17Z"/>
      <path class="cls-4" d="m501.2,107.43c-2.9,0-5.21-.95-6.91-2.85s-2.68-4.39-2.92-7.48c-.03-.45-.04-1.05-.04-1.8s.01-1.35.04-1.8c.15-2.04.63-3.83,1.44-5.39.81-1.56,1.92-2.77,3.34-3.64,1.42-.87,3.11-1.3,5.05-1.3,2.09,0,3.88.46,5.34,1.39,1.47.93,2.6,2.26,3.39,4,.79,1.74,1.19,3.8,1.19,6.2v.67c0,.3-.1.54-.29.72-.2.18-.44.27-.74.27h-15.98v.45c.06,1.35.37,2.63.94,3.84.57,1.21,1.38,2.2,2.42,2.96,1.05.76,2.29,1.14,3.73,1.14,1.29,0,2.36-.19,3.21-.58.85-.39,1.53-.82,2.04-1.28.51-.46.84-.81.99-1.05.27-.39.48-.62.63-.7.15-.07.39-.11.72-.11h.72c.27,0,.5.08.7.25.19.17.28.38.25.65-.03.42-.26.94-.7,1.55-.43.61-1.05,1.22-1.84,1.82-.79.6-1.76,1.09-2.9,1.48s-2.41.58-3.82.58Zm-7.09-13.51h14.28v-.18c0-1.5-.28-2.84-.85-4.04-.57-1.2-1.39-2.15-2.47-2.85-1.08-.7-2.36-1.06-3.86-1.06s-2.78.35-3.84,1.06c-1.06.7-1.87,1.65-2.42,2.85-.55,1.2-.83,2.54-.83,4.04v.18Z"/>
      <path class="cls-4" d="m518.04,106.98c-.3,0-.54-.09-.72-.27s-.27-.42-.27-.72v-21.37c0-.3.09-.54.27-.72s.42-.27.72-.27h.76c.3,0,.54.09.72.27.18.18.27.42.27.72v2.11c.81-1.05,1.79-1.9,2.94-2.56,1.15-.66,2.69-.99,4.6-.99,2.04,0,3.73.44,5.1,1.32,1.36.88,2.38,2.08,3.05,3.59.67,1.51,1.01,3.23,1.01,5.14v12.75c0,.3-.09.54-.27.72-.18.18-.42.27-.72.27h-.76c-.3,0-.54-.09-.72-.27s-.27-.42-.27-.72v-12.53c0-2.39-.58-4.27-1.75-5.63-1.17-1.36-2.87-2.04-5.12-2.04-2.13,0-3.84.68-5.14,2.04-1.3,1.36-1.95,3.24-1.95,5.63v12.53c0,.3-.09.54-.27.72-.18.18-.42.27-.72.27h-.76Z"/>
      <path class="cls-4" d="m551.04,106.98c-1.56,0-2.78-.33-3.68-.99-.9-.66-1.53-1.56-1.89-2.69-.36-1.14-.54-2.41-.54-3.82v-13.24h-3.5c-.3,0-.54-.09-.72-.27-.18-.18-.27-.42-.27-.72v-.63c0-.3.09-.54.27-.72s.42-.27.72-.27h3.5v-7.54c0-.3.09-.54.27-.72.18-.18.42-.27.72-.27h.76c.3,0,.54.09.72.27.18.18.27.42.27.72v7.54h5.57c.3,0,.54.09.72.27s.27.42.27.72v.63c0,.3-.09.54-.27.72-.18.18-.42.27-.72.27h-5.57v13.06c0,1.59.26,2.83.79,3.73s1.46,1.35,2.81,1.35h2.42c.3,0,.54.09.72.27.18.18.27.42.27.72v.63c0,.3-.09.54-.27.72s-.42.27-.72.27h-2.65Z"/>
      <path class="cls-4" d="m559.8,78.83c-.3,0-.54-.09-.72-.27s-.27-.42-.27-.72v-1.71c0-.3.09-.55.27-.74.18-.19.42-.29.72-.29h1.71c.3,0,.55.1.74.29.19.2.29.44.29.74v1.71c0,.3-.1.54-.29.72s-.44.27-.74.27h-1.71Zm.49,28.15c-.3,0-.54-.09-.72-.27s-.27-.42-.27-.72v-21.37c0-.3.09-.54.27-.72s.42-.27.72-.27h.76c.3,0,.54.09.72.27s.27.42.27.72v21.37c0,.3-.09.54-.27.72s-.42.27-.72.27h-.76Z"/>
      <path class="cls-4" d="m577.17,106.98c-1.56,0-2.78-.33-3.68-.99-.9-.66-1.53-1.56-1.89-2.69-.36-1.14-.54-2.41-.54-3.82v-13.24h-3.5c-.3,0-.54-.09-.72-.27-.18-.18-.27-.42-.27-.72v-.63c0-.3.09-.54.27-.72s.42-.27.72-.27h3.5v-7.54c0-.3.09-.54.27-.72.18-.18.42-.27.72-.27h.76c.3,0,.54.09.72.27.18.18.27.42.27.72v7.54h5.57c.3,0,.54.09.72.27s.27.42.27.72v.63c0,.3-.09.54-.27.72-.18.18-.42.27-.72.27h-5.57v13.06c0,1.59.26,2.83.79,3.73s1.46,1.35,2.81,1.35h2.42c.3,0,.54.09.72.27.18.18.27.42.27.72v.63c0,.3-.09.54-.27.72-.18.18-.42.27-.72.27h-2.65Z"/>
      <path class="cls-4" d="m589.38,115.51c-.24,0-.45-.09-.63-.27s-.27-.39-.27-.63c0-.12.02-.25.07-.38s.11-.31.2-.52l3.46-8.08-8.58-20.2c-.18-.45-.27-.75-.27-.9,0-.24.09-.45.27-.63s.39-.27.63-.27h.94c.3,0,.53.07.7.2.16.13.28.29.34.47l7.54,17.78,7.72-17.78c.09-.18.21-.34.36-.47.15-.13.37-.2.67-.2h.9c.24,0,.45.09.63.27s.27.39.27.63c0,.15-.09.45-.27.9l-12.75,29.41c-.09.18-.21.34-.36.47-.15.13-.38.2-.67.2h-.9Z"/>
      <path class="cls-4" d="m607.21,106.98c-.3,0-.54-.09-.72-.27s-.27-.42-.27-.72v-2.16c0-.3.09-.55.27-.74.18-.19.42-.29.72-.29h2.16c.3,0,.54.1.74.29.19.2.29.44.29.74v2.16c0,.3-.1.54-.29.72-.2.18-.44.27-.74.27h-2.16Z"/>
    </g>
    <g>
      <path class="cls-4" d="m20,367.8c-1.44,0-2.76-.3-3.97-.9-1.21-.6-2.19-1.4-2.94-2.4s-1.12-2.13-1.12-3.39c0-2.04.82-3.67,2.47-4.89,1.65-1.23,3.79-2.02,6.42-2.38l7.09-.99v-1.57c0-1.59-.49-2.84-1.46-3.75s-2.52-1.37-4.65-1.37c-1.56,0-2.81.31-3.77.92-.96.61-1.62,1.41-1.98,2.4-.15.45-.43.67-.85.67h-.72c-.36,0-.61-.1-.76-.29-.15-.19-.22-.43-.22-.7,0-.42.16-.94.47-1.57.31-.63.8-1.25,1.46-1.86s1.51-1.13,2.56-1.55c1.05-.42,2.32-.63,3.82-.63,1.77,0,3.22.24,4.38.72s2.05,1.1,2.69,1.86c.64.76,1.1,1.61,1.37,2.54.27.93.4,1.84.4,2.74v14.95c0,.3-.09.54-.27.72s-.42.27-.72.27h-.76c-.3,0-.54-.09-.72-.27s-.27-.42-.27-.72v-2.11c-.36.54-.87,1.08-1.53,1.62s-1.5,1-2.54,1.37c-1.03.37-2.33.56-3.88.56Zm.45-2.6c1.38,0,2.63-.3,3.77-.9,1.14-.6,2.04-1.52,2.72-2.76.67-1.24,1.01-2.81,1.01-4.69v-1.53l-5.79.81c-2.45.33-4.31.9-5.57,1.71-1.26.81-1.89,1.83-1.89,3.05,0,.99.28,1.8.85,2.42.57.63,1.29,1.1,2.18,1.41.88.31,1.79.47,2.72.47Z"/>
      <path class="cls-4" d="m38.76,367.35c-.3,0-.54-.09-.72-.27s-.27-.42-.27-.72v-21.37c0-.3.09-.54.27-.72.18-.18.42-.27.72-.27h.76c.3,0,.54.09.72.27.18.18.27.42.27.72v2.11c.81-1.05,1.79-1.9,2.94-2.56,1.15-.66,2.69-.99,4.6-.99,2.04,0,3.73.44,5.1,1.32,1.36.88,2.38,2.08,3.05,3.59.67,1.51,1.01,3.23,1.01,5.14v12.75c0,.3-.09.54-.27.72-.18.18-.42.27-.72.27h-.76c-.3,0-.54-.09-.72-.27s-.27-.42-.27-.72v-12.53c0-2.39-.58-4.27-1.75-5.63-1.17-1.36-2.87-2.04-5.12-2.04-2.13,0-3.84.68-5.14,2.04-1.3,1.36-1.95,3.24-1.95,5.63v12.53c0,.3-.09.54-.27.72s-.42.27-.72.27h-.76Z"/>
      <path class="cls-4" d="m72.71,367.8c-1.74,0-3.21-.31-4.42-.94-1.21-.63-2.19-1.47-2.94-2.51s-1.29-2.21-1.64-3.5-.55-2.59-.61-3.91c-.03-.45-.04-.87-.04-1.26s.01-.81.04-1.26c.06-1.32.26-2.62.61-3.91.34-1.29.89-2.45,1.64-3.5.75-1.05,1.73-1.89,2.94-2.51,1.21-.63,2.69-.94,4.42-.94,1.86,0,3.39.34,4.6,1.03,1.21.69,2.19,1.53,2.94,2.51v-10.64c0-.3.09-.54.27-.72s.42-.27.72-.27h.76c.3,0,.54.09.72.27s.27.42.27.72v29.9c0,.3-.09.54-.27.72s-.42.27-.72.27h-.76c-.3,0-.54-.09-.72-.27s-.27-.42-.27-.72v-2.11c-.75,1.02-1.73,1.86-2.94,2.54-1.21.67-2.75,1.01-4.6,1.01Zm.27-2.6c1.71,0,3.08-.4,4.13-1.21,1.05-.81,1.83-1.82,2.33-3.03.51-1.21.78-2.43.81-3.66.03-.45.04-1.03.04-1.75s-.02-1.3-.04-1.75c-.03-1.2-.31-2.38-.83-3.55-.52-1.17-1.31-2.14-2.36-2.92s-2.41-1.17-4.09-1.17-3.12.39-4.15,1.17c-1.03.78-1.77,1.8-2.22,3.05-.45,1.26-.7,2.6-.76,4.04-.03.84-.03,1.68,0,2.51.06,1.44.31,2.78.76,4.04.45,1.26,1.19,2.28,2.22,3.05,1.03.78,2.42,1.17,4.15,1.17Z"/>
      <path class="cls-4" d="m110.78,367.8c-2.16,0-3.96-.45-5.41-1.35-1.45-.9-2.56-2.12-3.32-3.68-.76-1.56-1.17-3.29-1.23-5.21-.03-.45-.04-1.08-.04-1.89s.01-1.44.04-1.89c.06-1.95.47-3.69,1.23-5.23.76-1.54,1.87-2.76,3.32-3.66,1.45-.9,3.25-1.35,5.41-1.35s3.96.45,5.41,1.35c1.45.9,2.56,2.12,3.32,3.66.76,1.54,1.17,3.29,1.24,5.23.03.45.04,1.08.04,1.89s-.02,1.44-.04,1.89c-.06,1.92-.47,3.65-1.24,5.21-.76,1.56-1.87,2.78-3.32,3.68-1.45.9-3.25,1.35-5.41,1.35Zm0-2.6c2.09,0,3.8-.67,5.12-2.02,1.32-1.35,2.02-3.29,2.11-5.84.03-.45.04-1,.04-1.66s-.02-1.21-.04-1.66c-.09-2.57-.79-4.53-2.11-5.86-1.32-1.33-3.02-2-5.12-2s-3.8.67-5.12,2c-1.32,1.33-2.02,3.29-2.11,5.86-.03.45-.04,1-.04,1.66s.01,1.21.04,1.66c.09,2.54.79,4.49,2.11,5.84,1.32,1.35,3.02,2.02,5.12,2.02Z"/>
      <path class="cls-4" d="m137.27,367.8c-1.86,0-3.39-.34-4.6-1.01-1.21-.67-2.19-1.52-2.94-2.54v2.11c0,.3-.09.54-.27.72s-.42.27-.72.27h-.76c-.3,0-.54-.09-.72-.27s-.27-.42-.27-.72v-29.9c0-.3.09-.54.27-.72s.42-.27.72-.27h.76c.3,0,.54.09.72.27s.27.42.27.72v10.64c.75-.99,1.73-1.83,2.94-2.51,1.21-.69,2.75-1.03,4.6-1.03s3.25.31,4.45.94c1.2.63,2.17,1.47,2.92,2.51.75,1.05,1.3,2.22,1.66,3.5.36,1.29.55,2.59.58,3.91.03.45.04.87.04,1.26s-.02.81-.04,1.26c-.03,1.32-.22,2.62-.58,3.91-.36,1.29-.91,2.45-1.66,3.5s-1.72,1.89-2.92,2.51c-1.2.63-2.68.94-4.45.94Zm-.27-2.6c1.77,0,3.16-.39,4.17-1.17s1.75-1.8,2.2-3.05c.45-1.26.7-2.6.76-4.04.03-.84.03-1.68,0-2.51-.06-1.44-.31-2.78-.76-4.04-.45-1.26-1.18-2.27-2.2-3.05s-2.41-1.17-4.17-1.17c-1.65,0-3,.39-4.06,1.17-1.06.78-1.86,1.75-2.38,2.92-.52,1.17-.8,2.35-.83,3.55-.03.45-.04,1.03-.04,1.75s.01,1.3.04,1.75c.06,1.23.34,2.45.83,3.66.49,1.21,1.26,2.22,2.31,3.03,1.05.81,2.42,1.21,4.13,1.21Z"/>
      <path class="cls-4" d="m160.21,367.35c-.48,0-.85-.1-1.1-.31-.25-.21-.46-.48-.61-.81l-8.26-20.83c-.06-.18-.09-.34-.09-.49,0-.24.09-.45.27-.63.18-.18.39-.27.63-.27h.94c.3,0,.53.08.7.25s.26.31.29.43l7.59,19.4,7.59-19.4c.06-.12.16-.26.31-.43.15-.17.37-.25.67-.25h.94c.24,0,.45.09.63.27.18.18.27.39.27.63,0,.15-.03.31-.09.49l-8.26,20.83c-.12.33-.31.6-.58.81-.27.21-.64.31-1.12.31h-.72Z"/>
      <path class="cls-4" d="m176.73,339.2c-.3,0-.54-.09-.72-.27-.18-.18-.27-.42-.27-.72v-1.71c0-.3.09-.55.27-.74.18-.19.42-.29.72-.29h1.71c.3,0,.55.1.74.29.19.2.29.44.29.74v1.71c0,.3-.1.54-.29.72-.19.18-.44.27-.74.27h-1.71Zm.49,28.15c-.3,0-.54-.09-.72-.27s-.27-.42-.27-.72v-21.37c0-.3.09-.54.27-.72.18-.18.42-.27.72-.27h.76c.3,0,.54.09.72.27.18.18.27.42.27.72v21.37c0,.3-.09.54-.27.72s-.42.27-.72.27h-.76Z"/>
      <path class="cls-4" d="m195.14,367.8c-2.16,0-3.96-.45-5.41-1.35-1.45-.9-2.56-2.12-3.32-3.68-.76-1.56-1.17-3.29-1.23-5.21-.03-.45-.04-1.08-.04-1.89s.01-1.44.04-1.89c.06-1.95.47-3.69,1.23-5.23.76-1.54,1.87-2.76,3.32-3.66,1.45-.9,3.25-1.35,5.41-1.35s3.96.45,5.41,1.35c1.45.9,2.56,2.12,3.32,3.66.76,1.54,1.17,3.29,1.24,5.23.03.45.04,1.08.04,1.89s-.02,1.44-.04,1.89c-.06,1.92-.47,3.65-1.24,5.21-.76,1.56-1.87,2.78-3.32,3.68-1.45.9-3.25,1.35-5.41,1.35Zm0-2.6c2.09,0,3.8-.67,5.12-2.02,1.32-1.35,2.02-3.29,2.11-5.84.03-.45.04-1,.04-1.66s-.02-1.21-.04-1.66c-.09-2.57-.79-4.53-2.11-5.86-1.32-1.33-3.02-2-5.12-2s-3.8.67-5.12,2c-1.32,1.33-2.02,3.29-2.11,5.86-.03.45-.04,1-.04,1.66s.01,1.21.04,1.66c.09,2.54.79,4.49,2.11,5.84,1.32,1.35,3.02,2.02,5.12,2.02Z"/>
      <path class="cls-4" d="m220.06,367.8c-2.04,0-3.72-.44-5.05-1.33-1.33-.88-2.32-2.09-2.96-3.61-.64-1.53-.97-3.23-.97-5.12v-12.75c0-.3.09-.54.27-.72.18-.18.42-.27.72-.27h.76c.3,0,.54.09.72.27.18.18.27.42.27.72v12.53c0,5.12,2.23,7.68,6.69,7.68,2.12,0,3.83-.68,5.12-2.04,1.29-1.36,1.93-3.24,1.93-5.63v-12.53c0-.3.09-.54.27-.72.18-.18.42-.27.72-.27h.76c.3,0,.54.09.72.27.18.18.27.42.27.72v21.37c0,.3-.09.54-.27.72s-.42.27-.72.27h-.76c-.3,0-.54-.09-.72-.27s-.27-.42-.27-.72v-2.11c-.81,1.05-1.77,1.9-2.9,2.56-1.12.66-2.66.99-4.6.99Z"/>
      <path class="cls-4" d="m244.98,367.8c-1.56,0-2.9-.21-4.02-.63-1.12-.42-2.04-.92-2.76-1.5-.72-.58-1.25-1.16-1.59-1.73-.34-.57-.53-1-.56-1.3-.03-.33.07-.58.31-.74.24-.16.46-.25.67-.25h.67c.18,0,.34.03.47.09.13.06.31.22.52.49.39.51.84,1,1.35,1.46.51.46,1.16.83,1.95,1.1.79.27,1.79.4,2.99.4,1.8,0,3.28-.34,4.44-1.03,1.17-.69,1.75-1.71,1.75-3.05,0-.84-.23-1.51-.7-2.02-.46-.51-1.25-.96-2.36-1.35-1.11-.39-2.6-.79-4.49-1.21-1.89-.45-3.33-.99-4.33-1.62-1-.63-1.68-1.35-2.04-2.18s-.54-1.71-.54-2.67c0-1.05.3-2.07.9-3.08.6-1,1.49-1.83,2.67-2.47,1.18-.64,2.67-.96,4.47-.96,1.47,0,2.72.2,3.75.58,1.03.39,1.88.86,2.54,1.41.66.55,1.14,1.1,1.46,1.64s.49.97.52,1.3c.03.3-.06.54-.27.72-.21.18-.45.27-.72.27h-.67c-.24,0-.43-.05-.58-.16-.15-.1-.29-.25-.4-.43-.3-.48-.66-.93-1.08-1.35-.42-.42-.98-.76-1.68-1.01-.7-.25-1.65-.38-2.85-.38-1.8,0-3.13.37-4,1.1s-1.3,1.67-1.3,2.81c0,.66.18,1.24.54,1.73.36.49,1.03.94,2.02,1.35.99.4,2.42.83,4.31,1.28,1.92.42,3.43.94,4.53,1.55,1.11.61,1.89,1.34,2.36,2.18.46.84.7,1.83.7,2.96,0,1.2-.34,2.31-1.01,3.32-.67,1.02-1.68,1.83-3.01,2.45-1.33.61-2.97.92-4.92.92Z"/>
      <path class="cls-4" d="m260.69,367.35c-.3,0-.54-.09-.72-.27s-.27-.42-.27-.72v-29.9c0-.3.09-.54.27-.72s.42-.27.72-.27h.76c.3,0,.54.09.72.27s.27.42.27.72v29.9c0,.3-.09.54-.27.72s-.42.27-.72.27h-.76Z"/>
      <path class="cls-4" d="m273.71,375.88c-.24,0-.45-.09-.63-.27-.18-.18-.27-.39-.27-.63,0-.12.02-.25.07-.38s.11-.31.2-.52l3.46-8.08-8.58-20.2c-.18-.45-.27-.75-.27-.9,0-.24.09-.45.27-.63.18-.18.39-.27.63-.27h.94c.3,0,.53.07.7.2.16.13.28.29.34.47l7.54,17.78,7.72-17.78c.09-.18.21-.34.36-.47.15-.13.37-.2.67-.2h.9c.24,0,.45.09.63.27.18.18.27.39.27.63,0,.15-.09.45-.27.9l-12.75,29.41c-.09.18-.21.34-.36.47-.15.13-.38.2-.67.2h-.9Z"/>
      <path class="cls-4" d="m305.05,367.35c-.3,0-.54-.09-.72-.27s-.27-.42-.27-.72v-29.9c0-.3.09-.54.27-.72s.42-.27.72-.27h.76c.3,0,.54.09.72.27s.27.42.27.72v29.9c0,.3-.09.54-.27.72s-.42.27-.72.27h-.76Z"/>
      <path class="cls-4" d="m323.01,367.8c-2.16,0-3.96-.45-5.41-1.35-1.45-.9-2.56-2.12-3.32-3.68-.76-1.56-1.17-3.29-1.23-5.21-.03-.45-.04-1.08-.04-1.89s.01-1.44.04-1.89c.06-1.95.47-3.69,1.23-5.23.76-1.54,1.87-2.76,3.32-3.66,1.45-.9,3.25-1.35,5.41-1.35s3.96.45,5.41,1.35c1.45.9,2.56,2.12,3.32,3.66.76,1.54,1.17,3.29,1.24,5.23.03.45.04,1.08.04,1.89s-.02,1.44-.04,1.89c-.06,1.92-.47,3.65-1.24,5.21-.76,1.56-1.87,2.78-3.32,3.68-1.45.9-3.25,1.35-5.41,1.35Zm0-2.6c2.09,0,3.8-.67,5.12-2.02,1.32-1.35,2.02-3.29,2.11-5.84.03-.45.04-1,.04-1.66s-.02-1.21-.04-1.66c-.09-2.57-.79-4.53-2.11-5.86-1.32-1.33-3.02-2-5.12-2s-3.8.67-5.12,2c-1.32,1.33-2.02,3.29-2.11,5.86-.03.45-.04,1-.04,1.66s.01,1.21.04,1.66c.09,2.54.79,4.49,2.11,5.84,1.32,1.35,3.02,2.02,5.12,2.02Z"/>
      <path class="cls-4" d="m347.88,377.23c-1.92,0-3.48-.25-4.69-.76-1.21-.51-2.16-1.13-2.83-1.86-.67-.73-1.14-1.47-1.41-2.2s-.42-1.32-.45-1.77c-.03-.3.06-.55.27-.74.21-.2.45-.29.72-.29h.63c.24,0,.45.05.63.16.18.1.33.37.45.79.18.48.47,1.04.88,1.68.4.64,1.05,1.21,1.93,1.68s2.1.72,3.66.72c1.65,0,3.02-.21,4.13-.63s1.95-1.16,2.54-2.22c.58-1.06.88-2.54.88-4.42v-3.1c-.75,1.02-1.73,1.86-2.94,2.54-1.21.67-2.75,1.01-4.6,1.01-1.74,0-3.21-.31-4.42-.94-1.21-.63-2.19-1.47-2.94-2.51s-1.3-2.21-1.66-3.5c-.36-1.29-.55-2.59-.58-3.91-.03-.84-.03-1.68,0-2.51.03-1.32.22-2.62.58-3.91.36-1.29.91-2.45,1.66-3.5.75-1.05,1.73-1.89,2.94-2.51,1.21-.63,2.69-.94,4.42-.94,1.86,0,3.39.34,4.6,1.03,1.21.69,2.19,1.53,2.94,2.51v-2.07c0-.3.09-.55.27-.74.18-.19.42-.29.72-.29h.72c.3,0,.55.1.74.29.19.19.29.44.29.74v21.87c0,1.92-.29,3.65-.85,5.21s-1.58,2.8-3.03,3.73c-1.45.93-3.51,1.39-6.17,1.39Zm.04-12.03c1.71,0,3.08-.4,4.13-1.21,1.05-.81,1.82-1.82,2.31-3.03.49-1.21.77-2.43.83-3.66.03-.45.04-.99.04-1.62s-.02-1.17-.04-1.62c-.06-1.23-.34-2.45-.83-3.66-.49-1.21-1.26-2.22-2.31-3.03-1.05-.81-2.42-1.21-4.13-1.21s-3.12.39-4.15,1.17c-1.03.78-1.77,1.8-2.22,3.05-.45,1.26-.7,2.6-.76,4.04-.03.84-.03,1.68,0,2.51.06,1.44.31,2.78.76,4.04.45,1.26,1.19,2.28,2.22,3.05,1.03.78,2.42,1.17,4.15,1.17Z"/>
      <path class="cls-4" d="m374.15,367.8c-2.16,0-3.96-.45-5.41-1.35-1.45-.9-2.56-2.12-3.32-3.68-.76-1.56-1.17-3.29-1.23-5.21-.03-.45-.04-1.08-.04-1.89s.01-1.44.04-1.89c.06-1.95.47-3.69,1.23-5.23.76-1.54,1.87-2.76,3.32-3.66,1.45-.9,3.25-1.35,5.41-1.35s3.96.45,5.41,1.35c1.45.9,2.56,2.12,3.32,3.66.76,1.54,1.17,3.29,1.24,5.23.03.45.04,1.08.04,1.89s-.02,1.44-.04,1.89c-.06,1.92-.47,3.65-1.24,5.21-.76,1.56-1.87,2.78-3.32,3.68-1.45.9-3.25,1.35-5.41,1.35Zm0-2.6c2.09,0,3.8-.67,5.12-2.02,1.32-1.35,2.02-3.29,2.11-5.84.03-.45.04-1,.04-1.66s-.02-1.21-.04-1.66c-.09-2.57-.79-4.53-2.11-5.86-1.32-1.33-3.02-2-5.12-2s-3.8.67-5.12,2c-1.32,1.33-2.02,3.29-2.11,5.86-.03.45-.04,1-.04,1.66s.01,1.21.04,1.66c.09,2.54.79,4.49,2.11,5.84,1.32,1.35,3.02,2.02,5.12,2.02Z"/>
      <path class="cls-4" d="m390.4,367.35c-.3,0-.54-.09-.72-.27s-.27-.42-.27-.72v-2.16c0-.3.09-.55.27-.74.18-.19.42-.29.72-.29h2.16c.3,0,.54.1.74.29.19.2.29.44.29.74v2.16c0,.3-.1.54-.29.72-.2.18-.44.27-.74.27h-2.16Z"/>
      <path class="cls-4" d="m401.09,367.35c-.3,0-.54-.09-.72-.27s-.27-.42-.27-.72v-2.16c0-.3.09-.55.27-.74.18-.19.42-.29.72-.29h2.16c.3,0,.54.1.74.29.19.2.29.44.29.74v2.16c0,.3-.1.54-.29.72-.2.18-.44.27-.74.27h-2.16Z"/>
      <path class="cls-4" d="m411.77,367.35c-.3,0-.54-.09-.72-.27s-.27-.42-.27-.72v-2.16c0-.3.09-.55.27-.74.18-.19.42-.29.72-.29h2.16c.3,0,.54.1.74.29.19.2.29.44.29.74v2.16c0,.3-.1.54-.29.72-.2.18-.44.27-.74.27h-2.16Z"/>
    </g>
    <g>
      <circle class="cls-3" cx="155.81" cy="210.54" r="25.86"/>
      <circle class="cls-8" cx="95.87" cy="210.54" r="25.86"/>
      <circle class="cls-7" cx="35.93" cy="210.54" r="25.86"/>
      <circle class="cls-1" cx="215.75" cy="210.54" r="25.86"/>
      <circle class="cls-6" cx="275.68" cy="210.54" r="25.86"/>
    </g>
    <path class="cls-2" d="m488.53,356.07c1.75.2,3.64-.73,5.23.65.26.06.52.12.78.17,1.04,0,2.08,0,3.11,0,6.27,2.14,12.51,4.22,17.67,8.75,6.55,5.74,11.39,12.55,14.32,20.74,1.34,3.55,3.07,6.99,3.11,10.9,1.06,1.39.99,3.1,1.37,4.69.06,1.81.11,3.62.17,5.43,1.05.56.67,1.51.63,2.36.62,7,1.4,13.99.77,21.04-.55,2.57,2.01,5.13.05,8.2-1.14-2.58-3.44-3.36-5.04-4.93-.63-.28-1.6.2-1.91-.84-2.07-.23-4.03-1.31-6.2-.85-.49.52-.99,1.05-1.48,1.57-.16,2.07,1.16,2.77,2.86,3.41,6.48,2.44,10.52,7.25,12.87,13.63.91.61.36,1.58.59,2.36,2.04,1.13,1.05,3.52,2.13,5.1.75,1.1,1.28,2.56,2.8,1.83,1.09-.52,2.96-.47,2.89-2.57-.03-.92-.61-2.09.62-2.77.31-1.29-.25-2.8.97-3.86.75-4.37,2.5-8.18,6.14-10.94.44-.98,1.14-1.65,2.24-1.84,2.25-1.15,3.4-3.04,2.08-5.28-1.5-2.55-3.79-1.64-5.74-.34-2.97,1.98-5.76,4.18-7.23,7.6-.31.73-.6,1.57-1.55,1.38-1.11-.21-.69-1.25-.66-1.91.14-3.22.37-6.43.56-9.65.4-6.56-1.12-13.02-1.16-19.55-.38-2.32-.75-4.64-1.13-6.96-1.11-.62-.38-1.58-.44-2.39-.05-.52-.11-1.04-.16-1.55-2.94-8.85-5.42-17.88-10.41-25.9-.99-1.51-2.61-2.57-3.15-4.4-3.15-3.13-6.31-6.26-9.46-9.39-.98-.16-1.74-.66-2.34-1.44-2.73-1.37-5.47-2.74-8.2-4.11-.52-.03-1.04-.06-1.57-.1-.55.15-.73-.18-.82-.63-1.28-.31-2.56-.62-3.85-.93-.78-.28-1.56-.56-2.34-.84-2.11-.3-4.22-.61-6.33-.91-4.61-.95-9.3-.2-13.93-.63-1.3.02-2.59.04-3.89.06-2.7.07-5.42-.09-8.08.25-8.45,1.11-16.91,1.95-25.44,2.08-.49.05-.98.11-1.47.16-1.19,1.51-1.26,3.03-.06,4.57,1.87.38,3.51-1.38,5.43-.57.78,0,1.56,0,2.34,0,1.04.03,2.07.06,3.11.09.52-.02,1.04-.05,1.57-.07,2.13.11,4.04-1.42,6.23-.8.52,0,1.04,0,1.56,0,1.55-.08,3.09-.16,4.64-.25.3-.89.97-.66,1.6-.53,1.56.02,3.11.04,4.67.06,2.34-.02,4.68-.04,7.02-.06,2.34.01,4.67.03,7.01.04,1.64.17,3.47-1.06,4.9.67Z"/>
  </g>
</svg>