<?xml version="1.0" encoding="UTF-8"?>
<svg id="Layer_5" data-name="Layer 5" xmlns="http://www.w3.org/2000/svg" viewBox="0 0 500 500">
  <defs>
    <style>
      .cls-1 {
        fill: #fc0053;
      }

      .cls-2 {
        fill: #313159;
      }
    </style>
  </defs>
  <path class="cls-2" d="m278.64,253.92c2.94,0,5.38-1.47,7.34-3.43s2.45-4.89,1.47-7.83l-5.87-24.96c-.49-1.47,0-3.43,1.47-4.41l19.58-16.64c2.94-2.45,3.92-6.36,2.94-9.79s-4.41-5.87-7.83-6.36l-25.94-1.96c-1.47,0-2.94-.98-3.43-2.45l-9.79-23.99c-1.47-3.43-4.89-5.87-8.32-5.87-3.92,0-6.85,1.96-8.32,5.87l-9.79,23.99c-.49,1.47-1.96,2.45-3.43,2.45l-25.94,1.96c-3.92.49-6.85,2.94-7.83,6.36-.98,3.43,0,7.34,2.94,9.79l19.58,16.64c.98.98,1.96,2.45,1.47,4.41l-5.87,24.96c-.49,2.94,0,5.38,1.47,7.83,1.96,2.45,4.41,3.43,7.34,3.43,1.47,0,3.43-.49,4.89-1.47l22.03-13.71c.49-.49,1.47-.49,2.45-.49s1.47,0,2.45.49l22.03,13.71c0,.98,1.47,1.47,2.94,1.47Z"/>
  <path class="cls-2" d="m130.33,108.05c1.96,1.47,2.94,4.41,1.96,6.85l-5.87,24.96c-.98,4.41,2.45,8.32,6.36,8.32.98,0,2.45-.49,3.43-.98l22.03-13.71c.98-.49,2.45-.98,3.43-.98s2.45.49,3.43.98l22.03,13.71c.98.49,2.45.98,3.43.98,3.92,0,7.83-3.92,6.36-8.32l-5.87-24.96c-.49-2.45.49-4.89,1.96-6.85l19.58-16.64c4.41-3.92,1.96-11.26-3.92-11.75l-25.94-1.96c-2.45,0-4.89-1.96-5.87-3.92l-9.79-23.99c-.98-2.94-3.92-3.92-6.36-3.92s-4.89,1.47-6.36,3.92l-9.79,23.99c-.98,2.45-2.94,3.92-5.87,3.92l-25.94,1.96c-5.87.49-8.32,7.83-3.92,11.75l21.54,16.64Z"/>
  <path class="cls-2" d="m305.57,115.88c1.96,1.47,2.94,4.41,1.96,6.85l-5.87,24.96c-.98,4.41,2.45,8.32,6.36,8.32.98,0,2.45-.49,3.43-.98l22.03-13.71c.98-.49,2.45-.98,3.43-.98s2.45.49,3.43.98l22.03,13.71c.98.49,2.45.98,3.43.98,3.92,0,7.83-3.92,6.36-8.32l-4.89-25.45c-.49-2.45.49-4.89,1.96-6.85l19.58-16.64c4.41-3.92,1.96-11.26-3.92-11.75l-25.94-1.96c-2.45,0-4.89-1.96-5.87-3.92l-9.79-23.99c-.98-2.94-3.92-3.92-6.36-3.92s-4.89,1.47-6.36,3.92l-9.79,23.99c-.98,2.45-2.94,3.92-5.87,3.92l-25.94,1.96c-5.87.49-8.32,7.83-3.92,11.75l20.56,17.13Z"/>
  <path class="cls-1" d="m464.16,148.67c-9.3-1.47-20.56,2.94-24.96,16.64-2.94,9.3-8.81,23.99-17.62,42.59,3.43,9.79,5.38,25.45-4.89,45.03-1.96,3.92-4.89,8.32-7.83,12.73-7.83,10.77-18.6,22.52-29.86,34.75l-2.45,2.94c-3.92,4.41-10.28,5.38-15.17,2.45-2.94-1.96-4.89-4.89-5.38-8.32-.49-3.43.49-6.85,2.94-9.3l2.94-2.94c14.68-16.15,28.88-31.33,34.75-42.59,10.28-20.07,3.43-33.29-5.87-38.67-7.34-4.41-18.11-4.89-23.5,3.92-9.3,14.2-23.01,29.37-35.73,44.05-9.3,10.77-17.62,20.56-23.99,28.88-5.87,7.34-10.28,13.71-13.71,19.58-9.79,16.15-21.05,53.36-23.01,90.56-.98,18.6-1.47,39.65-1.96,54.33,0,2.45.98,4.89,2.45,6.36,1.47,1.96,3.92,2.45,6.36,2.45h77.34c2.45,0,4.41-.98,6.36-2.45,1.47-1.47,2.45-3.92,2.45-6.36v-22.03c0-6.36,2.94-12.24,8.32-15.66,25.94-18.11,52.38-41.12,67.06-58.25,30.35-35.73,42.1-141.46,43.57-175.73,0-15.17-9.3-23.5-18.6-24.96Z"/>
  <path class="cls-1" d="m205.71,299.93c-3.43-5.38-7.83-12.24-13.71-19.58-6.36-8.32-14.68-18.11-23.99-28.88-12.73-14.68-25.94-29.37-35.73-44.05-5.87-8.81-16.15-8.32-23.5-3.92-9.79,5.38-16.15,18.6-5.87,38.67,5.87,11.26,19.58,26.43,34.75,42.59l2.94,2.94c2.45,2.45,3.43,5.87,2.94,9.3s-2.45,6.36-5.38,8.32c-4.41,2.94-11.26,1.96-15.17-2.45l-2.45-2.45c-11.26-12.24-22.03-23.99-29.86-34.75-3.43-4.89-5.87-8.81-7.83-12.73-10.28-19.58-8.32-35.24-4.89-45.03-8.81-19.09-14.68-33.29-17.62-42.59-4.41-13.71-15.66-18.6-24.96-16.64-9.3,1.47-18.6,10.28-18.11,24.96,1.47,34.26,13.71,140.49,43.57,175.73,14.68,17.13,41.12,39.65,67.06,58.25,4.89,3.43,8.32,9.3,8.32,15.66v22.03c0,2.45.98,4.41,2.45,6.36,1.47,1.47,3.92,2.45,6.36,2.45h77.34c2.45,0,4.89-.98,6.36-2.45,1.47-1.96,2.45-3.92,2.45-6.36-.49-14.68-.98-35.73-1.96-54.33-2.45-37.69-13.71-74.89-23.5-91.05Z"/>
</svg>