<?xml version="1.0" encoding="UTF-8"?>
<svg id="Layer_5" data-name="Layer 5" xmlns="http://www.w3.org/2000/svg" viewBox="0 0 500 500">
  <defs>
    <style>
      .cls-1 {
        fill: #fc0053;
      }

      .cls-2 {
        fill: #fff;
      }

      .cls-3 {
        fill: #313159;
      }
    </style>
  </defs>
  <path class="cls-3" d="m476.52,218.39v143.27c0,32-25.96,57.96-57.96,57.96h-111.04l-61.1,53.1c-2.88,2.43-6.56,3.77-10.33,3.79-2.33.04-4.64-.47-6.74-1.48-5.55-2.61-9.09-8.2-9.07-14.32v-41.09h-12.42c-32,0-57.96-25.96-57.96-57.96v-47.41h30.78l52.25,45.3v.02c8.57,7.51,19.58,11.62,30.97,11.58,6.82,0,13.57-1.44,19.81-4.21,16.81-7.8,27.6-24.65,27.6-43.2v-10.53c19.93-4.41,37.75-15.47,50.55-31.37,12.78-15.88,19.77-35.68,19.83-56.08v-65.31h36.86c32,0,57.96,25.94,57.96,57.94h0Z"/>
  <path class="cls-1" d="m350.09,81.44v143.27c0,32-25.96,57.94-57.96,57.94h-12.42v41.09c.02,6.14-3.52,11.71-9.07,14.34-2.09,1.01-4.41,1.5-6.74,1.46-3.77,0-7.45-1.34-10.33-3.79l-61.1-53.1h-111.04c-32,0-57.96-25.94-57.96-57.94V81.44c0-32,25.96-57.96,57.96-57.96h210.69c32,0,57.96,25.96,57.96,57.96h0Z"/>
  <path class="cls-2" d="m265.8,197.34v-.02c-.12-8.67-7.13-15.68-15.8-15.8h-126.42c-8.73,0-15.8,7.09-15.8,15.8s7.07,15.8,15.8,15.8h126.42c8.67-.1,15.68-7.11,15.8-15.8v.02Z"/>
  <path class="cls-2" d="m265.8,113.05c-.12-8.69-7.13-15.7-15.8-15.8h-126.42c-8.73,0-15.8,7.07-15.8,15.8s7.07,15.8,15.8,15.8h126.42c8.67-.12,15.68-7.13,15.8-15.8Z"/>
</svg>