<?xml version="1.0" encoding="UTF-8"?>
<svg id="Layer_5" data-name="Layer 5" xmlns="http://www.w3.org/2000/svg" viewBox="0 0 500 500">
  <defs>
    <style>
      .cls-1 {
        fill: #fc0053;
      }

      .cls-1, .cls-2 {
        fill-rule: evenodd;
      }

      .cls-2 {
        fill: #313159;
      }
    </style>
  </defs>
  <path class="cls-1" d="m371.55,100.81H126.9c-101.02,0-164.16,222.56-102.6,285.69,50.51,50.51,159.42-66.29,225.72-63.13,64.71-3.16,173.62,113.64,225.71,63.13,61.56-63.13-1.58-285.69-104.18-285.69Zm-178.36,156.26h-39.46v39.46h-44.19v-39.46h-39.46v-44.19h39.46v-39.46h44.19v39.46h39.46v44.19Zm135.75-26.83c-14.21,0-26.84-11.05-26.84-26.83,0-14.21,12.63-25.26,26.84-25.26s26.83,11.05,26.83,25.26c0,15.78-12.63,26.83-26.83,26.83Zm74.18,61.56c-15.78,0-26.83-11.05-26.83-26.84,0-14.2,11.05-25.25,26.83-25.25,14.21,0,25.26,11.05,25.26,25.25,0,15.79-11.05,26.84-25.26,26.84Z"/>
  <path class="cls-2" d="m355.77,203.41c0,15.78-12.63,26.83-26.83,26.83s-26.84-11.05-26.84-26.83c0-14.21,12.63-25.26,26.84-25.26s26.83,11.05,26.83,25.26Z"/>
  <path class="cls-2" d="m428.38,264.96c0,15.79-11.05,26.84-25.26,26.84-15.78,0-26.83-11.05-26.83-26.84,0-14.2,11.05-25.25,26.83-25.25,14.21,0,25.26,11.05,25.26,25.25Z"/>
</svg>