<?xml version="1.0" encoding="UTF-8"?>
<svg id="Layer_1" data-name="Layer 1" xmlns="http://www.w3.org/2000/svg" viewBox="0 0 712.33 294.81">
  <defs>
    <style>
      .cls-1 {
        fill: #fc0053;
      }
    </style>
  </defs>
  <g>
    <path d="m42.98,28.51c-.19,0-.34-.07-.45-.22s-.15-.32-.13-.54l.83-5.15c.05-.29.15-.53.31-.74.16-.2.39-.31.7-.31h2.41c.17,0,.31.06.41.18s.16.26.16.43c0,.19-.05.38-.14.58l-1.87,4.93c-.1.24-.22.44-.38.59-.16.16-.38.23-.67.23h-1.19Z"/>
    <path d="m7.52,25.81c-.26,0-.47-.08-.61-.23-.14-.16-.22-.35-.22-.59V1.48c0-.26.07-.47.22-.63.14-.16.35-.23.61-.23h1.84c.26,0,.47.08.63.23.16.16.23.37.23.63v9.94h12.38V1.48c0-.26.08-.47.23-.63s.35-.23.59-.23h1.84c.26,0,.47.08.63.23.16.16.23.37.23.63v23.51c0,.24-.08.44-.23.59s-.37.23-.63.23h-1.84c-.24,0-.44-.08-.59-.23-.16-.16-.23-.35-.23-.59v-10.33h-12.38v10.33c0,.24-.08.44-.23.59-.16.16-.37.23-.63.23h-1.84Z"/>
    <path d="m32.43,3.6c-.24,0-.44-.08-.59-.23-.16-.16-.23-.35-.23-.59V.83c0-.24.08-.44.23-.59.16-.16.35-.23.59-.23h2.27c.24,0,.44.08.59.23.16.16.23.35.23.59v1.94c0,.24-.08.44-.23.59-.16.16-.35.23-.59.23h-2.27Zm.29,22.21c-.24,0-.44-.08-.59-.23-.16-.16-.23-.35-.23-.59V7.92c0-.24.08-.44.23-.59s.35-.23.59-.23h1.73c.24,0,.43.08.58.23.14.16.22.35.22.59v17.06c0,.24-.07.44-.22.59-.14.16-.34.23-.58.23h-1.73Z"/>
    <path d="m59.68,25.81c-.26,0-.47-.08-.61-.23-.14-.16-.22-.35-.22-.59V1.44c0-.24.07-.44.22-.59.14-.16.35-.23.61-.23h1.91c.24,0,.44.08.59.23.16.16.23.35.23.59v23.54c0,.24-.08.44-.23.59s-.35.23-.59.23h-1.91Z"/>
    <path d="m68.18,7.2c-.19,0-.34-.07-.45-.22-.11-.14-.15-.32-.13-.54l.83-5.15c.05-.29.15-.53.31-.74.16-.2.39-.31.7-.31h2.41c.17,0,.31.07.41.2s.16.27.16.41c0,.19-.05.38-.14.58l-1.87,4.93c-.1.24-.22.44-.38.59-.16.16-.39.23-.7.23h-1.15Z"/>
    <path d="m76.68,25.81c-.24,0-.44-.08-.59-.23-.16-.16-.23-.35-.23-.59V7.92c0-.24.08-.44.23-.59s.35-.23.59-.23h1.62c.24,0,.44.08.59.23.16.16.23.35.23.59v1.26c.55-.74,1.25-1.34,2.09-1.78.84-.44,1.85-.67,3.02-.67,2.71-.02,4.63,1.08,5.76,3.31.55-1.01,1.36-1.81,2.41-2.41,1.06-.6,2.26-.9,3.6-.9,1.25,0,2.38.29,3.4.86,1.02.58,1.82,1.45,2.41,2.61.59,1.16.88,2.62.88,4.37v10.4c0,.24-.08.44-.23.59-.16.16-.35.23-.59.23h-1.69c-.24,0-.44-.08-.59-.23-.16-.16-.23-.35-.23-.59v-10.08c0-1.34-.19-2.4-.58-3.17-.38-.77-.9-1.31-1.55-1.62s-1.36-.47-2.12-.47c-.62,0-1.26.16-1.91.47s-1.18.85-1.6,1.62c-.42.77-.63,1.82-.63,3.17v10.08c0,.24-.08.44-.23.59-.16.16-.35.23-.59.23h-1.69c-.24,0-.44-.08-.59-.23-.16-.16-.23-.35-.23-.59v-10.08c0-1.34-.2-2.4-.61-3.17-.41-.77-.94-1.31-1.58-1.62-.65-.31-1.33-.47-2.05-.47-.62,0-1.26.16-1.91.47-.65.31-1.18.85-1.6,1.62-.42.77-.63,1.81-.63,3.13v10.12c0,.24-.08.44-.23.59s-.35.23-.59.23h-1.73Z"/>
    <path d="m117.97,25.81c-.26,0-.47-.08-.61-.23-.14-.16-.22-.35-.22-.59V1.48c0-.26.07-.47.22-.63.14-.16.35-.23.61-.23h1.8c.26,0,.47.08.63.23.16.16.23.37.23.63v8.93l9.61-9.22c.1-.1.26-.22.49-.36.23-.14.53-.22.92-.22h1.94c.19,0,.36.07.5.22s.22.31.22.5-.05.35-.14.47l-11.12,10.87,11.84,11.92c.12.14.18.31.18.5s-.07.36-.22.5c-.14.14-.31.22-.5.22h-2.02c-.41,0-.72-.08-.94-.23-.22-.16-.37-.27-.47-.34l-10.3-10.15v9.9c0,.24-.08.44-.23.59-.16.16-.37.23-.63.23h-1.8Z"/>
    <path d="m143.28,26.17c-1.2,0-2.29-.24-3.28-.72-.98-.48-1.78-1.13-2.38-1.94-.6-.82-.9-1.74-.9-2.77,0-1.66.67-2.98,2.02-3.96,1.34-.98,3.1-1.63,5.26-1.94l5.36-.76v-1.04c0-1.15-.33-2.05-.99-2.7-.66-.65-1.73-.97-3.22-.97-1.08,0-1.95.22-2.61.65-.66.43-1.12.98-1.39,1.66-.14.36-.4.54-.76.54h-1.62c-.26,0-.46-.08-.59-.23-.13-.16-.2-.34-.2-.56,0-.36.14-.8.41-1.33.28-.53.7-1.04,1.28-1.55.58-.5,1.31-.93,2.21-1.28.9-.35,2-.52,3.29-.52,1.44,0,2.65.19,3.64.56.98.37,1.76.87,2.32,1.49.56.62.97,1.33,1.22,2.12s.38,1.6.38,2.41v11.66c0,.24-.08.44-.23.59-.16.16-.35.23-.59.23h-1.66c-.26,0-.47-.08-.61-.23-.14-.16-.22-.35-.22-.59v-1.55c-.31.43-.73.86-1.26,1.28-.53.42-1.19.77-1.98,1.04-.79.28-1.76.41-2.92.41Zm.76-2.7c.98,0,1.88-.21,2.7-.63.82-.42,1.46-1.07,1.93-1.96.47-.89.7-2,.7-3.35v-1.01l-4.18.61c-1.7.24-2.99.64-3.85,1.21-.86.56-1.3,1.28-1.3,2.14,0,.67.2,1.23.59,1.67.4.44.9.77,1.51.99s1.24.32,1.89.32Z"/>
    <path d="m158.76,25.81c-.24,0-.44-.08-.59-.23-.16-.16-.23-.35-.23-.59V7.96c0-.24.08-.44.23-.61.16-.17.35-.25.59-.25h1.66c.24,0,.44.08.61.25s.25.37.25.61v1.58c.48-.82,1.14-1.43,1.98-1.84.84-.41,1.85-.61,3.02-.61h1.44c.24,0,.43.08.58.23.14.16.22.35.22.59v1.48c0,.24-.07.43-.22.58-.14.14-.34.22-.58.22h-2.16c-1.3,0-2.32.38-3.06,1.13-.74.76-1.12,1.78-1.12,3.08v10.58c0,.24-.08.44-.25.59-.17.16-.37.23-.61.23h-1.76Z"/>
    <path d="m172.44,25.81c-.24,0-.44-.08-.59-.23-.16-.16-.23-.35-.23-.59V7.92c0-.24.08-.44.23-.59s.35-.23.59-.23h1.62c.24,0,.44.08.59.23.16.16.23.35.23.59v1.26c.55-.74,1.25-1.34,2.09-1.78.84-.44,1.85-.67,3.02-.67,2.71-.02,4.63,1.08,5.76,3.31.55-1.01,1.36-1.81,2.41-2.41,1.06-.6,2.26-.9,3.6-.9,1.25,0,2.38.29,3.4.86,1.02.58,1.82,1.45,2.41,2.61.59,1.16.88,2.62.88,4.37v10.4c0,.24-.08.44-.23.59-.16.16-.35.23-.59.23h-1.69c-.24,0-.44-.08-.59-.23-.16-.16-.23-.35-.23-.59v-10.08c0-1.34-.19-2.4-.58-3.17-.38-.77-.9-1.31-1.55-1.62s-1.36-.47-2.12-.47c-.62,0-1.26.16-1.91.47s-1.18.85-1.6,1.62c-.42.77-.63,1.82-.63,3.17v10.08c0,.24-.08.44-.23.59-.16.16-.35.23-.59.23h-1.69c-.24,0-.44-.08-.59-.23-.16-.16-.23-.35-.23-.59v-10.08c0-1.34-.2-2.4-.61-3.17-.41-.77-.94-1.31-1.58-1.62-.65-.31-1.33-.47-2.05-.47-.62,0-1.26.16-1.91.47-.65.31-1.18.85-1.6,1.62-.42.77-.63,1.81-.63,3.13v10.12c0,.24-.08.44-.23.59s-.35.23-.59.23h-1.73Z"/>
    <path d="m208.83,26.17c-1.2,0-2.29-.24-3.28-.72-.98-.48-1.78-1.13-2.38-1.94-.6-.82-.9-1.74-.9-2.77,0-1.66.67-2.98,2.02-3.96,1.34-.98,3.1-1.63,5.26-1.94l5.36-.76v-1.04c0-1.15-.33-2.05-.99-2.7-.66-.65-1.73-.97-3.22-.97-1.08,0-1.95.22-2.61.65-.66.43-1.12.98-1.39,1.66-.14.36-.4.54-.76.54h-1.62c-.26,0-.46-.08-.59-.23-.13-.16-.2-.34-.2-.56,0-.36.14-.8.41-1.33.28-.53.7-1.04,1.28-1.55.58-.5,1.31-.93,2.21-1.28.9-.35,2-.52,3.29-.52,1.44,0,2.65.19,3.64.56.98.37,1.76.87,2.32,1.49.56.62.97,1.33,1.22,2.12s.38,1.6.38,2.41v11.66c0,.24-.08.44-.23.59-.16.16-.35.23-.59.23h-1.66c-.26,0-.47-.08-.61-.23-.14-.16-.22-.35-.22-.59v-1.55c-.31.43-.73.86-1.26,1.28-.53.42-1.19.77-1.98,1.04-.79.28-1.76.41-2.92.41Zm.76-2.7c.98,0,1.88-.21,2.7-.63.82-.42,1.46-1.07,1.93-1.96.47-.89.7-2,.7-3.35v-1.01l-4.18.61c-1.7.24-2.99.64-3.85,1.21-.86.56-1.3,1.28-1.3,2.14,0,.67.2,1.23.59,1.67.4.44.9.77,1.51.99s1.24.32,1.89.32Z"/>
    <path d="m238.21,25.81c-.24,0-.44-.08-.59-.23-.16-.16-.23-.35-.23-.59V3.82h-6.91c-.24,0-.44-.08-.59-.23-.16-.16-.23-.35-.23-.59v-1.51c0-.26.08-.47.23-.63.16-.16.35-.23.59-.23h17.35c.26,0,.47.08.63.23.16.16.23.37.23.63v1.51c0,.24-.08.44-.23.59s-.37.23-.63.23h-6.88v21.17c0,.24-.08.44-.23.59-.16.16-.37.23-.63.23h-1.87Z"/>
    <path d="m255.49,26.17c-1.34,0-2.5-.17-3.46-.5-.96-.34-1.74-.74-2.34-1.22-.6-.48-1.05-.96-1.35-1.44-.3-.48-.46-.86-.49-1.15-.02-.26.06-.47.25-.61.19-.14.38-.22.58-.22h1.58c.14,0,.26.02.34.05.08.04.2.14.34.31.31.34.66.67,1.04,1.01.38.34.86.61,1.42.83.56.22,1.27.32,2.11.32,1.22,0,2.23-.23,3.02-.7.79-.47,1.19-1.16,1.19-2.07,0-.6-.16-1.08-.49-1.44-.32-.36-.9-.68-1.73-.97-.83-.29-1.96-.59-3.4-.9-1.44-.34-2.58-.75-3.42-1.24-.84-.49-1.44-1.08-1.8-1.76-.36-.68-.54-1.46-.54-2.32s.26-1.75.79-2.57c.53-.83,1.3-1.51,2.32-2.03,1.02-.53,2.3-.79,3.83-.79,1.25,0,2.32.16,3.2.47.89.31,1.62.7,2.2,1.17.58.47,1.01.93,1.3,1.39.29.46.44.84.47,1.15.02.24-.05.44-.22.59-.17.16-.36.23-.58.23h-1.51c-.17,0-.31-.04-.41-.11-.11-.07-.21-.16-.31-.25-.24-.31-.52-.62-.85-.94-.32-.31-.74-.57-1.26-.77-.52-.2-1.19-.31-2.03-.31-1.2,0-2.1.25-2.7.76-.6.5-.9,1.14-.9,1.91,0,.46.13.86.4,1.22s.77.68,1.51.97c.74.29,1.85.6,3.31.94,1.58.31,2.83.73,3.74,1.26.91.53,1.56,1.14,1.94,1.84.38.7.58,1.5.58,2.41,0,1.01-.29,1.93-.88,2.77-.59.84-1.45,1.51-2.59,2-1.14.49-2.55.74-4.23.74Z"/>
    <path d="m268.23,25.81c-.24,0-.44-.08-.59-.23-.16-.16-.23-.35-.23-.59V1.08c0-.24.08-.44.23-.59.16-.16.35-.23.59-.23h1.8c.26,0,.47.08.61.23.14.16.22.35.22.59v8.39c.65-.82,1.44-1.48,2.38-1.98.94-.5,2.12-.76,3.56-.76,1.56,0,2.89.34,3.98,1.03,1.09.68,1.92,1.63,2.48,2.84.56,1.21.85,2.62.85,4.23v10.15c0,.24-.07.44-.22.59-.14.16-.35.23-.61.23h-1.8c-.24,0-.44-.08-.59-.23-.16-.16-.23-.35-.23-.59v-9.97c0-1.68-.41-2.99-1.22-3.94-.82-.95-2.02-1.42-3.6-1.42-1.49,0-2.69.47-3.6,1.42-.91.95-1.37,2.26-1.37,3.94v9.97c0,.24-.07.44-.22.59-.14.16-.35.23-.61.23h-1.8Z"/>
    <path d="m296.74,26.17c-2.47,0-4.44-.76-5.9-2.29s-2.27-3.61-2.41-6.25c-.02-.31-.04-.71-.04-1.21s.01-.89.04-1.21c.1-1.7.49-3.2,1.19-4.48.7-1.28,1.65-2.27,2.86-2.97,1.21-.7,2.63-1.04,4.27-1.04,1.82,0,3.35.38,4.59,1.15,1.24.77,2.18,1.86,2.83,3.28.65,1.42.97,3.07.97,4.97v.61c0,.26-.08.47-.23.61-.16.14-.35.22-.59.22h-12.46v.32c.05.98.26,1.9.65,2.75.38.85.94,1.54,1.66,2.07.72.53,1.58.79,2.59.79.86,0,1.58-.13,2.16-.4.58-.26,1.04-.56,1.4-.88.36-.32.6-.57.72-.74.22-.31.38-.5.5-.56.12-.06.31-.09.58-.09h1.73c.24,0,.44.07.59.2.16.13.22.32.2.56-.02.36-.22.8-.58,1.31-.36.52-.88,1.03-1.55,1.53-.67.5-1.49.92-2.45,1.24-.96.32-2.06.49-3.31.49Zm-4.9-11.09h9.86v-.11c0-1.08-.2-2.04-.59-2.88-.4-.84-.97-1.51-1.71-2-.74-.49-1.63-.74-2.66-.74s-1.91.25-2.65.74c-.73.49-1.29,1.16-1.67,2-.38.84-.58,1.8-.58,2.88v.11Z"/>
    <path d="m310.28,25.81c-.24,0-.44-.08-.59-.23-.16-.16-.23-.35-.23-.59V7.96c0-.24.08-.44.23-.61.16-.17.35-.25.59-.25h1.66c.24,0,.44.08.61.25s.25.37.25.61v1.58c.48-.82,1.14-1.43,1.98-1.84.84-.41,1.85-.61,3.02-.61h1.44c.24,0,.43.08.58.23.14.16.22.35.22.59v1.48c0,.24-.07.43-.22.58-.14.14-.34.22-.58.22h-2.16c-1.3,0-2.32.38-3.06,1.13-.74.76-1.12,1.78-1.12,3.08v10.58c0,.24-.08.44-.25.59-.17.16-.37.23-.61.23h-1.76Z"/>
    <path d="m323.67,3.6c-.24,0-.44-.08-.59-.23-.16-.16-.23-.35-.23-.59V.83c0-.24.08-.44.23-.59.16-.16.35-.23.59-.23h2.27c.24,0,.44.08.59.23.16.16.23.35.23.59v1.94c0,.24-.08.44-.23.59-.16.16-.35.23-.59.23h-2.27Zm.29,22.21c-.24,0-.44-.08-.59-.23-.16-.16-.23-.35-.23-.59V7.92c0-.24.08-.44.23-.59s.35-.23.59-.23h1.73c.24,0,.43.08.58.23.14.16.22.35.22.59v17.06c0,.24-.07.44-.22.59-.14.16-.34.23-.58.23h-1.73Z"/>
    <path d="m332.99,25.81c-.24,0-.44-.08-.59-.23-.16-.16-.23-.35-.23-.59V7.92c0-.24.08-.44.23-.59s.35-.23.59-.23h1.69c.24,0,.44.08.59.23.16.16.23.35.23.59v1.58c.62-.82,1.41-1.48,2.36-2,.95-.52,2.17-.77,3.65-.77s2.89.34,3.98,1.03c1.09.68,1.91,1.63,2.47,2.84.55,1.21.83,2.62.83,4.23v10.15c0,.24-.07.44-.22.59-.14.16-.34.23-.58.23h-1.8c-.24,0-.44-.08-.59-.23-.16-.16-.23-.35-.23-.59v-9.97c0-1.68-.41-2.99-1.22-3.94-.82-.95-2.02-1.42-3.6-1.42-1.49,0-2.68.47-3.58,1.42-.9.95-1.35,2.26-1.35,3.94v9.97c0,.24-.08.44-.23.59-.16.16-.35.23-.59.23h-1.8Z"/>
    <path d="m361.65,33.73c-1.63,0-2.97-.22-4.01-.65s-1.86-.95-2.45-1.57c-.59-.61-1.01-1.22-1.26-1.84-.25-.61-.39-1.1-.41-1.46-.02-.24.05-.44.23-.61.18-.17.38-.25.59-.25h1.73c.22,0,.4.05.54.14.14.1.26.3.36.61.14.36.36.76.65,1.21.29.44.73.83,1.33,1.15.6.32,1.44.49,2.52.49s2.08-.15,2.84-.45c.77-.3,1.35-.83,1.75-1.58.4-.76.59-1.79.59-3.11v-2.45c-.58.74-1.33,1.36-2.27,1.85-.94.49-2.11.74-3.53.74s-2.5-.23-3.46-.7c-.96-.47-1.75-1.1-2.36-1.91-.61-.8-1.07-1.72-1.37-2.75-.3-1.03-.47-2.11-.52-3.24-.02-.67-.02-1.33,0-1.98.05-1.13.22-2.21.52-3.24.3-1.03.76-1.96,1.37-2.77.61-.82,1.4-1.46,2.36-1.93.96-.47,2.11-.7,3.46-.7,1.44,0,2.63.27,3.58.81.95.54,1.72,1.19,2.32,1.96v-1.55c0-.24.08-.44.23-.61.16-.17.35-.25.59-.25h1.66c.24,0,.44.08.61.25.17.17.25.37.25.61v17.46c0,1.61-.27,3.04-.81,4.28-.54,1.25-1.43,2.23-2.66,2.95-1.24.72-2.9,1.08-4.99,1.08Zm-.07-10.66c1.2,0,2.17-.28,2.9-.83.73-.55,1.27-1.25,1.62-2.09.35-.84.53-1.69.56-2.56.02-.34.04-.75.04-1.24s-.01-.91-.04-1.24c-.02-.86-.21-1.72-.56-2.56-.35-.84-.89-1.54-1.62-2.09-.73-.55-1.7-.83-2.9-.83s-2.16.27-2.88.81c-.72.54-1.24,1.25-1.55,2.12-.31.88-.49,1.82-.54,2.83-.02.62-.02,1.26,0,1.91.05,1.01.23,1.95.54,2.83.31.88.83,1.58,1.55,2.12.72.54,1.68.81,2.88.81Z"/>
  </g>
  <g>
    <path d="m6.07,58.16h22.79c16.41,0,27.67,9.89,27.67,25.09s-11.25,25.09-27.67,25.09H6.07v-50.17Zm22.22,40.64c9.96,0,16.48-5.95,16.48-15.55s-6.52-15.55-16.48-15.55h-10.61v31.11h10.61Z"/>
    <path d="m102.03,92.21h-29.17c1.08,4.8,5.16,7.74,11.04,7.74,4.09,0,7.02-1.22,9.68-3.73l5.95,6.45c-3.58,4.09-8.96,6.24-15.91,6.24-13.33,0-22-8.39-22-19.85s8.82-19.85,20.57-19.85,20.07,7.6,20.07,20c0,.86-.14,2.08-.21,3.01Zm-29.32-6.52h18.99c-.79-4.87-4.44-8.03-9.46-8.03s-8.74,3.08-9.53,8.03Z"/>
    <path d="m105.97,104.75l3.73-8.03c3.44,2.22,8.67,3.73,13.4,3.73,5.16,0,7.1-1.36,7.1-3.51,0-6.31-23.29.14-23.29-15.27,0-7.31,6.59-12.47,17.85-12.47,5.3,0,11.18,1.22,14.84,3.37l-3.73,7.96c-3.8-2.15-7.6-2.87-11.11-2.87-5.02,0-7.17,1.58-7.17,3.58,0,6.59,23.29.22,23.29,15.41,0,7.17-6.67,12.26-18.21,12.26-6.52,0-13.12-1.79-16.7-4.16Z"/>
    <path d="m146.39,58.16c0-3.51,2.8-6.24,6.95-6.24s6.95,2.58,6.95,6.02c0,3.73-2.79,6.45-6.95,6.45s-6.95-2.72-6.95-6.24Zm1.36,11.61h11.18v38.56h-11.18v-38.56Z"/>
    <path d="m209.1,69.77v32.11c0,14.33-7.74,20.93-21.65,20.93-7.31,0-14.41-1.79-18.92-5.3l4.44-8.03c3.3,2.65,8.67,4.37,13.62,4.37,7.88,0,11.32-3.58,11.32-10.54v-1.65c-2.94,3.22-7.17,4.8-12.18,4.8-10.68,0-19.28-7.38-19.28-18.64s8.6-18.64,19.28-18.64c5.38,0,9.82,1.79,12.76,5.52v-4.95h10.61Zm-11.04,18.06c0-5.66-4.23-9.46-10.11-9.46s-10.18,3.8-10.18,9.46,4.3,9.46,10.18,9.46,10.11-3.8,10.11-9.46Z"/>
    <path d="m258.91,86.26v22.08h-11.18v-20.36c0-6.24-2.87-9.1-7.81-9.1-5.38,0-9.25,3.3-9.25,10.39v19.07h-11.18v-38.56h10.68v4.52c3.01-3.3,7.53-5.09,12.76-5.09,9.1,0,15.98,5.3,15.98,17.06Z"/>
    <path d="m267.65,58.16c0-3.51,2.8-6.24,6.95-6.24s6.95,2.58,6.95,6.02c0,3.73-2.79,6.45-6.95,6.45s-6.95-2.72-6.95-6.24Zm1.36,11.61h11.18v38.56h-11.18v-38.56Z"/>
    <path d="m330,86.26v22.08h-11.18v-20.36c0-6.24-2.87-9.1-7.81-9.1-5.38,0-9.25,3.3-9.25,10.39v19.07h-11.18v-38.56h10.68v4.52c3.01-3.3,7.53-5.09,12.76-5.09,9.1,0,15.98,5.3,15.98,17.06Z"/>
    <path d="m380.31,69.77v32.11c0,14.33-7.74,20.93-21.65,20.93-7.31,0-14.41-1.79-18.92-5.3l4.44-8.03c3.3,2.65,8.67,4.37,13.62,4.37,7.88,0,11.32-3.58,11.32-10.54v-1.65c-2.94,3.22-7.17,4.8-12.18,4.8-10.68,0-19.28-7.38-19.28-18.64s8.6-18.64,19.28-18.64c5.38,0,9.82,1.79,12.76,5.52v-4.95h10.61Zm-11.04,18.06c0-5.66-4.23-9.46-10.11-9.46s-10.18,3.8-10.18,9.46,4.3,9.46,10.18,9.46,10.11-3.8,10.11-9.46Z"/>
    <path d="m410.98,55.15h11.18v53.18h-11.18v-53.18Z"/>
    <path d="m470.1,92.21h-29.17c1.08,4.8,5.16,7.74,11.04,7.74,4.09,0,7.02-1.22,9.68-3.73l5.95,6.45c-3.58,4.09-8.96,6.24-15.91,6.24-13.33,0-22-8.39-22-19.85s8.82-19.85,20.57-19.85,20.07,7.6,20.07,20c0,.86-.14,2.08-.21,3.01Zm-29.32-6.52h18.99c-.79-4.87-4.44-8.03-9.46-8.03s-8.74,3.08-9.53,8.03Z"/>
    <path d="m510.81,86.33v22h-10.46v-4.8c-2.08,3.51-6.09,5.38-11.76,5.38-9.03,0-14.41-5.02-14.41-11.68s4.8-11.54,16.56-11.54h8.89c0-4.8-2.87-7.6-8.89-7.6-4.09,0-8.31,1.36-11.11,3.58l-4.01-7.81c4.23-3.01,10.46-4.66,16.63-4.66,11.75,0,18.56,5.45,18.56,17.13Zm-11.18,9.82v-3.94h-7.67c-5.23,0-6.88,1.94-6.88,4.52,0,2.8,2.37,4.66,6.31,4.66,3.73,0,6.95-1.72,8.24-5.23Z"/>
    <path d="m544.85,69.2v10.32c-.93-.07-1.65-.14-2.51-.14-6.16,0-10.25,3.37-10.25,10.75v18.21h-11.18v-38.56h10.68v5.09c2.72-3.73,7.31-5.66,13.26-5.66Z"/>
    <path d="m590.93,86.26v22.08h-11.18v-20.36c0-6.24-2.87-9.1-7.81-9.1-5.38,0-9.25,3.3-9.25,10.39v19.07h-11.18v-38.56h10.68v4.52c3.01-3.3,7.53-5.09,12.76-5.09,9.1,0,15.98,5.3,15.98,17.06Z"/>
    <path d="m599.67,58.16c0-3.51,2.79-6.24,6.95-6.24s6.95,2.58,6.95,6.02c0,3.73-2.8,6.45-6.95,6.45s-6.95-2.72-6.95-6.24Zm1.36,11.61h11.18v38.56h-11.18v-38.56Z"/>
    <path d="m662.02,86.26v22.08h-11.18v-20.36c0-6.24-2.87-9.1-7.81-9.1-5.38,0-9.25,3.3-9.25,10.39v19.07h-11.18v-38.56h10.68v4.52c3.01-3.3,7.53-5.09,12.76-5.09,9.1,0,15.98,5.3,15.98,17.06Z"/>
    <path d="m712.33,69.77v32.11c0,14.33-7.74,20.93-21.65,20.93-7.31,0-14.41-1.79-18.92-5.3l4.44-8.03c3.3,2.65,8.67,4.37,13.62,4.37,7.88,0,11.32-3.58,11.32-10.54v-1.65c-2.94,3.22-7.17,4.8-12.19,4.8-10.68,0-19.28-7.38-19.28-18.64s8.6-18.64,19.28-18.64c5.38,0,9.82,1.79,12.76,5.52v-4.95h10.61Zm-11.04,18.06c0-5.66-4.23-9.46-10.11-9.46s-10.18,3.8-10.18,9.46,4.3,9.46,10.18,9.46,10.11-3.8,10.11-9.46Z"/>
    <path d="m30.15,192.47c-2.29,1.65-5.66,2.44-9.1,2.44-9.1,0-14.41-4.66-14.41-13.83v-15.84H.69v-8.6h5.95v-9.39h11.18v9.39h9.6v8.6h-9.6v15.7c0,3.3,1.79,5.09,4.8,5.09,1.65,0,3.3-.5,4.52-1.43l3.01,7.88Z"/>
    <path d="m75.87,172.26v22.08h-11.18v-20.36c0-6.24-2.87-9.1-7.81-9.1-5.38,0-9.25,3.3-9.25,10.39v19.07h-11.18v-53.18h11.18v18.64c3.01-3.01,7.31-4.59,12.26-4.59,9.1,0,15.98,5.3,15.98,17.06Z"/>
    <path d="m120.09,172.33v22h-10.46v-4.8c-2.08,3.51-6.09,5.38-11.76,5.38-9.03,0-14.41-5.02-14.41-11.68s4.8-11.54,16.56-11.54h8.89c0-4.8-2.87-7.6-8.89-7.6-4.09,0-8.31,1.36-11.11,3.58l-4.01-7.81c4.23-3.01,10.46-4.66,16.63-4.66,11.75,0,18.56,5.45,18.56,17.13Zm-11.18,9.82v-3.94h-7.67c-5.23,0-6.88,1.94-6.88,4.52,0,2.8,2.37,4.66,6.31,4.66,3.73,0,6.95-1.72,8.24-5.23Z"/>
    <path d="m155.06,192.47c-2.29,1.65-5.66,2.44-9.1,2.44-9.1,0-14.41-4.66-14.41-13.83v-15.84h-5.95v-8.6h5.95v-9.39h11.18v9.39h9.6v8.6h-9.6v15.7c0,3.3,1.79,5.09,4.8,5.09,1.65,0,3.3-.5,4.52-1.43l3.01,7.88Z"/>
    <path d="m180.29,144.16c0-3.51,2.8-6.24,6.95-6.24s6.95,2.58,6.95,6.02c0,3.73-2.8,6.45-6.95,6.45s-6.95-2.72-6.95-6.24Zm1.36,11.61h11.18v38.56h-11.18v-38.56Z"/>
    <path d="m242.64,172.26v22.08h-11.18v-20.36c0-6.24-2.87-9.1-7.81-9.1-5.38,0-9.25,3.3-9.25,10.39v19.07h-11.18v-38.56h10.68v4.52c3.01-3.3,7.53-5.09,12.76-5.09,9.1,0,15.98,5.3,15.98,17.06Z"/>
    <path d="m249.01,190.75l3.73-8.03c3.44,2.22,8.67,3.73,13.4,3.73,5.16,0,7.1-1.36,7.1-3.51,0-6.31-23.29.14-23.29-15.27,0-7.31,6.59-12.47,17.85-12.47,5.3,0,11.18,1.22,14.84,3.37l-3.73,7.96c-3.8-2.15-7.6-2.87-11.11-2.87-5.02,0-7.17,1.58-7.17,3.58,0,6.59,23.29.22,23.29,15.41,0,7.17-6.67,12.26-18.21,12.26-6.52,0-13.12-1.79-16.7-4.16Z"/>
    <path d="m332.79,175.05c0,12.11-8.39,19.85-19.21,19.85-4.8,0-8.74-1.51-11.61-4.66v17.99h-11.18v-52.47h10.68v4.44c2.8-3.37,6.95-5.02,12.11-5.02,10.82,0,19.21,7.74,19.21,19.85Zm-11.32,0c0-6.67-4.23-10.68-9.82-10.68s-9.82,4.01-9.82,10.68,4.23,10.68,9.82,10.68,9.82-4.01,9.82-10.68Z"/>
    <path d="m338.88,144.16c0-3.51,2.8-6.24,6.95-6.24s6.95,2.58,6.95,6.02c0,3.73-2.79,6.45-6.95,6.45s-6.95-2.72-6.95-6.24Zm1.36,11.61h11.18v38.56h-11.18v-38.56Z"/>
    <path d="m385.75,155.2v10.32c-.93-.07-1.65-.14-2.51-.14-6.16,0-10.25,3.37-10.25,10.75v18.21h-11.18v-38.56h10.68v5.09c2.72-3.73,7.31-5.66,13.26-5.66Z"/>
    <path d="m429.61,178.2h-29.17c1.08,4.8,5.16,7.74,11.04,7.74,4.09,0,7.02-1.22,9.68-3.73l5.95,6.45c-3.58,4.09-8.96,6.24-15.91,6.24-13.33,0-22-8.39-22-19.85s8.82-19.85,20.57-19.85,20.07,7.6,20.07,20c0,.86-.14,2.08-.21,3.01Zm-29.32-6.52h18.99c-.79-4.87-4.44-8.03-9.46-8.03s-8.74,3.08-9.53,8.03Z"/>
    <path d="m433.55,190.75l3.73-8.03c3.44,2.22,8.67,3.73,13.4,3.73,5.16,0,7.1-1.36,7.1-3.51,0-6.31-23.29.14-23.29-15.27,0-7.31,6.59-12.47,17.85-12.47,5.3,0,11.18,1.22,14.84,3.37l-3.73,7.96c-3.8-2.15-7.6-2.87-11.11-2.87-5.02,0-7.17,1.58-7.17,3.58,0,6.59,23.29.22,23.29,15.41,0,7.17-6.67,12.26-18.21,12.26-6.52,0-13.12-1.79-16.7-4.16Z"/>
    <path d="m47.28,261.05c0,12.11-8.39,19.85-19.21,19.85-4.8,0-8.74-1.51-11.61-4.66v17.99H5.28v-52.47h10.68v4.44c2.8-3.37,6.95-5.02,12.11-5.02,10.82,0,19.21,7.74,19.21,19.85Zm-11.32,0c0-6.67-4.23-10.68-9.82-10.68s-9.82,4.01-9.82,10.68,4.23,10.68,9.82,10.68,9.82-4.01,9.82-10.68Z"/>
    <path d="m92.29,264.2h-29.17c1.08,4.8,5.16,7.74,11.04,7.74,4.09,0,7.02-1.22,9.68-3.73l5.95,6.45c-3.58,4.08-8.96,6.23-15.91,6.23-13.33,0-22-8.39-22-19.85s8.82-19.85,20.57-19.85,20.07,7.6,20.07,20c0,.86-.14,2.08-.21,3.01Zm-29.32-6.52h18.99c-.79-4.87-4.44-8.03-9.46-8.03s-8.74,3.08-9.53,8.03Z"/>
    <path d="m97.08,261.05c0-11.61,8.96-19.85,21.22-19.85s21.14,8.24,21.14,19.85-8.89,19.85-21.14,19.85-21.22-8.24-21.22-19.85Zm31.03,0c0-6.67-4.23-10.68-9.82-10.68s-9.89,4.01-9.89,10.68,4.3,10.68,9.89,10.68,9.82-4.01,9.82-10.68Z"/>
    <path d="m188.89,261.05c0,12.11-8.39,19.85-19.21,19.85-4.8,0-8.74-1.51-11.61-4.66v17.99h-11.18v-52.47h10.68v4.44c2.8-3.37,6.95-5.02,12.11-5.02,10.82,0,19.21,7.74,19.21,19.85Zm-11.32,0c0-6.67-4.23-10.68-9.82-10.68s-9.82,4.01-9.82,10.68,4.23,10.68,9.82,10.68,9.82-4.01,9.82-10.68Z"/>
    <path d="m196.34,227.15h11.18v53.18h-11.18v-53.18Z"/>
    <path d="m255.47,264.2h-29.17c1.08,4.8,5.16,7.74,11.04,7.74,4.09,0,7.02-1.22,9.68-3.73l5.95,6.45c-3.58,4.08-8.96,6.23-15.91,6.23-13.33,0-22-8.39-22-19.85s8.82-19.85,20.57-19.85,20.07,7.6,20.07,20c0,.86-.14,2.08-.21,3.01Zm-29.32-6.52h18.99c-.79-4.87-4.44-8.03-9.46-8.03s-8.74,3.08-9.53,8.03Z"/>
    <path d="m323.19,241.77v32.11c0,14.33-7.74,20.93-21.65,20.93-7.31,0-14.41-1.79-18.92-5.3l4.44-8.03c3.3,2.65,8.67,4.37,13.62,4.37,7.88,0,11.32-3.58,11.32-10.54v-1.65c-2.94,3.22-7.17,4.8-12.18,4.8-10.68,0-19.28-7.38-19.28-18.64s8.6-18.64,19.28-18.64c5.38,0,9.82,1.79,12.76,5.52v-4.95h10.61Zm-11.04,18.06c0-5.66-4.23-9.46-10.11-9.46s-10.18,3.8-10.18,9.46,4.3,9.46,10.18,9.46,10.11-3.8,10.11-9.46Z"/>
    <path d="m357.52,241.2v10.32c-.93-.07-1.65-.14-2.51-.14-6.16,0-10.25,3.37-10.25,10.75v18.21h-11.18v-38.56h10.68v5.09c2.72-3.73,7.31-5.66,13.26-5.66Z"/>
    <path d="m360.95,261.05c0-11.61,8.96-19.85,21.22-19.85s21.14,8.24,21.14,19.85-8.89,19.85-21.14,19.85-21.22-8.24-21.22-19.85Zm31.03,0c0-6.67-4.23-10.68-9.82-10.68s-9.89,4.01-9.89,10.68,4.3,10.68,9.89,10.68,9.82-4.01,9.82-10.68Z"/>
    <path d="m471.61,241.77l-13.98,38.56h-10.75l-8.67-23.94-8.96,23.94h-10.75l-13.9-38.56h10.54l9.1,26.09,9.46-26.09h9.46l9.17,26.09,9.39-26.09h9.89Z"/>
    <path d="m502.78,278.47c-2.29,1.65-5.66,2.44-9.1,2.44-9.1,0-14.41-4.66-14.41-13.83v-15.84h-5.95v-8.6h5.95v-9.39h11.18v9.39h9.6v8.6h-9.6v15.7c0,3.3,1.79,5.09,4.8,5.09,1.65,0,3.3-.5,4.52-1.43l3.01,7.88Z"/>
    <path d="m548.51,258.26v22.08h-11.18v-20.36c0-6.24-2.87-9.1-7.81-9.1-5.38,0-9.25,3.3-9.25,10.39v19.07h-11.18v-53.18h11.18v18.64c3.01-3.01,7.31-4.59,12.26-4.59,9.1,0,15.98,5.3,15.98,17.06Z"/>
    <path class="cls-1" d="m558.15,270.04c0-6.43,4.77-10.64,10.75-10.64s10.75,4.21,10.75,10.64-4.77,10.86-10.75,10.86-10.75-4.54-10.75-10.86Z"/>
  </g>
  <path class="cls-1" d="m2,270.9c.14-.05.28-.09.42-.14-.52.17.51-.15.93-.27,1.84-.52,3.69-.96,5.55-1.38,7.97-1.8,16.06-3.08,24.16-4.18,14.98-2.04,30.05-3.36,45.13-4.34,23.16-1.5,46.38-2.15,69.59-2.33,32.87-.24,65.75.49,98.59,1.81,4.78.2,9.56.4,14.34.62,2.08.09,2.21-6.83,0-6.93-34.12-1.55-68.26-2.52-102.41-2.48-24.5.03-49,.55-73.45,1.96-15.96.92-31.91,2.21-47.77,4.22-8.85,1.12-17.69,2.45-26.41,4.32-2.16.46-4.31.96-6.44,1.53-.85.23-2.19.38-2.93.85-.03.02-.07.02-.1.03-1.88.64-1.51,7.47.81,6.68h0Z"/>
</svg>