<?xml version="1.0" encoding="UTF-8"?>
<svg id="Layer_1" data-name="Layer 1" xmlns="http://www.w3.org/2000/svg" viewBox="0 0 18 18">
  <defs>
    <style>
      .cls-1 {
        fill: #fff;
        fill-rule: evenodd;
      }
    </style>
  </defs>
  <path class="cls-1" d="m18,16v-5.5c0-.28-.22-.5-.5-.5h-1c-.28,0-.5.22-.5.5v5.5H2V2h5.5c.28,0,.5-.22.5-.5V.5c0-.28-.22-.5-.5-.5H2C.9,0,0,.9,0,2v14c0,1.1.9,2,2,2h14c1.1,0,2-.9,2-2Zm-.49-15.77l.27.27h0c.14.13.21.31.22.5v6.5c0,.28-.22.5-.5.5h-1c-.28,0-.5-.22-.5-.5V3.42L7.56,11.85c-.09.09-.22.15-.36.15s-.26-.05-.35-.15l-.7-.7c-.09-.09-.15-.22-.15-.35s.05-.26.15-.36L14.59,2h-4.09c-.28,0-.5-.22-.5-.5V.5c0-.28.22-.5.5-.5h6.5c.19,0,.38.09.51.23Z"/>
</svg>