<?xml version="1.0" encoding="UTF-8"?>
<svg id="Layer_1" data-name="Layer 1" xmlns="http://www.w3.org/2000/svg" viewBox="0 0 44.7 26.5">
  <defs>
    <style>
      .cls-1 {
        fill: #fc0053;
      }

      .cls-2 {
        fill: #313159;
      }
    </style>
  </defs>
  <path class="cls-2" d="m43.89,9.79c-.31-1.11-.75-2.15-1.32-3.11-.57-.96-1.25-1.84-2.03-2.64-.79-.79-1.67-1.48-2.64-2.04-.97-.57-2.01-1.01-3.12-1.32-1.11-.31-2.26-.46-3.46-.46h-.35v5.22h.35c1.08,0,2.09.21,3.05.62.95.41,1.78.97,2.49,1.68.71.71,1.27,1.54,1.67,2.48.41.95.61,1.96.61,3.04s-.2,2.09-.61,3.05c-.41.95-.96,1.78-1.67,2.49-.71.71-1.54,1.27-2.49,1.67-.95.41-1.97.61-3.05.61h-2.6v-6.14h-5.25v11.36h7.85c1.2,0,2.36-.16,3.46-.47,1.11-.31,2.15-.75,3.12-1.32.97-.57,1.85-1.25,2.64-2.05.79-.79,1.47-1.67,2.03-2.64.57-.96,1.01-2,1.32-3.11.31-1.11.46-2.26.46-3.46s-.15-2.36-.46-3.46Z"/>
  <path class="cls-2" d="m13.39,21.07c-1.08,0-2.1-.2-3.05-.61-.95-.4-1.78-.96-2.49-1.67-.71-.71-1.27-1.54-1.67-2.49-.41-.95-.61-1.97-.61-3.05s.2-2.09.61-3.04c.4-.94.96-1.77,1.67-2.48.71-.71,1.54-1.27,2.49-1.68.95-.41,1.97-.62,3.05-.62h.35V.21h-.35c-1.2,0-2.36.15-3.46.46-1.11.31-2.15.75-3.12,1.32-.97.57-1.85,1.25-2.64,2.04-.79.79-1.47,1.67-2.04,2.64-.57.96-1.01,2-1.32,3.11-.31,1.11-.46,2.26-.46,3.46s.15,2.35.46,3.46c.31,1.11.75,2.14,1.32,3.11.57.96,1.25,1.84,2.04,2.63.79.8,1.67,1.48,2.64,2.05.97.57,2.01,1.01,3.12,1.32,1.11.31,2.26.47,3.46.47h7.85v-5.22h-7.85Z"/>
  <polygon class="cls-1" points="28.72 .21 28.71 15.11 23.46 15.11 23.47 5.43 13.74 5.43 13.74 .21 28.72 .21"/>
</svg>