<?xml version="1.0" encoding="UTF-8"?>
<svg id="Layer_5" data-name="Layer 5" xmlns="http://www.w3.org/2000/svg" viewBox="0 0 500 500">
  <defs>
    <style>
      .cls-1 {
        fill: #fc0053;
      }

      .cls-1, .cls-2 {
        stroke-width: 0px;
      }

      .cls-2 {
        fill: #313159;
      }
    </style>
  </defs>
  <path class="cls-2" d="m311.57,75h-123.13c-62.65,0-113.44,50.78-113.44,113.43v123.1c-.02,62.65,50.75,113.45,113.4,113.47h123.17c62.65,0,113.43-50.79,113.43-113.44v-123.13c0-62.65-50.78-113.43-113.43-113.43Zm-166.57,113.22c0-17.09,13.85-30.94,30.94-30.94h76.89c17.09,0,30.94,13.85,30.94,30.94,0,8.55-3.46,16.28-9.07,21.87-5.6,5.6-13.32,9.07-21.87,9.07h-76.79c-17.09.06-30.99-13.74-31.04-30.84v-.1Zm174.4,155.93h-151.86c-17.09,0-30.95-13.86-30.95-30.95s13.86-30.96,30.95-30.96h151.9c17.09.01,30.95,13.88,30.94,30.97-.01,17.09-13.88,30.95-30.98,30.94Z"/>
  <path class="cls-1" d="m350.38,313.21c-.01,17.09-13.88,30.95-30.98,30.94h-151.86c-17.09,0-30.95-13.86-30.95-30.95s13.86-30.96,30.95-30.96h151.9c17.09.01,30.95,13.88,30.94,30.97Z"/>
  <path class="cls-1" d="m283.78,188.22c0,8.55-3.46,16.28-9.07,21.87-5.6,5.6-13.32,9.07-21.87,9.07h-76.79c-17.09.06-30.99-13.74-31.04-30.84v-.1c0-17.09,13.85-30.94,30.94-30.94h76.89c17.09,0,30.94,13.85,30.94,30.94Z"/>
</svg>