<?xml version="1.0" encoding="UTF-8"?>
<svg id="Layer_5" data-name="Layer 5" xmlns="http://www.w3.org/2000/svg" viewBox="0 0 500 500">
  <defs>
    <style>
      .cls-1 {
        fill: #fc0053;
      }

      .cls-1, .cls-2 {
        stroke-width: 0px;
      }

      .cls-2 {
        fill: #313159;
      }
    </style>
  </defs>
  <path class="cls-2" d="m404.5,172.39h-.04v-34.19c0-7.55-6.12-13.68-13.68-13.68h-132.53c-3.06,0-6.03-1.03-8.44-2.91l-28.32-22.2c-2.41-1.89-5.38-2.91-8.44-2.91h-124.39c-7.55,0-13.68,6.12-13.68,13.68v248.89c0,24.44,20,44.44,44.44,44.44h274.79c16.96,0,30.76-13.82,30.76-30.76v-186.65c0-7.54-6.1-13.65-13.63-13.68l-6.87-.02Zm-34.23-.01h-240.6c-7.55,0-13.68,6.12-13.68,13.68v186.61h.01c0,5.68-4.58,10.26-10.26,10.26s-10.25-4.58-10.25-10.26v-241.98c0-7.55,6.12-13.68,13.68-13.68h96.79c3.06,0,6.03,1.03,8.44,2.91l28.31,22.19c2.41,1.89,5.38,2.91,8.44,2.91h119.14c7.55,0,13.68,6.12,13.68,13.68h0c0,7.55-6.12,13.68-13.68,13.68Z"/>
  <path class="cls-1" d="m129.66,172.37c-7.55,0-13.68,6.12-13.68,13.68v186.61h.01c0,5.68-4.58,10.26-10.26,10.26s-10.25-4.58-10.25-10.26v-241.98c0-7.55,6.12-13.68,13.68-13.68h96.79c3.06,0,6.03,1.03,8.44,2.91l28.31,22.19c2.41,1.89,5.38,2.91,8.44,2.91h119.14c7.55,0,13.68,6.12,13.68,13.68v13.68h-254.28Z"/>
</svg>