<?xml version="1.0" encoding="UTF-8"?>
<svg id="Layer_5" data-name="Layer 5" xmlns="http://www.w3.org/2000/svg" viewBox="0 0 500 500">
  <defs>
    <style>
      .cls-1 {
        fill: #313159;
        stroke-width: 0px;
      }

      .cls-2 {
        fill: #fc0053;
        stroke: #313159;
        stroke-miterlimit: 10;
        stroke-width: 14.58px;
      }
    </style>
  </defs>
  <path class="cls-2" d="m101.25,127.5c-5.13,0-9.91,1.44-13.95,3.96l149.84,130.43c7.95,6.92,17.47,6.92,25.43,0l150.11-130.43c-4.03-2.53-8.82-3.96-13.95-3.96H101.25Z"/>
  <path class="cls-1" d="m76.5,145.27c-.91,2.67-1.5,5.49-1.5,8.48v192.5c0,14.54,11.71,26.25,26.25,26.25h297.5c14.54,0,26.25-11.71,26.25-26.25v-192.5c0-2.99-.6-5.81-1.5-8.48l-149.43,129.74c-13.93,12.1-34.47,12.12-48.4,0L76.5,145.27Z"/>
</svg>