<?xml version="1.0" encoding="UTF-8"?>
<svg id="Layer_5" data-name="Layer 5" xmlns="http://www.w3.org/2000/svg" viewBox="0 0 500 500">
  <defs>
    <style>
      .cls-1 {
        fill: #313159;
      }

      .cls-1, .cls-2 {
        stroke: #313159;
        stroke-width: 29.92px;
      }

      .cls-2 {
        fill: #fc0053;
      }
    </style>
  </defs>
  <g id="Group_40" data-name="Group 40">
    <path class="cls-2" d="m399.6,329.04v90.32c0,5.64-2.82,5.64-5.64,5.64H108.87q-8.46,0-8.46-8.46v-87.5c2.82-36.69,31.05-64.91,67.74-62.09h163.72c36.69,0,64.91,28.23,67.74,62.09Z"/>
    <path id="Path_80" data-name="Path 80" class="cls-1" d="m250,224.6c-39.52-2.82-70.56-36.69-70.56-79.03,2.82-39.52,36.69-70.56,79.03-70.56,39.52,2.82,70.56,33.87,70.56,73.39h0c0,45.16-33.87,76.21-79.03,76.21q2.82,0,0,0h0Z"/>
  </g>
</svg>