<?xml version="1.0" encoding="UTF-8"?>
<svg id="Layer_5" data-name="Layer 5" xmlns="http://www.w3.org/2000/svg" viewBox="0 0 500 500">
  <defs>
    <style>
      .cls-1 {
        fill: #fc0053;
      }

      .cls-2 {
        fill: #fff;
      }

      .cls-3 {
        fill: #313159;
      }
    </style>
  </defs>
  <path class="cls-1" d="m250,6.72C115.64,6.72,6.72,115.64,6.72,250s108.92,243.28,243.28,243.28,243.28-108.92,243.28-243.28S384.36,6.72,250,6.72Zm-18.2,347.25c-3.1-25.4-6.12-50.8-9.29-76.18-.93-7.41-2.57-9.04-9.73-10.25-31.36-5.27-62.74-10.48-94.1-15.72-3.72-.62-7.42-1.32-12.54-2.24,82.87-38.03,164.51-75.5,246.15-112.97.27.23.55.46.82.69-39.23,79.15-78.47,158.31-117.7,237.47-.34-.04-.68-.08-1.02-.12-.87-6.89-1.75-13.79-2.59-20.68Z"/>
  <g>
    <path class="cls-2" d="m341.03,138.91c-79.26,36.34-158.5,72.72-237.76,109.06-3.39,1.55-5.88,3.65-5.36,7.74.53,4.09,3.45,5.45,7.16,6.07,33.68,5.62,67.35,11.42,101.07,16.84,3.94.63,4.13,2.65,4.46,5.43,3.76,31.31,7.54,62.63,11.27,93.95.45,3.81,1.62,7.06,5.88,7.79,4.04.7,6.25-1.75,7.9-5.1,38.25-77.2,76.52-154.38,114.8-231.56.76-1.53,1.51-3.07,1.57-4.42,0-5.8-5.23-8.45-10.99-5.8Zm-107.49,215.74c-.28-.03-.56-.07-.84-.1-.71-5.66-1.44-11.33-2.13-16.99-2.55-20.87-5.03-41.75-7.63-62.6-.76-6.09-2.11-7.43-8-8.42-25.77-4.33-51.56-8.61-77.33-12.92-3.06-.51-6.1-1.08-10.31-1.84,68.1-31.25,135.19-62.04,202.28-92.84.22.19.45.38.67.57-32.24,65.04-64.49,130.1-96.72,195.15Z"/>
    <path class="cls-3" d="m330.27,159.5c-32.24,65.04-64.49,130.1-96.72,195.15-.28-.03-.56-.07-.84-.1-.71-5.66-1.44-11.33-2.13-16.99-2.55-20.87-5.03-41.75-7.63-62.6-.76-6.09-2.11-7.43-8-8.42-25.77-4.33-51.56-8.61-77.33-12.92-3.06-.51-6.1-1.08-10.31-1.84,68.1-31.25,135.19-62.04,202.28-92.84.22.19.45.38.67.57Z"/>
  </g>
</svg>