<?xml version="1.0" encoding="UTF-8"?>
<svg id="Layer_5" data-name="Layer 5" xmlns="http://www.w3.org/2000/svg" viewBox="0 0 500 500">
  <defs>
    <style>
      .cls-1 {
        fill: #fc0053;
      }

      .cls-2 {
        fill: #313159;
      }
    </style>
  </defs>
  <path class="cls-1" d="m144.63,237.38c0,40.01,32.11,72.1,72.1,72.1s72.1-32.11,72.1-72.1-32.11-72.1-72.1-72.1c-39.99-.02-72.1,32.09-72.1,72.1Z"/>
  <path class="cls-1" d="m405.17,252.09h-9.99c1.58,9.48,2.1,18.96,2.1,28.41,0,56.31-25.78,106.85-66.33,140.01v-13.69c0-35.79-17.37-67.89-43.69-87.89-18.96,16.32-43.69,26.32-70.52,26.32s-51.58-9.99-70.01-26.32c-26.85,20-43.69,51.58-43.69,87.89v13.69c-41.04-33.14-66.82-83.14-66.82-139.48,0-99.47,81.04-180.54,180.54-180.54,11.58,0,23.15,1.05,34.21,3.17v-5.26c0-10.53,3.68-21.05,10.53-28.95-14.74-3.17-29.48-4.73-44.74-4.73C97.29,64.73.43,162.11.43,281.07s96.83,216.31,216.33,216.31,216.33-97.37,216.33-216.33c0-12.11-1.05-24.73-3.17-36.31-7.38,4.73-15.79,7.36-24.75,7.36h0Z"/>
  <path class="cls-2" d="m491.5,87.88l-19.47-2.63c-2.63-5.8-3.17-7.36-5.8-13.16l11.58-15.79c3.17-4.21,2.63-9.99-1.05-13.69l-15.79-15.79c-3.68-3.68-9.48-4.21-13.69-1.05l-15.79,11.58c-5.78-3.15-7.36-3.68-13.16-6.31l-2.63-19.47c-.53-5.26-5.26-8.94-10.53-8.94h-22.64c-5.26,0-9.48,3.68-10.53,8.94l-2.63,19.47c-6.31,2.63-7.87,3.17-13.67,5.8l-15.79-11.58c-4.21-3.17-9.99-2.63-13.69,1.05l-15.79,15.79c-3.68,3.68-4.21,9.48-1.05,13.69l11.58,15.79c-2.63,5.8-3.17,7.36-5.8,13.16l-19.47,2.63c-5.26.53-8.94,5.26-8.94,10.53v22.64c0,5.26,3.68,9.48,8.94,10.53l19.47,2.63c2.63,5.8,3.17,7.36,5.8,13.16l-11.58,15.79c-3.17,4.21-2.63,9.99,1.05,13.69l15.79,15.79c3.68,3.68,9.48,4.21,13.69,1.05l15.79-11.58c5.8,2.63,7.36,3.17,13.16,5.8l2.63,19.47c.53,5.26,5.26,8.94,10.53,8.94h22.64c5.26,0,9.48-3.68,10.53-8.94l2.63-19.47c5.8-2.63,7.36-3.17,13.16-5.8l15.79,11.58c4.21,3.17,9.99,2.63,13.69-1.05l15.79-15.79c3.68-3.68,4.21-9.48,1.05-13.69l-11.58-15.79c2.63-5.8,3.17-7.36,5.26-13.16l19.47-2.63c5.26-.53,8.94-5.26,8.94-10.53v-22.64c1.05-4.75-2.63-9.48-7.89-10.01h0Zm-97.91,61.06c-21.59,0-38.94-17.37-38.94-38.94s17.37-38.94,38.94-38.94,38.94,17.37,38.94,38.94c.02,21.57-17.35,38.94-38.94,38.94Z"/>
</svg>