<?xml version="1.0" encoding="UTF-8"?>
<svg id="layer" xmlns="http://www.w3.org/2000/svg" viewBox="0 0 463.18 82.27">
  <defs>
    <style>
      .cls-1 {
        fill: #032f34;
      }

      .cls-2 {
        fill: #005156;
      }

      .cls-3 {
        fill: #00a9a2;
      }

      .cls-4 {
        fill: #72c4e7;
      }

      .cls-5 {
        fill: #9dd7f0;
      }

      .cls-6 {
        fill: #0a888c;
      }

      .cls-7 {
        fill: #0c233e;
      }

      .cls-8 {
        fill: #4fb1e4;
      }
    </style>
  </defs>
  <g id="Layer_1" data-name="Layer 1">
    <polygon class="cls-4" points="31.17 82.26 94.63 61.24 149.44 61.24 86.28 82.26 31.17 82.26"/>
    <polygon class="cls-4" points="0 0 55.43 0 86.08 82.26 31.11 82.26 0 0"/>
    <polygon class="cls-3" points="52.37 8.43 31.11 82.27 86.22 82.26 107.8 8.36 52.37 8.43"/>
    <polygon class="cls-8" points="58.59 8.46 52.37 8.43 31.11 82.26 86.08 82.26 58.59 8.46"/>
    <polygon class="cls-6" points="58.59 8.46 52.37 8.43 31.11 82.26 86.08 82.26 58.59 8.46"/>
    <polygon class="cls-5" points="79.99 66.07 86.02 82.26 86.19 82.26 92.1 62.05 79.99 66.07"/>
    <polygon class="cls-1" points="79.99 66.07 86.02 82.26 86.19 82.26 92.1 62.05 79.99 66.07"/>
    <polygon class="cls-5" points="31.1 82.26 86.02 82.26 79.99 66.07 31.1 82.26"/>
    <polygon class="cls-2" points="31.1 82.26 86.02 82.26 79.99 66.07 31.1 82.26"/>
    <path class="cls-7" d="m129.05,28.82v5.2h-2.27c-3.42,0-4.72,2.27-4.72,5.45v10.27h-5.74v-20.92h5.21l.53,3.13c1.14-1.87,2.77-3.13,6.02-3.13h.97Z"/>
    <path class="cls-7" d="m140.84,28.58c6.38,0,10.69,3.9,10.77,10.04,0,.66-.05,1.31-.16,1.96h-15.2v.16c.25,3.01,1.96,4.88,4.92,4.88,2.32,0,3.95-1.02,4.41-2.97h5.65c-.64,4.06-4.19,7.32-9.7,7.32-7.05,0-11.31-4.19-11.31-10.65s4.31-10.74,10.61-10.74Zm5,8.25c-.45-2.6-2.93-4.35-5.53-3.9-1.99.35-3.55,1.91-3.9,3.9h9.43Z"/>
    <path class="cls-7" d="m159.03,42.76c.16,1.82,1.9,3.08,4.47,3.08,2.35,0,3.94-.77,3.94-2.27,0-1.67-1.46-1.82-4.79-2.24-4.84-.61-8.62-1.67-8.62-5.98s3.62-6.87,8.95-6.83c5.61,0,9.43,2.49,9.7,6.75h-5.45c-.16-1.54-1.76-2.64-4.11-2.64-2.15,0-3.61.88-3.61,2.23,0,1.55,1.76,1.67,4.76,1.99,4.75.53,8.73,1.63,8.73,6.35,0,4.15-3.86,6.79-9.47,6.79s-9.77-2.72-9.97-7.19l5.47-.04Z"/>
    <path class="cls-7" d="m185.61,28.58c6.38,0,10.69,3.9,10.77,10.04,0,.65-.07,1.31-.19,1.95h-15.18v.16c.25,3.01,1.96,4.88,4.93,4.88,2.31,0,3.94-1.02,4.41-2.97h5.65c-.64,4.06-4.19,7.32-9.7,7.32-7.05,0-11.31-4.19-11.31-10.65s4.27-10.73,10.62-10.73Zm5,8.25c-.45-2.6-2.93-4.35-5.53-3.9-1.99.35-3.55,1.91-3.9,3.9h9.43Z"/>
    <path class="cls-7" d="m219.68,44.88v4.86h-2.93c-2.93,0-3.9-1.45-3.82-3.44-1.41,2.4-4.05,3.81-6.83,3.66-4.51,0-7.76-2.15-7.76-6.17,0-4.41,3.33-6.95,9.59-6.95h4.12v-.98c0-1.87-1.51-3.09-3.9-3.09-2.12,0-3.58,1.01-3.83,2.56h-5.53c.41-4.35,4.06-6.75,9.63-6.75,5.85,0,9.27,2.6,9.27,7.61v7.39c0,1.05.48,1.34,1.34,1.34l.63-.03Zm-7.62-4.19h-4.19c-2.36,0-3.78.97-3.78,2.72,0,1.46,1.17,2.4,3.08,2.4,3.01,0,4.84-1.87,4.88-4.72v-.41Z"/>
    <path class="cls-7" d="m234.97,28.82v5.2h-2.28c-3.41,0-4.72,2.27-4.72,5.45v10.27h-5.73v-20.92h5.2l.53,3.13c1.14-1.87,2.77-3.13,6.02-3.13h.98Z"/>
    <path class="cls-7" d="m246.95,49.96c-6.58,0-10.78-4.27-10.78-10.69s4.23-10.68,10.81-10.68c5.66,0,9.27,3.09,10.08,8.05h-5.93c-.37-2-2.15-3.43-4.19-3.37-3.01,0-4.92,2.43-4.92,6.01s1.9,6.06,4.92,6.06c2.11.1,3.95-1.43,4.23-3.53h5.89c-.77,5.02-4.42,8.15-10.12,8.15Z"/>
    <path class="cls-7" d="m280.38,38.38v11.36h-5.75v-11.12c0-3.41-1.37-5.29-4.22-5.29s-4.68,2.12-4.68,5.69v10.72h-5.73v-28.48h5.73v10.12c1.49-1.86,3.78-2.9,6.17-2.8,4.37,0,8.48,2.24,8.48,9.8Z"/>
    <path class="cls-4" d="m306.47,44.96h2.89v4.78h-3.78c-2.07.15-4.1-.61-5.57-2.08l-.49-.48c-2.1,1.84-4.81,2.84-7.6,2.8-5.69,0-10.21-2.52-10.16-7.72,0-2.64,1.37-5.73,5.93-7.81-1.55-1.64-2.36-3.85-2.24-6.1,0-4.19,3.7-7.32,8.9-7.32,4.41,0,7.98,2.8,7.98,6.71,0,2.77-1.3,5.24-6.47,7.4l.08.08,4.51,4.82,3.58-5.65h5.41l-5.98,8.81.93.98c.52.59,1.29.88,2.07.78Zm-9.84-.88l-6.38-6.8c-1.63.83-2.63,2.53-2.56,4.35,0,2.52,1.76,3.9,4.59,3.9,1.58,0,3.12-.52,4.38-1.47h-.03Zm-5.57-15.86c0,1.62.61,2.56,1.99,4.06,2.8-1.22,3.86-2.64,3.86-4.41.09-1.46-1.01-2.72-2.47-2.81-.1,0-.2,0-.3,0-1.65-.05-3.04,1.25-3.09,2.9,0,.07,0,.14,0,.21v.04Z"/>
    <path class="cls-7" d="m332.17,39.31c0,6.5-4.06,10.65-9.7,10.65-2.43.09-4.76-.97-6.28-2.86v10.75h-5.73v-29.02h5l.57,2.88c1.5-2.03,3.9-3.19,6.43-3.12,5.65-.05,9.71,4.14,9.71,10.73Zm-5.82-.08c0-3.53-2.03-5.98-5.16-5.98s-5.09,2.43-5.09,5.98,1.96,6.1,5.09,6.1,5.16-2.53,5.16-6.1Z"/>
    <path class="cls-7" d="m347.95,28.82v5.2h-2.27c-3.42,0-4.72,2.27-4.72,5.45v10.27h-5.74v-20.92h5.21l.53,3.13c1.14-1.87,2.76-3.13,6.01-3.13h.98Z"/>
    <path class="cls-7" d="m370.7,44.88v4.86h-2.93c-2.97,0-3.9-1.43-3.86-3.42-1.41,2.4-4.05,3.81-6.83,3.66-4.51,0-7.76-2.15-7.76-6.17,0-4.41,3.33-6.95,9.6-6.95h4.14v-1c0-1.87-1.5-3.09-3.9-3.09-2.11,0-3.58,1.01-3.82,2.56h-5.54c.41-4.35,4.07-6.75,9.64-6.75,5.85,0,9.26,2.6,9.26,7.61v7.39c0,1.05.49,1.34,1.35,1.34l.64-.03Zm-7.64-4.19h-4.19c-2.35,0-3.78.97-3.78,2.72,0,1.46,1.18,2.4,3.09,2.4,3.01,0,4.84-1.87,4.87-4.72v-.41Z"/>
    <path class="cls-7" d="m382.55,49.96c-6.58,0-10.77-4.27-10.77-10.69s4.21-10.68,10.81-10.68c5.65,0,9.27,3.09,10.08,8.05h-5.94c-.37-2-2.15-3.43-4.19-3.37-3.01,0-4.92,2.43-4.92,6.01s1.89,6.06,4.92,6.06c2.11.1,3.95-1.43,4.23-3.53h5.9c-.78,5.02-4.43,8.15-10.13,8.15Z"/>
    <path class="cls-7" d="m397.14,33.66h-3.46v-4.84h3.46v-5.85h5.74v5.85h4.75v4.84h-4.75v9.14c0,1.47.56,2.08,2.03,2.08h2.97v4.86h-4.76c-3.98,0-5.98-2-5.98-5.99v-10.08Z"/>
    <path class="cls-7" d="m416.73,23.37c.03,1.83-1.42,3.34-3.25,3.38-1.83.03-3.34-1.42-3.38-3.25-.03-1.83,1.42-3.34,3.25-3.38.03,0,.05,0,.08,0,1.76-.06,3.24,1.32,3.3,3.08,0,.06,0,.11,0,.17Zm-.45,5.45v20.92h-5.74v-20.92h5.74Z"/>
    <path class="cls-7" d="m429.89,49.96c-6.59,0-10.78-4.27-10.78-10.69s4.23-10.68,10.81-10.68c5.65,0,9.27,3.09,10.08,8.05h-5.93c-.38-2-2.15-3.43-4.19-3.37-3.01,0-4.93,2.43-4.93,6.01s1.91,6.06,4.93,6.06c2.11.1,3.94-1.43,4.22-3.53h5.9c-.77,5.02-4.43,8.15-10.12,8.15Z"/>
    <path class="cls-7" d="m452.4,28.58c6.39,0,10.7,3.9,10.78,10.04,0,.66-.05,1.31-.17,1.96h-15.16v.16c.24,3.01,1.95,4.88,4.92,4.88,2.32,0,3.94-1.02,4.41-2.97h5.65c-.65,4.06-4.19,7.32-9.7,7.32-7.05,0-11.3-4.19-11.3-10.65s4.27-10.74,10.57-10.74Zm5.01,8.25c-.45-2.6-2.93-4.35-5.53-3.9-1.99.35-3.55,1.91-3.9,3.9h9.43Z"/>
    <path class="cls-7" d="m129.37,16.32c0,3.83-2.48,6.35-5.87,6.35-1.56.08-3.06-.63-3.99-1.89v6.59h-2.64V10.12h2.28l.32,1.84c.94-1.29,2.45-2.03,4.05-1.98,3.38,0,5.86,2.37,5.86,6.35Zm-2.64,0c0-2.44-1.45-4.12-3.63-4.12s-3.61,1.67-3.61,4.07,1.43,4.2,3.61,4.2,3.6-1.73,3.6-4.15h.03Z"/>
    <path class="cls-7" d="m142.58,10.12v12.42h-2.3l-.29-1.58c-.93,1.15-2.35,1.79-3.83,1.72-2.64,0-4.89-1.43-4.89-5.72v-6.84h2.64v6.58c0,2.42.97,3.71,2.88,3.71s3.17-1.52,3.17-4.16v-6.17l2.62.04Z"/>
    <path class="cls-7" d="m157.74,16.32c0,3.81-2.47,6.35-5.87,6.35-1.59.08-3.11-.65-4.05-1.94l-.32,1.76h-2.27V5.56h2.64v6.4c.93-1.29,2.43-2.03,4.02-1.98,3.38,0,5.84,2.34,5.84,6.35Zm-2.64,0c0-2.42-1.46-4.12-3.64-4.12s-3.61,1.69-3.61,4.1,1.43,4.17,3.61,4.17,3.62-1.7,3.62-4.15h.02Z"/>
    <path class="cls-7" d="m162.47,5.56v16.98h-2.64V5.56h2.64Z"/>
    <path class="cls-7" d="m167.98,6.75c.01.89-.69,1.62-1.58,1.63s-1.62-.69-1.63-1.58.69-1.62,1.58-1.63c.01,0,.02,0,.04,0,.86-.02,1.57.65,1.59,1.51,0,.02,0,.05,0,.07Zm-.29,3.37v12.42h-2.64v-12.42h2.64Z"/>
    <path class="cls-7" d="m175.92,22.68c-3.73,0-6.17-2.55-6.17-6.37s2.48-6.33,6.26-6.33c3.13,0,5.16,1.76,5.65,4.56h-2.7c-.3-1.42-1.59-2.41-3.04-2.33-2.11,0-3.53,1.67-3.53,4.1s1.38,4.14,3.53,4.14c1.48.1,2.79-.93,3.06-2.38h2.64c-.48,2.84-2.54,4.61-5.7,4.61Z"/>
    <path class="cls-7" d="m200.03,15.7v6.84h-2.64v-6.7c0-2.34-1.05-3.61-2.99-3.61s-3.32,1.53-3.32,4.03v6.28h-2.64V5.56h2.64v6.35c.89-1.27,2.36-2,3.9-1.94,2.72,0,5.05,1.45,5.05,5.72Z"/>
    <path class="cls-7" d="m207.99,9.98c3.67,0,6.06,2.27,6.17,5.91,0,.33-.02.67-.07,1h-9.4v.14c.12,2.13,1.41,3.53,3.47,3.53,1.43.12,2.75-.8,3.12-2.19h2.64c-.49,2.64-2.88,4.5-5.56,4.32-3.92,0-6.4-2.52-6.4-6.33s2.43-6.38,6.02-6.38Zm3.42,4.99c-.12-1.71-1.6-3-3.31-2.88,0,0-.01,0-.02,0-1.69-.05-3.13,1.2-3.3,2.88h6.62Z"/>
    <path class="cls-7" d="m227.96,20.25v2.28h-1.38c-1.7,0-2.28-.76-2.28-1.99-.88,1.4-2.45,2.22-4.1,2.13-2.71,0-4.6-1.33-4.6-3.63,0-2.55,1.84-3.98,5.29-3.98h3.13v-.75c0-1.38-1.04-2.23-2.74-2.23-1.52,0-2.56.72-2.76,1.82h-2.57c.26-2.49,2.33-3.92,5.46-3.92,3.3,0,5.22,1.57,5.22,4.5v4.9c0,.63.31.88.82.88h.53Zm-3.93-3.25h-3.25c-1.6,0-2.52.61-2.52,1.87,0,1.05.88,1.76,2.31,1.76,2.18,0,3.44-1.29,3.46-3.2v-.43Z"/>
    <path class="cls-7" d="m232.21,5.56v16.98h-2.64V5.56h2.64Z"/>
    <path class="cls-7" d="m235.68,12.42h-2.16v-2.3h2.16v-3.46h2.64v3.46h2.98v2.3h-2.98v6.47c0,.97.33,1.33,1.28,1.33h1.99v2.31h-2.52c-2.38,0-3.39-1.12-3.39-3.38v-6.73Z"/>
    <path class="cls-7" d="m254.55,15.7v6.84h-2.64v-6.7c0-2.34-1.05-3.61-2.99-3.61s-3.32,1.53-3.32,4.03v6.28h-2.64V5.56h2.64v6.35c.89-1.27,2.36-2,3.9-1.94,2.72,0,5.05,1.45,5.05,5.72Z"/>
    <path class="cls-7" d="m157.12,55.67c1.27-.14,2.42.78,2.56,2.05.01.1.02.2.01.31.03.93-.53,1.77-1.4,2.1l1.57,2.94h-1.39l-1.4-2.64h-1.65v2.64h-1.22v-7.39h2.92Zm-1.7,3.66h1.6c.72.06,1.35-.47,1.41-1.19.06-.72-.47-1.35-1.19-1.41-.07,0-.14,0-.21,0h-1.6v2.6Z"/>
    <path class="cls-7" d="m162.88,55.67h1.45l2.78,7.39h-1.32l-.7-1.82h-3.03l-.69,1.82h-1.26l2.78-7.39Zm1.87,4.53l-1.17-3.22-1.18,3.22h2.35Z"/>
    <path class="cls-7" d="m167.85,55.67h1.11l3.6,5.29v-5.29h1.19v7.39h-1.11l-3.6-5.24v5.24h-1.19v-7.39Z"/>
    <path class="cls-7" d="m176.33,55.67v3.82l3.39-3.82h1.48l-2.71,3.08,2.92,4.31h-1.47l-2.32-3.38-1.29,1.45v1.93h-1.22v-7.39h1.22Z"/>
    <path class="cls-7" d="m186.91,55.67v1.12h-3.61v2.05h2.98v1.05h-2.98v2.1h3.74v1.08h-4.94v-7.39h4.82Z"/>
    <path class="cls-7" d="m188.03,55.67h2.36c2.04-.1,3.78,1.47,3.88,3.52.1,2.04-1.47,3.78-3.52,3.88-.12,0-.24,0-.36,0h-2.36v-7.39Zm2.36,6.35c1.46,0,2.64-1.18,2.64-2.64s-1.18-2.64-2.64-2.64h-1.15v5.29h1.15Z"/>
    <path class="cls-7" d="m200.07,55.67h1.45l2.76,7.39h-1.3l-.7-1.82h-3.04l-.69,1.82h-1.25l2.77-7.39Zm1.87,4.53l-1.18-3.22-1.17,3.22h2.35Z"/>
    <path class="cls-7" d="m205.8,55.67v4.29c0,1.37.53,2.09,1.69,2.09s1.72-.71,1.72-2.09v-4.29h1.22v4.23c0,2.1-1,3.23-2.94,3.23s-2.9-1.14-2.9-3.23v-4.23h1.21Z"/>
    <path class="cls-7" d="m212.66,60.66c.08.88.87,1.53,1.75,1.45,0,0,.01,0,.02,0,.88,0,1.51-.39,1.51-1.09s-.77-.95-1.94-1.16-2.39-.61-2.39-2.07c0-1.29,1.08-2.17,2.64-2.17s2.73.95,2.79,2.28h-1.2c-.11-.78-.81-1.34-1.6-1.26-.84,0-1.42.36-1.42,1.06s.77.88,1.93,1.12,2.41.62,2.41,2.07c0,1.31-1.14,2.26-2.73,2.26-1.76,0-2.94-1.04-2.98-2.49l1.21.02Z"/>
    <path class="cls-7" d="m223.25,55.67v1.12h-2.28v6.32h-1.22v-6.32h-2.28v-1.12h5.78Z"/>
    <path class="cls-7" d="m227.1,55.67c1.28-.14,2.43.78,2.57,2.06.01.1.02.2.01.3.03.94-.55,1.78-1.44,2.1l1.56,2.94h-1.36l-1.4-2.64h-1.65v2.64h-1.22v-7.39h2.92Zm-1.7,3.66h1.64c.72.06,1.35-.47,1.41-1.19.06-.72-.47-1.35-1.19-1.41-.07,0-.14,0-.21,0h-1.6l-.04,2.6Z"/>
    <path class="cls-7" d="m232.86,55.67h1.45l2.76,7.39h-1.3l-.7-1.82h-3.04l-.69,1.82h-1.25l2.77-7.39Zm1.87,4.53l-1.18-3.22-1.17,3.22h2.35Z"/>
    <path class="cls-7" d="m237.83,55.67h1.22v6.32h3.18v1.08h-4.41v-7.39Z"/>
    <path class="cls-7" d="m244.38,55.67v7.39h-1.22v-7.39h1.22Z"/>
    <path class="cls-7" d="m247.92,55.67h1.45l2.76,7.39h-1.29l-.7-1.82h-3.03l-.68,1.82h-1.26l2.75-7.39Zm1.87,4.53l-1.18-3.22-1.18,3.22h2.36Z"/>
    <path class="cls-7" d="m253.61,56.79c.05.85-.6,1.57-1.44,1.62-.09,0-.17,0-.26,0v-.63c.67,0,.93-.41.93-.78,0-.05,0-.1,0-.15-.1.07-.23.11-.35.11-.34.01-.62-.25-.63-.59,0-.03,0-.06,0-.09.01-.41.35-.73.76-.72.02,0,.03,0,.05,0,.56.04.93.56.93,1.22Z"/>
    <path class="cls-7" d="m255.54,60.66c.08.88.87,1.53,1.75,1.45,0,0,.01,0,.02,0,.88,0,1.51-.39,1.51-1.09s-.77-.95-1.95-1.16-2.39-.61-2.39-2.07c0-1.29,1.08-2.17,2.64-2.17,1.39-.15,2.64.85,2.79,2.24,0,.01,0,.03,0,.04h-1.15c-.11-.78-.81-1.33-1.6-1.26-.84,0-1.42.36-1.42,1.06s.77.88,1.92,1.12,2.42.62,2.41,2.07c0,1.31-1.15,2.26-2.74,2.26-1.76,0-2.93-1.04-2.97-2.49l1.16.02Z"/>
    <path class="cls-7" d="m263.83,55.67h1.22v6.32h3.18v1.08h-4.41v-7.39Z"/>
    <path class="cls-7" d="m274,55.67v1.12h-3.62v2.05h2.99v1.05h-2.99v2.1h3.75v1.08h-4.96v-7.39h4.84Z"/>
    <path class="cls-7" d="m277.27,55.67h1.45l2.76,7.39h-1.3l-.7-1.82h-3.03l-.69,1.82h-1.26l2.77-7.39Zm1.87,4.53l-1.18-3.22-1.17,3.22h2.35Z"/>
    <path class="cls-7" d="m282.26,55.67h2.36c2.04-.1,3.78,1.47,3.88,3.52s-1.47,3.78-3.52,3.88c-.12,0-.24,0-.36,0h-2.36v-7.39Zm2.36,6.35c1.46,0,2.64-1.18,2.64-2.64s-1.18-2.64-2.64-2.64h-1.18v5.29h1.18Z"/>
    <path class="cls-7" d="m290.65,55.67v7.39h-1.22v-7.39h1.22Z"/>
    <path class="cls-7" d="m291.99,55.67h1.15l3.6,5.29v-5.29h1.2v7.39h-1.11l-3.6-5.24v5.24h-1.23v-7.39Z"/>
    <path class="cls-7" d="m302.57,55.61c1.56-.1,2.94,1.02,3.16,2.57h-1.21c-.21-.92-1.04-1.56-1.98-1.51-1.41,0-2.32,1.11-2.32,2.7s.88,2.64,2.3,2.64c1.06.11,2.01-.66,2.12-1.72,0-.04,0-.07,0-.11v-.19h-2.04v-.98h3.21v4.05h-.88l-.12-1.05c-.54.73-1.4,1.15-2.3,1.12-2.07,0-3.53-1.52-3.53-3.76-.17-1.91,1.24-3.59,3.15-3.75.15-.01.29-.02.44-.01Z"/>
    <path class="cls-7" d="m327.6,55.67v3.11h3.44v-3.11h1.21v7.39h-1.21v-3.21h-3.44v3.21h-1.22v-7.39h1.22Z"/>
    <path class="cls-7" d="m338.44,55.67v1.12h-3.62v2.05h2.99v1.05h-2.99v2.1h3.75v1.08h-4.96v-7.39h4.84Z"/>
    <path class="cls-7" d="m341.74,55.67h1.45l2.76,7.39h-1.3l-.7-1.82h-3.03l-.69,1.82h-1.26l2.77-7.39Zm1.87,4.53l-1.18-3.22-1.17,3.22h2.35Z"/>
    <path class="cls-7" d="m346.71,55.67h1.22v6.32h3.18v1.08h-4.41v-7.39Z"/>
    <path class="cls-7" d="m356.33,55.67v1.12h-2.28v6.32h-1.22v-6.32h-2.28v-1.12h5.78Z"/>
    <path class="cls-7" d="m358.46,55.67v3.11h3.43v-3.11h1.22v7.39h-1.22v-3.21h-3.44v3.21h-1.22v-7.39h1.23Z"/>
    <path class="cls-7" d="m370.09,55.67c1.3-.08,2.42.91,2.5,2.21.08,1.3-.91,2.42-2.21,2.5-.1,0-.19,0-.29,0h-1.7v2.64h-1.22v-7.36h2.92Zm-1.7,3.66h1.6c.7.08,1.34-.42,1.42-1.12,0-.06.01-.12,0-.19.03-.7-.52-1.28-1.21-1.3-.07,0-.14,0-.2,0h-1.6v2.6Z"/>
    <path class="cls-7" d="m376.87,63.13c-2.08.09-3.83-1.52-3.93-3.59s1.52-3.83,3.59-3.93c2.08-.09,3.83,1.52,3.93,3.59,0,.05,0,.11,0,.16.13,1.94-1.34,3.62-3.28,3.76-.11,0-.21,0-.32,0Zm0-1.06c1.34-.04,2.39-1.15,2.35-2.49,0-.05,0-.1,0-.15,0-1.57-.94-2.7-2.34-2.7s-2.34,1.13-2.34,2.7.96,2.64,2.34,2.64Z"/>
    <path class="cls-7" d="m381.56,55.67h1.22v6.32h3.18v1.08h-4.41v-7.39Z"/>
    <path class="cls-7" d="m388.11,55.67v7.39h-1.22v-7.39h1.22Z"/>
    <path class="cls-7" d="m392.74,55.61c1.56-.1,2.93,1.02,3.15,2.57h-1.21c-.2-.9-1.01-1.54-1.94-1.51-1.41,0-2.27,1.11-2.27,2.7s.88,2.64,2.27,2.64c.94.05,1.77-.59,1.97-1.51h1.22c-.18,1.59-1.59,2.76-3.18,2.63-2.19,0-3.57-1.49-3.57-3.76s1.39-3.76,3.57-3.76Z"/>
    <path class="cls-7" d="m397.32,55.67l1.95,3.38,1.99-3.38h1.37l-2.76,4.64v2.73h-1.22v-2.73l-2.76-4.66,1.43.02Z"/>
    <path class="cls-7" d="m408.6,55.67v5.53c.1.91-.56,1.74-1.48,1.84-.12.01-.25.01-.37,0h-1.14v-1.04h.88c.64,0,.88-.3.88-.94v-5.38h1.23Z"/>
    <path class="cls-7" d="m413.3,63.13c-2.08.09-3.83-1.52-3.93-3.59s1.52-3.83,3.59-3.93c2.08-.09,3.83,1.52,3.93,3.59,0,.05,0,.11,0,.16.13,1.94-1.34,3.62-3.28,3.76-.11,0-.21,0-.32,0Zm0-1.08c1.41,0,2.34-1.13,2.34-2.64s-.93-2.7-2.34-2.7-2.34,1.13-2.34,2.7c-.13,1.33.84,2.52,2.17,2.65.06,0,.11,0,.17.01v-.02Z"/>
    <path class="cls-7" d="m419.18,55.67v4.29c0,1.37.53,2.09,1.68,2.09s1.72-.71,1.72-2.09v-4.29h1.22v4.23c0,2.1-1,3.23-2.93,3.23s-2.9-1.14-2.9-3.23v-4.23h1.22Z"/>
    <path class="cls-7" d="m427.99,55.67c1.27-.14,2.42.78,2.56,2.05.01.1.02.2.01.31.03.94-.55,1.79-1.44,2.1l1.57,2.94h-1.36l-1.4-2.64h-1.65v2.64h-1.22v-7.39h2.92Zm-1.7,3.66h1.6c.72.06,1.35-.47,1.41-1.19.06-.72-.47-1.35-1.19-1.41-.07,0-.14,0-.21,0h-1.6v2.6Z"/>
    <path class="cls-7" d="m431.68,55.67h1.11l3.6,5.29v-5.29h1.19v7.39h-1.11l-3.6-5.24v5.24h-1.19v-7.39Z"/>
    <path class="cls-7" d="m441.12,55.67h1.45l2.76,7.39h-1.3l-.7-1.82h-3.01l-.69,1.82h-1.26l2.74-7.39Zm1.85,4.53l-1.19-3.22-1.17,3.22h2.36Z"/>
    <path class="cls-7" d="m446.09,55.67h1.22v6.32h3.18v1.08h-4.41v-7.39Z"/>
  </g>
</svg>