<?xml version="1.0" encoding="UTF-8"?>
<svg id="Layer_5" data-name="Layer 5" xmlns="http://www.w3.org/2000/svg" viewBox="0 0 500 500">
  <defs>
    <style>
      .cls-1 {
        fill: #fc0053;
      }

      .cls-2 {
        fill: #313159;
      }
    </style>
  </defs>
  <path class="cls-1" d="m250,476.11v-56.53c-44.96,0-88.11-17.86-119.9-49.68-31.82-31.8-49.68-74.93-49.68-119.9H23.89c0,59.98,23.82,117.47,66.22,159.9,42.42,42.4,99.92,66.22,159.9,66.22h0Z"/>
  <path class="cls-2" d="m419.58,250c0-37.68,56.53-37.68,56.53,0s-56.53,37.68-56.53,0"/>
  <path class="cls-2" d="m405.48,373.38c-32.65-18.85-4.39-67.79,28.26-48.97,32.62,18.85,4.36,67.82-28.26,48.97"/>
  <path class="cls-2" d="m324.47,433.66c-18.85-32.62,30.11-60.89,48.97-28.26,18.82,32.65-30.11,60.92-48.97,28.26"/>
  <path class="cls-2" d="m66.31,175.58c-32.62-18.82-4.36-67.79,28.26-48.94,32.65,18.82,4.39,67.79-28.26,48.94"/>
  <path class="cls-2" d="m126.57,94.57c-18.85-32.62,30.11-60.89,48.94-28.26,18.85,32.62-30.11,60.89-48.94,28.26"/>
  <path class="cls-2" d="m221.74,52.15c0-37.68,56.53-37.68,56.53,0s-56.53,37.68-56.53,0"/>
  <path class="cls-2" d="m334.82,104.95c-32.62-18.85-4.36-67.82,28.26-48.97,32.62,18.85,4.36,67.79-28.26,48.97"/>
  <path class="cls-2" d="m395.04,165.23c-18.82-32.62,30.11-60.89,48.97-28.26,18.85,32.65-30.11,60.92-48.97,28.26"/>
</svg>